<?xml version="1.0" standalone="no"?>
<!DOCTYPE svg PUBLIC "-//W3C//DTD SVG 1.0//EN" "http://www.w3.org/TR/2001/REC-SVG-20010904/DTD/svg10.dtd">
<svg xmlns="http://www.w3.org/2000/svg" xmlns:xlink="http://www.w3.org/1999/xlink" id="body_1" width="1080" height="1080">

<g transform="matrix(1.3333334 0 0 1.3333334 0 0)">
    <path d="M-81 -81L891 -81L891 891L-81 891z" stroke="none" fill="#B2E6FE" fill-rule="nonzero" />
    <path d="M0 394.58203C 14.015625 385.70703 27.648438 378.14062 39.55078 373.35938C 98.61719 349.6289 166.76953 334.98438 253.125 329.0625C 339.4922 323.14062 350.27344 267.48828 423.98438 274.5547C 497.6953 281.625 635.03906 263.26172 748.3008 257.8711C 772.1172 256.73438 792.5586 258.41406 810 261.77734L810 261.77734L810 434.72656C 769.21484 453.9922 715.95703 454.03125 533.14453 449.29688C 354.9453 444.67578 102.46094 498.27734 0 522.08203L0 522.08203L0 394.58203zM810 91.42578C 765.6406 109.18359 717.4375 103.94531 526.0625 76.77734C 355.9453 52.640625 111.07422 74.29297 0 86.54297L0 86.54297L0 0L810 0L810 91.42578" stroke="none" fill="#C3EDFF" fill-rule="nonzero" />
    <path d="M49.078125 533.6875L155.07422 533.6875L155.07422 810L49.078125 810L49.078125 533.6875zM249.36719 698.21875L355.36328 698.21875L355.36328 810L249.36719 810zM450.26172 246.22656L450.26172 810L708.5664 810L708.5664 246.22656L663.8828 218.3086L663.8828 148.5L579.41797 112.1875L494.9414 148.5L494.9414 218.3086L450.26172 246.22656" stroke="none" fill="#AD5E5E" fill-rule="nonzero" />
    <path d="M681.46094 262.2578L477.3789 262.2578L477.3789 273.6914L681.46094 273.6914L681.46094 262.2578" stroke="none" fill="#954259" fill-rule="nonzero" />
    <path d="M522.8594 373L477.3789 373L477.3789 427.14844L522.8594 427.14844L522.8594 373" stroke="none" fill="#954259" fill-rule="nonzero" />
    <path d="M522.8594 453.6836L477.3789 453.6836L477.3789 507.83203L522.8594 507.83203L522.8594 453.6836" stroke="none" fill="#954259" fill-rule="nonzero" />
    <path d="M602.16016 637.1992L556.6758 637.1992L556.6758 691.34766L602.16016 691.34766L602.16016 637.1992zM602.16016 453.6836L556.6758 453.6836L556.6758 507.83203L602.16016 507.83203zM681.46094 373L635.96484 373L635.96484 427.14844L681.46094 427.14844zM602.16016 290.73438L556.6758 290.73438L556.6758 344.8828L602.16016 344.8828L602.16016 290.73438" stroke="none" fill="#E27C71" fill-rule="nonzero" />
    <path d="M602.16016 717.8828L556.6758 717.8828L556.6758 772.03125L602.16016 772.03125L602.16016 717.8828zM602.16016 554.9336L556.6758 554.9336L556.6758 609.08203L602.16016 609.08203zM681.46094 526.45703L477.3789 526.45703L477.3789 537.8906L681.46094 537.8906zM681.46094 453.6836L635.96484 453.6836L635.96484 507.83203L681.46094 507.83203zM602.16016 373L556.6758 373L556.6758 427.14844L602.16016 427.14844zM522.8594 290.73438L477.3789 290.73438L477.3789 344.8828L522.8594 344.8828zM681.46094 290.73438L635.96484 290.73438L635.96484 344.8828L681.46094 344.8828L681.46094 290.73438" stroke="none" fill="#954259" fill-rule="nonzero" />
    <path d="M545.89844 810L545.89844 358.86328L325.3047 358.86328L325.3047 810L545.89844 810" stroke="none" fill="#FBA082" fill-rule="nonzero" />
    <path d="M416.89062 757.79297L416.89062 724.3125L344.28906 724.3125L344.28906 757.79297L416.89062 757.79297zM522.8594 757.79297L522.8594 724.3125L450.26172 724.3125L450.26172 757.79297zM522.8594 700.83984L522.8594 667.3594L450.26172 667.3594L450.26172 700.83984zM416.89062 643.8867L416.89062 610.40625L344.28906 610.40625L344.28906 643.8867zM522.8594 529.98047L522.8594 496.5L450.26172 496.5L450.26172 529.98047zM416.89062 469.86328L416.89062 436.3828L344.28906 436.3828L344.28906 469.86328zM522.8594 469.86328L522.8594 436.3828L450.26172 436.3828L450.26172 469.86328zM522.8594 412.91016L522.8594 379.4297L450.26172 379.4297L450.26172 412.91016zM515.83984 329.0625L515.83984 358.86328L355.36328 358.86328L355.36328 329.0625L515.83984 329.0625" stroke="none" fill="#D77E79" fill-rule="nonzero" />
    <path d="M416.89062 810L416.89062 781.2656L344.28906 781.2656L344.28906 810L416.89062 810zM522.8594 810L522.8594 781.2656L450.26172 781.2656L450.26172 810zM416.89062 700.83984L416.89062 667.3594L344.28906 667.3594L344.28906 700.83984zM522.8594 643.8867L522.8594 610.40625L450.26172 610.40625L450.26172 643.8867zM416.89062 586.9336L416.89062 553.4531L344.28906 553.4531L344.28906 586.9336zM522.8594 586.9336L522.8594 553.4531L450.26172 553.4531L450.26172 586.9336zM416.89062 529.98047L416.89062 496.5L344.28906 496.5L344.28906 529.98047zM416.89062 412.91016L416.89062 379.4297L344.28906 379.4297L344.28906 412.91016L416.89062 412.91016" stroke="none" fill="#F6C8B0" fill-rule="nonzero" />
    <path d="M629.6836 489.16797L760.91797 489.16797L760.91797 810L629.6836 810L629.6836 489.16797" stroke="none" fill="#FDD29B" fill-rule="nonzero" />
    <path d="M646.85156 501.5039L656.7422 501.5039L656.7422 810L646.85156 810L646.85156 501.5039zM733.8633 501.5039L743.7539 501.5039L743.7539 810L733.8633 810zM690.3594 501.5039L700.2461 501.5039L700.2461 810L690.3594 810L690.3594 501.5039" stroke="none" fill="#EFB060" fill-rule="nonzero" />
    <path d="M155.07422 452.46094L286.3125 452.46094L286.3125 810L155.07422 810L155.07422 452.46094" stroke="none" fill="#F39462" fill-rule="nonzero" />
    <path d="M245.25 714.28516L273.65625 714.28516L273.65625 752.2539L245.25 752.2539L245.25 714.28516zM167.73047 587.72266L196.13672 587.72266L196.13672 625.6914L167.73047 625.6914zM245.25 587.72266L273.65625 587.72266L273.65625 625.6914L245.25 625.6914zM206.49219 539.47266L234.89453 539.47266L234.89453 577.4414L206.49219 577.4414zM167.73047 490.4297L196.13672 490.4297L196.13672 528.39844L167.73047 528.39844zM206.49219 490.4297L234.89453 490.4297L234.89453 528.39844L206.49219 528.39844L206.49219 490.4297" stroke="none" fill="#FFB68B" fill-rule="nonzero" />
    <path d="M167.73047 714.28516L196.13672 714.28516L196.13672 752.2539L167.73047 752.2539L167.73047 714.28516zM206.49219 714.28516L234.89453 714.28516L234.89453 752.2539L206.49219 752.2539zM167.73047 689.7656L273.65625 689.7656L273.65625 697.6758L167.73047 697.6758zM167.73047 636.7656L196.13672 636.7656L196.13672 674.7344L167.73047 674.7344zM245.25 636.7656L273.65625 636.7656L273.65625 674.7344L245.25 674.7344zM206.49219 636.7656L234.89453 636.7656L234.89453 674.7344L206.49219 674.7344zM206.49219 587.72266L234.89453 587.72266L234.89453 625.6914L206.49219 625.6914zM167.73047 539.47266L196.13672 539.47266L196.13672 577.4414L167.73047 577.4414zM245.25 539.47266L273.65625 539.47266L273.65625 577.4414L245.25 577.4414zM245.25 490.4297L273.65625 490.4297L273.65625 528.39844L245.25 528.39844zM167.73047 468.28125L273.65625 468.28125L273.65625 476.1914L167.73047 476.1914L167.73047 468.28125" stroke="none" fill="#C96B4E" fill-rule="nonzero" />
    <path d="M174.0586 460.3711L200.125 460.3711L200.125 431.89453L174.0586 431.89453L174.0586 460.3711" stroke="none" fill="#F39462" fill-rule="nonzero" />
    <path d="M250.13281 270.71094L439.3086 270.71094C 439.3086 259.1797 429.9414 249.8125 418.41016 249.8125C 414.1328 249.8125 410.16797 251.09766 406.85547 253.29688C 403.89844 238.70312 390.9961 227.6875 375.52344 227.6875C 370.77734 227.6875 366.27734 228.72656 362.22266 230.58203C 356.1797 211.79297 338.54297 198.1875 317.7539 198.1875C 291.97266 198.1875 271.03516 219.125 271.03516 244.89453C 271.03516 246.5625 271.1211 248.19531 271.29297 249.8125C 271.20703 249.8125 271.1211 249.8125 271.03516 249.8125C 259.5039 249.8125 250.13281 259.1797 250.13281 270.71094" stroke="none" fill="#F6F6F6" fill-rule="nonzero" />
    <path d="M243.59766 338.51953L236.48828 324.3164L250.70312 324.3164L243.59766 338.51953zM243.59766 158.98047C 285.5078 158.98047 319.53516 193.00781 319.53516 234.91797C 319.53516 276.83203 285.5078 310.85547 243.59766 310.85547C 201.6836 310.85547 167.66016 276.83203 167.66016 234.91797C 167.66016 193.00781 201.6836 158.98047 243.59766 158.98047zM170.33984 308.17578L175.35938 293.10938L185.40625 303.15625zM316.86328 308.17578L301.79688 303.15625L311.83203 293.10938zM347.20703 234.91797L332.9922 242.01562L332.9922 227.8125zM139.98438 234.91797L154.19922 227.8125L154.19922 242.01562zM316.86328 161.65234L311.83203 176.71875L301.79688 166.6836zM170.33984 161.65234L185.40625 166.6836L175.35938 176.71875zM243.59766 131.3086L250.70312 145.51172L236.48828 145.51172L243.59766 131.3086" stroke="none" fill="#FFF05F" fill-rule="nonzero" />
    <path d="M810 381.20703L715.41016 381.20703C 715.41016 373.14844 721.96094 366.59766 730.01953 366.59766C 733 366.59766 735.78125 367.5 738.10547 369.04688C 740.15625 358.83594 749.1914 351.13672 759.9922 351.13672C 763.3047 351.13672 766.45703 351.8672 769.28906 353.16406C 773.5156 340.02734 785.84766 330.51953 800.3828 330.51953C 803.72266 330.51953 806.96094 331.01562 810 331.95312L810 331.95312L810 381.20703zM48.265625 321.89453C 48.265625 321.76953 48.265625 321.64844 48.265625 321.52344C 48.265625 306.4453 60.5 294.20703 75.578125 294.20703L75.578125 294.20703L75.72656 294.20703C 77.71875 268.04297 99.60547 247.40234 126.28906 247.40234C 153.96484 247.40234 176.4961 269.625 176.98828 297.17578C 180.71094 295.28516 184.92578 294.20703 189.38672 294.20703C 204.45312 294.20703 216.6875 306.4453 216.6875 321.52344C 216.6875 321.64844 216.6875 321.76953 216.6875 321.89453L216.6875 321.89453L48.265625 321.89453" stroke="none" fill="#FFFFFF" fill-rule="nonzero" />
</g>
</svg>