<svg xmlns="http://www.w3.org/2000/svg" xmlns:xlink="http://www.w3.org/1999/xlink" width="1080" zoomAndPan="magnify" viewBox="0 0 810 809.999993" height="1080" preserveAspectRatio="xMidYMid meet" version="1.0"><rect x="-81" width="972" fill="#b2e6fe" y="-80.999999" height="971.999992" fill-opacity="1"/><path fill="#c3edff" d="M 0 394.582031 C 14.015625 385.707031 27.648438 378.140625 39.550781 373.359375 C 98.617188 349.628906 166.769531 334.984375 253.125 329.0625 C 339.492188 323.140625 350.273438 267.488281 423.984375 274.554688 C 497.695312 281.625 635.039062 263.261719 748.300781 257.871094 C 772.117188 256.734375 792.558594 258.414062 810 261.777344 L 810 434.726562 C 769.214844 453.992188 715.957031 454.03125 533.144531 449.296875 C 354.945312 444.675781 102.460938 498.277344 0 522.082031 Z M 810 91.425781 C 765.640625 109.183594 717.4375 103.945312 526.0625 76.777344 C 355.945312 52.640625 111.074219 74.292969 0 86.542969 L 0 0 L 810 0 L 810 91.425781 " fill-opacity="1" fill-rule="evenodd"/><path fill="#ad5e5e" d="M 49.078125 533.6875 L 155.074219 533.6875 L 155.074219 810 L 49.078125 810 Z M 249.367188 698.21875 L 355.363281 698.21875 L 355.363281 810 L 249.367188 810 Z M 450.261719 246.226562 L 450.261719 810 L 708.566406 810 L 708.566406 246.226562 L 663.882812 218.308594 L 663.882812 148.5 L 579.417969 112.1875 L 494.941406 148.5 L 494.941406 218.308594 L 450.261719 246.226562 " fill-opacity="1" fill-rule="evenodd"/><path fill="#954259" d="M 681.460938 262.257812 L 477.378906 262.257812 L 477.378906 273.691406 L 681.460938 273.691406 L 681.460938 262.257812 " fill-opacity="1" fill-rule="evenodd"/><path fill="#954259" d="M 522.859375 373 L 477.378906 373 L 477.378906 427.148438 L 522.859375 427.148438 L 522.859375 373 " fill-opacity="1" fill-rule="evenodd"/><path fill="#954259" d="M 522.859375 453.683594 L 477.378906 453.683594 L 477.378906 507.832031 L 522.859375 507.832031 L 522.859375 453.683594 " fill-opacity="1" fill-rule="evenodd"/><path fill="#e27c71" d="M 602.160156 637.199219 L 556.675781 637.199219 L 556.675781 691.347656 L 602.160156 691.347656 Z M 602.160156 453.683594 L 556.675781 453.683594 L 556.675781 507.832031 L 602.160156 507.832031 Z M 681.460938 373 L 635.964844 373 L 635.964844 427.148438 L 681.460938 427.148438 Z M 602.160156 290.734375 L 556.675781 290.734375 L 556.675781 344.882812 L 602.160156 344.882812 L 602.160156 290.734375 " fill-opacity="1" fill-rule="evenodd"/><path fill="#954259" d="M 602.160156 717.882812 L 556.675781 717.882812 L 556.675781 772.03125 L 602.160156 772.03125 Z M 602.160156 554.933594 L 556.675781 554.933594 L 556.675781 609.082031 L 602.160156 609.082031 Z M 681.460938 526.457031 L 477.378906 526.457031 L 477.378906 537.890625 L 681.460938 537.890625 Z M 681.460938 453.683594 L 635.964844 453.683594 L 635.964844 507.832031 L 681.460938 507.832031 Z M 602.160156 373 L 556.675781 373 L 556.675781 427.148438 L 602.160156 427.148438 Z M 522.859375 290.734375 L 477.378906 290.734375 L 477.378906 344.882812 L 522.859375 344.882812 Z M 681.460938 290.734375 L 635.964844 290.734375 L 635.964844 344.882812 L 681.460938 344.882812 L 681.460938 290.734375 " fill-opacity="1" fill-rule="evenodd"/><path fill="#fba082" d="M 545.898438 810 L 545.898438 358.863281 L 325.304688 358.863281 L 325.304688 810 L 545.898438 810 " fill-opacity="1" fill-rule="evenodd"/><path fill="#d77e79" d="M 416.890625 757.792969 L 416.890625 724.3125 L 344.289062 724.3125 L 344.289062 757.792969 Z M 522.859375 757.792969 L 522.859375 724.3125 L 450.261719 724.3125 L 450.261719 757.792969 Z M 522.859375 700.839844 L 522.859375 667.359375 L 450.261719 667.359375 L 450.261719 700.839844 Z M 416.890625 643.886719 L 416.890625 610.40625 L 344.289062 610.40625 L 344.289062 643.886719 Z M 522.859375 529.980469 L 522.859375 496.5 L 450.261719 496.5 L 450.261719 529.980469 Z M 416.890625 469.863281 L 416.890625 436.382812 L 344.289062 436.382812 L 344.289062 469.863281 Z M 522.859375 469.863281 L 522.859375 436.382812 L 450.261719 436.382812 L 450.261719 469.863281 Z M 522.859375 412.910156 L 522.859375 379.429688 L 450.261719 379.429688 L 450.261719 412.910156 Z M 515.839844 329.0625 L 515.839844 358.863281 L 355.363281 358.863281 L 355.363281 329.0625 L 515.839844 329.0625 " fill-opacity="1" fill-rule="evenodd"/><path fill="#f6c8b0" d="M 416.890625 810 L 416.890625 781.265625 L 344.289062 781.265625 L 344.289062 810 Z M 522.859375 810 L 522.859375 781.265625 L 450.261719 781.265625 L 450.261719 810 Z M 416.890625 700.839844 L 416.890625 667.359375 L 344.289062 667.359375 L 344.289062 700.839844 Z M 522.859375 643.886719 L 522.859375 610.40625 L 450.261719 610.40625 L 450.261719 643.886719 Z M 416.890625 586.933594 L 416.890625 553.453125 L 344.289062 553.453125 L 344.289062 586.933594 Z M 522.859375 586.933594 L 522.859375 553.453125 L 450.261719 553.453125 L 450.261719 586.933594 Z M 416.890625 529.980469 L 416.890625 496.5 L 344.289062 496.5 L 344.289062 529.980469 Z M 416.890625 412.910156 L 416.890625 379.429688 L 344.289062 379.429688 L 344.289062 412.910156 L 416.890625 412.910156 " fill-opacity="1" fill-rule="evenodd"/><path fill="#fdd29b" d="M 629.683594 489.167969 L 760.917969 489.167969 L 760.917969 810 L 629.683594 810 L 629.683594 489.167969 " fill-opacity="1" fill-rule="evenodd"/><path fill="#efb060" d="M 646.851562 501.503906 L 656.742188 501.503906 L 656.742188 810 L 646.851562 810 Z M 733.863281 501.503906 L 743.753906 501.503906 L 743.753906 810 L 733.863281 810 Z M 690.359375 501.503906 L 700.246094 501.503906 L 700.246094 810 L 690.359375 810 L 690.359375 501.503906 " fill-opacity="1" fill-rule="evenodd"/><path fill="#f39462" d="M 155.074219 452.460938 L 286.3125 452.460938 L 286.3125 810 L 155.074219 810 L 155.074219 452.460938 " fill-opacity="1" fill-rule="evenodd"/><path fill="#ffb68b" d="M 245.25 714.285156 L 273.65625 714.285156 L 273.65625 752.253906 L 245.25 752.253906 Z M 167.730469 587.722656 L 196.136719 587.722656 L 196.136719 625.691406 L 167.730469 625.691406 Z M 245.25 587.722656 L 273.65625 587.722656 L 273.65625 625.691406 L 245.25 625.691406 Z M 206.492188 539.472656 L 234.894531 539.472656 L 234.894531 577.441406 L 206.492188 577.441406 Z M 167.730469 490.429688 L 196.136719 490.429688 L 196.136719 528.398438 L 167.730469 528.398438 Z M 206.492188 490.429688 L 234.894531 490.429688 L 234.894531 528.398438 L 206.492188 528.398438 L 206.492188 490.429688 " fill-opacity="1" fill-rule="evenodd"/><path fill="#c96b4e" d="M 167.730469 714.285156 L 196.136719 714.285156 L 196.136719 752.253906 L 167.730469 752.253906 Z M 206.492188 714.285156 L 234.894531 714.285156 L 234.894531 752.253906 L 206.492188 752.253906 Z M 167.730469 689.765625 L 273.65625 689.765625 L 273.65625 697.675781 L 167.730469 697.675781 Z M 167.730469 636.765625 L 196.136719 636.765625 L 196.136719 674.734375 L 167.730469 674.734375 Z M 245.25 636.765625 L 273.65625 636.765625 L 273.65625 674.734375 L 245.25 674.734375 Z M 206.492188 636.765625 L 234.894531 636.765625 L 234.894531 674.734375 L 206.492188 674.734375 Z M 206.492188 587.722656 L 234.894531 587.722656 L 234.894531 625.691406 L 206.492188 625.691406 Z M 167.730469 539.472656 L 196.136719 539.472656 L 196.136719 577.441406 L 167.730469 577.441406 Z M 245.25 539.472656 L 273.65625 539.472656 L 273.65625 577.441406 L 245.25 577.441406 Z M 245.25 490.429688 L 273.65625 490.429688 L 273.65625 528.398438 L 245.25 528.398438 Z M 167.730469 468.28125 L 273.65625 468.28125 L 273.65625 476.191406 L 167.730469 476.191406 L 167.730469 468.28125 " fill-opacity="1" fill-rule="evenodd"/><path fill="#f39462" d="M 174.058594 460.371094 L 200.125 460.371094 L 200.125 431.894531 L 174.058594 431.894531 L 174.058594 460.371094 " fill-opacity="1" fill-rule="evenodd"/><path fill="#f6f6f6" d="M 250.132812 270.710938 L 439.308594 270.710938 C 439.308594 259.179688 429.941406 249.8125 418.410156 249.8125 C 414.132812 249.8125 410.167969 251.097656 406.855469 253.296875 C 403.898438 238.703125 390.996094 227.6875 375.523438 227.6875 C 370.777344 227.6875 366.277344 228.726562 362.222656 230.582031 C 356.179688 211.792969 338.542969 198.1875 317.753906 198.1875 C 291.972656 198.1875 271.035156 219.125 271.035156 244.894531 C 271.035156 246.5625 271.121094 248.195312 271.292969 249.8125 C 271.207031 249.8125 271.121094 249.8125 271.035156 249.8125 C 259.503906 249.8125 250.132812 259.179688 250.132812 270.710938 " fill-opacity="1" fill-rule="evenodd"/><path fill="#fff05f" d="M 243.597656 338.519531 L 236.488281 324.316406 L 250.703125 324.316406 Z M 243.597656 158.980469 C 285.507812 158.980469 319.535156 193.007812 319.535156 234.917969 C 319.535156 276.832031 285.507812 310.855469 243.597656 310.855469 C 201.683594 310.855469 167.660156 276.832031 167.660156 234.917969 C 167.660156 193.007812 201.683594 158.980469 243.597656 158.980469 Z M 170.339844 308.175781 L 175.359375 293.109375 L 185.40625 303.15625 Z M 316.863281 308.175781 L 301.796875 303.15625 L 311.832031 293.109375 Z M 347.207031 234.917969 L 332.992188 242.015625 L 332.992188 227.8125 Z M 139.984375 234.917969 L 154.199219 227.8125 L 154.199219 242.015625 Z M 316.863281 161.652344 L 311.832031 176.71875 L 301.796875 166.683594 Z M 170.339844 161.652344 L 185.40625 166.683594 L 175.359375 176.71875 Z M 243.597656 131.308594 L 250.703125 145.511719 L 236.488281 145.511719 L 243.597656 131.308594 " fill-opacity="1" fill-rule="evenodd"/><path fill="#ffffff" d="M 810 381.207031 L 715.410156 381.207031 C 715.410156 373.148438 721.960938 366.597656 730.019531 366.597656 C 733 366.597656 735.78125 367.5 738.105469 369.046875 C 740.15625 358.835938 749.191406 351.136719 759.992188 351.136719 C 763.304688 351.136719 766.457031 351.867188 769.289062 353.164062 C 773.515625 340.027344 785.847656 330.519531 800.382812 330.519531 C 803.722656 330.519531 806.960938 331.015625 810 331.953125 Z M 48.265625 321.894531 C 48.265625 321.769531 48.265625 321.648438 48.265625 321.523438 C 48.265625 306.445312 60.5 294.207031 75.578125 294.207031 L 75.726562 294.207031 C 77.71875 268.042969 99.605469 247.402344 126.289062 247.402344 C 153.964844 247.402344 176.496094 269.625 176.988281 297.175781 C 180.710938 295.285156 184.925781 294.207031 189.386719 294.207031 C 204.453125 294.207031 216.6875 306.445312 216.6875 321.523438 C 216.6875 321.648438 216.6875 321.769531 216.6875 321.894531 L 48.265625 321.894531 " fill-opacity="1" fill-rule="evenodd"/></svg>