<?xml version="1.0" standalone="no"?>
<!DOCTYPE svg PUBLIC "-//W3C//DTD SVG 1.0//EN" "http://www.w3.org/TR/2001/REC-SVG-20010904/DTD/svg10.dtd">
<svg xmlns="http://www.w3.org/2000/svg" xmlns:xlink="http://www.w3.org/1999/xlink" id="body_1" width="1080" height="1080">

<g transform="matrix(1.3333334 0 0 1.3333334 0 0)">
    <path d="M-81 -81L891 -81L891 891L-81 891z" stroke="none" fill="#302B87" fill-rule="nonzero" />
    <path d="M0 367.45312C 129.2461 380.3164 352.35938 396.17578 512.5781 373.35938C 711.5664 345.01953 763.7383 339.2461 810 357.10547L810 357.10547L810 541.01953C 795.625 544.52734 779.39844 547.125 761.09375 548.3594C 641.8242 556.4414 495.7461 553.83594 419.41016 570.22266C 343.0664 586.60156 325.01953 529.4375 233.85547 533.6875C 142.6914 537.96484 69.53516 530.84766 4.808594 513.08594C 3.238281 512.65234 1.632812 512.1836 0 511.67578L0 511.67578L0 367.45312zM810 178.05469C 792.04297 181.35156 771.1289 182.97266 746.8906 181.8086C 627.4844 176.10156 482.66797 156.6836 404.96484 164.16016C 327.2578 171.63672 315.875 112.78125 224.82031 106.515625C 133.9414 100.26172 62.195312 84.82422 0 59.796875L0 59.796875L0 0L810 0L810 178.05469" stroke="none" fill="#38339A" fill-rule="nonzero" />
    <path d="M49.078125 533.6875L155.07422 533.6875L155.07422 810L49.078125 810L49.078125 533.6875zM249.36719 698.21875L355.36328 698.21875L355.36328 810L249.36719 810zM450.26172 246.22656L450.26172 810L708.5664 810L708.5664 246.22656L663.8828 218.3086L663.8828 148.5L579.41797 112.1875L494.9414 148.5L494.9414 218.3086L450.26172 246.22656" stroke="none" fill="#14162D" fill-rule="nonzero" />
    <path d="M206.38281 138.72266C 246.73438 140.82422 278.85938 174.25781 278.85938 215.1211C 278.85938 257.35156 244.57031 291.625 202.36328 291.625C 183.71484 291.625 166.6211 284.94922 153.34766 273.85156C 154.67969 273.91406 156.01562 273.94922 157.375 273.94922C 199.59375 273.94922 233.86719 239.67969 233.86719 197.45703C 233.86719 173.875 223.17578 152.76562 206.38281 138.72266" stroke="none" fill="#FFD891" fill-rule="nonzero" />
    <path d="M522.8594 373L477.3789 373L477.3789 427.14844L522.8594 427.14844L522.8594 373" stroke="none" fill="#954259" fill-rule="nonzero" />
    <path d="M522.8594 453.6836L477.3789 453.6836L477.3789 507.83203L522.8594 507.83203L522.8594 453.6836" stroke="none" fill="#954259" fill-rule="nonzero" />
    <path d="M602.16016 717.8828L556.6758 717.8828L556.6758 772.03125L602.16016 772.03125L602.16016 717.8828zM602.16016 554.9336L556.6758 554.9336L556.6758 609.08203L602.16016 609.08203zM681.46094 526.45703L477.3789 526.45703L477.3789 537.8906L681.46094 537.8906zM602.16016 373L556.6758 373L556.6758 427.14844L602.16016 427.14844zM602.16016 290.73438L556.6758 290.73438L556.6758 344.8828L602.16016 344.8828zM681.46094 262.2578L477.3789 262.2578L477.3789 273.6914L681.46094 273.6914L681.46094 262.2578" stroke="none" fill="#0C0D1C" fill-rule="nonzero" />
    <path d="M515.83984 329.0625L515.83984 358.86328L355.36328 358.86328L355.36328 329.0625L515.83984 329.0625" stroke="none" fill="#282A45" fill-rule="nonzero" />
    <path d="M545.89844 810L545.89844 358.86328L325.3047 358.86328L325.3047 810L545.89844 810" stroke="none" fill="#303256" fill-rule="nonzero" />
    <path d="M416.89062 700.83984L416.89062 667.3594L344.28906 667.3594L344.28906 700.83984L416.89062 700.83984zM522.8594 643.8867L522.8594 610.40625L450.26172 610.40625L450.26172 643.8867zM416.89062 586.9336L416.89062 553.4531L344.28906 553.4531L344.28906 586.9336zM522.8594 529.98047L522.8594 496.5L450.26172 496.5L450.26172 529.98047zM416.89062 412.91016L416.89062 379.4297L344.28906 379.4297L344.28906 412.91016L416.89062 412.91016" stroke="none" fill="#17162E" fill-rule="nonzero" />
    <path d="M629.6836 489.16797L760.91797 489.16797L760.91797 810L629.6836 810L629.6836 489.16797" stroke="none" fill="#515266" fill-rule="nonzero" />
    <path d="M646.85156 501.5039L656.7422 501.5039L656.7422 810L646.85156 810L646.85156 501.5039" stroke="none" fill="#212226" fill-rule="nonzero" />
    <path d="M733.8633 501.5039L743.7539 501.5039L743.7539 810L733.8633 810L733.8633 501.5039" stroke="none" fill="#212226" fill-rule="nonzero" />
    <path d="M690.3594 501.5039L700.2461 501.5039L700.2461 810L690.3594 810L690.3594 501.5039" stroke="none" fill="#212226" fill-rule="nonzero" />
    <path d="M155.07422 452.46094L286.3125 452.46094L286.3125 810L155.07422 810L155.07422 452.46094" stroke="none" fill="#4D525E" fill-rule="nonzero" />
    <path d="M416.89062 810L416.89062 781.2656L344.28906 781.2656L344.28906 810L416.89062 810zM522.8594 810L522.8594 781.2656L450.26172 781.2656L450.26172 810zM416.89062 757.79297L416.89062 724.3125L344.28906 724.3125L344.28906 757.79297zM522.8594 757.79297L522.8594 724.3125L450.26172 724.3125L450.26172 757.79297zM245.25 714.28906L273.65625 714.28906L273.65625 752.2578L245.25 752.2578zM522.8594 700.83984L522.8594 667.3594L450.26172 667.3594L450.26172 700.83984zM602.16016 637.1992L556.6758 637.1992L556.6758 691.34766L602.16016 691.34766zM206.49219 636.76953L234.89453 636.76953L234.89453 674.7383L206.49219 674.7383zM416.89062 643.8867L416.89062 610.40625L344.28906 610.40625L344.28906 643.8867zM245.25 587.72656L273.65625 587.72656L273.65625 625.6953L245.25 625.6953zM522.8594 586.9336L522.8594 553.4531L450.26172 553.4531L450.26172 586.9336zM167.73047 539.47266L196.13672 539.47266L196.13672 577.4414L167.73047 577.4414zM206.49219 539.47266L234.89453 539.47266L234.89453 577.4414L206.49219 577.4414zM416.89062 529.98047L416.89062 496.5L344.28906 496.5L344.28906 529.98047zM245.25 490.4297L273.65625 490.4297L273.65625 528.39844L245.25 528.39844zM206.49219 490.4297L234.89453 490.4297L234.89453 528.39844L206.49219 528.39844zM602.16016 453.6836L556.6758 453.6836L556.6758 507.83203L602.16016 507.83203zM681.46094 453.6836L635.96484 453.6836L635.96484 489.16797L681.46094 489.16797zM167.73047 468.28125L273.65625 468.28125L273.65625 476.1914L167.73047 476.1914zM416.89062 469.86328L416.89062 436.3828L344.28906 436.3828L344.28906 469.86328zM522.8594 469.86328L522.8594 436.3828L450.26172 436.3828L450.26172 469.86328zM681.46094 373L635.96484 373L635.96484 427.14844L681.46094 427.14844zM522.8594 412.91016L522.8594 379.4297L450.26172 379.4297L450.26172 412.91016zM681.46094 290.73438L635.96484 290.73438L635.96484 344.8828L681.46094 344.8828zM477.3789 329.0625L515.83984 329.0625L515.83984 344.8828L522.8594 344.8828L522.8594 290.73438L477.3789 290.73438L477.3789 329.0625" stroke="none" fill="#FEE7BD" fill-rule="nonzero" />
    <path d="M167.73047 714.28906L196.13672 714.28906L196.13672 752.2578L167.73047 752.2578L167.73047 714.28906zM206.49219 714.28906L234.89453 714.28906L234.89453 752.2578L206.49219 752.2578zM167.73047 689.7656L273.65625 689.7656L273.65625 697.6758L167.73047 697.6758zM167.73047 636.76953L196.13672 636.76953L196.13672 674.7383L167.73047 674.7383zM245.25 636.76953L273.65625 636.76953L273.65625 674.7383L245.25 674.7383zM167.73047 587.72656L196.13672 587.72656L196.13672 625.6953L167.73047 625.6953zM206.49219 587.72656L234.89453 587.72656L234.89453 625.6953L206.49219 625.6953zM245.25 539.47266L273.65625 539.47266L273.65625 577.4414L245.25 577.4414zM167.73047 490.4297L196.13672 490.4297L196.13672 528.39844L167.73047 528.39844L167.73047 490.4297" stroke="none" fill="#273045" fill-rule="nonzero" />
    <path d="M174.0586 460.3711L200.125 460.3711L200.125 431.89453L174.0586 431.89453L174.0586 460.3711" stroke="none" fill="#4D525E" fill-rule="nonzero" />
</g>
</svg>