<svg xmlns="http://www.w3.org/2000/svg" xmlns:xlink="http://www.w3.org/1999/xlink" width="1080" zoomAndPan="magnify" viewBox="0 0 810 809.999993" height="1080" preserveAspectRatio="xMidYMid meet" version="1.0"><rect x="-81" width="972" fill="#302b87" y="-80.999999" height="971.999992" fill-opacity="1"/><path fill="#38339a" d="M 0 367.453125 C 129.246094 380.316406 352.359375 396.175781 512.578125 373.359375 C 711.566406 345.019531 763.738281 339.246094 810 357.105469 L 810 541.019531 C 795.625 544.527344 779.398438 547.125 761.09375 548.359375 C 641.824219 556.441406 495.746094 553.835938 419.410156 570.222656 C 343.066406 586.601562 325.019531 529.4375 233.855469 533.6875 C 142.691406 537.964844 69.535156 530.847656 4.808594 513.085938 C 3.238281 512.652344 1.632812 512.183594 0 511.675781 Z M 810 178.054688 C 792.042969 181.351562 771.128906 182.972656 746.890625 181.808594 C 627.484375 176.101562 482.667969 156.683594 404.964844 164.160156 C 327.257812 171.636719 315.875 112.78125 224.820312 106.515625 C 133.941406 100.261719 62.195312 84.824219 0 59.796875 L 0 0 L 810 0 L 810 178.054688 " fill-opacity="1" fill-rule="evenodd"/><path fill="#14162d" d="M 49.078125 533.6875 L 155.074219 533.6875 L 155.074219 810 L 49.078125 810 Z M 249.367188 698.21875 L 355.363281 698.21875 L 355.363281 810 L 249.367188 810 Z M 450.261719 246.226562 L 450.261719 810 L 708.566406 810 L 708.566406 246.226562 L 663.882812 218.308594 L 663.882812 148.5 L 579.417969 112.1875 L 494.941406 148.5 L 494.941406 218.308594 L 450.261719 246.226562 " fill-opacity="1" fill-rule="evenodd"/><path fill="#ffd891" d="M 206.382812 138.722656 C 246.734375 140.824219 278.859375 174.257812 278.859375 215.121094 C 278.859375 257.351562 244.570312 291.625 202.363281 291.625 C 183.714844 291.625 166.621094 284.949219 153.347656 273.851562 C 154.679688 273.914062 156.015625 273.949219 157.375 273.949219 C 199.59375 273.949219 233.867188 239.679688 233.867188 197.457031 C 233.867188 173.875 223.175781 152.765625 206.382812 138.722656 " fill-opacity="1" fill-rule="evenodd"/><path fill="#954259" d="M 522.859375 373 L 477.378906 373 L 477.378906 427.148438 L 522.859375 427.148438 L 522.859375 373 " fill-opacity="1" fill-rule="evenodd"/><path fill="#954259" d="M 522.859375 453.683594 L 477.378906 453.683594 L 477.378906 507.832031 L 522.859375 507.832031 L 522.859375 453.683594 " fill-opacity="1" fill-rule="evenodd"/><path fill="#0c0d1c" d="M 602.160156 717.882812 L 556.675781 717.882812 L 556.675781 772.03125 L 602.160156 772.03125 Z M 602.160156 554.933594 L 556.675781 554.933594 L 556.675781 609.082031 L 602.160156 609.082031 Z M 681.460938 526.457031 L 477.378906 526.457031 L 477.378906 537.890625 L 681.460938 537.890625 Z M 602.160156 373 L 556.675781 373 L 556.675781 427.148438 L 602.160156 427.148438 Z M 602.160156 290.734375 L 556.675781 290.734375 L 556.675781 344.882812 L 602.160156 344.882812 Z M 681.460938 262.257812 L 477.378906 262.257812 L 477.378906 273.691406 L 681.460938 273.691406 L 681.460938 262.257812 " fill-opacity="1" fill-rule="evenodd"/><path fill="#282a45" d="M 515.839844 329.0625 L 515.839844 358.863281 L 355.363281 358.863281 L 355.363281 329.0625 L 515.839844 329.0625 " fill-opacity="1" fill-rule="evenodd"/><path fill="#303256" d="M 545.898438 810 L 545.898438 358.863281 L 325.304688 358.863281 L 325.304688 810 L 545.898438 810 " fill-opacity="1" fill-rule="evenodd"/><path fill="#17162e" d="M 416.890625 700.839844 L 416.890625 667.359375 L 344.289062 667.359375 L 344.289062 700.839844 Z M 522.859375 643.886719 L 522.859375 610.40625 L 450.261719 610.40625 L 450.261719 643.886719 Z M 416.890625 586.933594 L 416.890625 553.453125 L 344.289062 553.453125 L 344.289062 586.933594 Z M 522.859375 529.980469 L 522.859375 496.5 L 450.261719 496.5 L 450.261719 529.980469 Z M 416.890625 412.910156 L 416.890625 379.429688 L 344.289062 379.429688 L 344.289062 412.910156 L 416.890625 412.910156 " fill-opacity="1" fill-rule="evenodd"/><path fill="#515266" d="M 629.683594 489.167969 L 760.917969 489.167969 L 760.917969 810 L 629.683594 810 L 629.683594 489.167969 " fill-opacity="1" fill-rule="evenodd"/><path fill="#212226" d="M 646.851562 501.503906 L 656.742188 501.503906 L 656.742188 810 L 646.851562 810 L 646.851562 501.503906 " fill-opacity="1" fill-rule="evenodd"/><path fill="#212226" d="M 733.863281 501.503906 L 743.753906 501.503906 L 743.753906 810 L 733.863281 810 L 733.863281 501.503906 " fill-opacity="1" fill-rule="evenodd"/><path fill="#212226" d="M 690.359375 501.503906 L 700.246094 501.503906 L 700.246094 810 L 690.359375 810 L 690.359375 501.503906 " fill-opacity="1" fill-rule="evenodd"/><path fill="#4d525e" d="M 155.074219 452.460938 L 286.3125 452.460938 L 286.3125 810 L 155.074219 810 L 155.074219 452.460938 " fill-opacity="1" fill-rule="evenodd"/><path fill="#fee7bd" d="M 416.890625 810 L 416.890625 781.265625 L 344.289062 781.265625 L 344.289062 810 Z M 522.859375 810 L 522.859375 781.265625 L 450.261719 781.265625 L 450.261719 810 Z M 416.890625 757.792969 L 416.890625 724.3125 L 344.289062 724.3125 L 344.289062 757.792969 Z M 522.859375 757.792969 L 522.859375 724.3125 L 450.261719 724.3125 L 450.261719 757.792969 Z M 245.25 714.289062 L 273.65625 714.289062 L 273.65625 752.257812 L 245.25 752.257812 Z M 522.859375 700.839844 L 522.859375 667.359375 L 450.261719 667.359375 L 450.261719 700.839844 Z M 602.160156 637.199219 L 556.675781 637.199219 L 556.675781 691.347656 L 602.160156 691.347656 Z M 206.492188 636.769531 L 234.894531 636.769531 L 234.894531 674.738281 L 206.492188 674.738281 Z M 416.890625 643.886719 L 416.890625 610.40625 L 344.289062 610.40625 L 344.289062 643.886719 Z M 245.25 587.726562 L 273.65625 587.726562 L 273.65625 625.695312 L 245.25 625.695312 Z M 522.859375 586.933594 L 522.859375 553.453125 L 450.261719 553.453125 L 450.261719 586.933594 Z M 167.730469 539.472656 L 196.136719 539.472656 L 196.136719 577.441406 L 167.730469 577.441406 Z M 206.492188 539.472656 L 234.894531 539.472656 L 234.894531 577.441406 L 206.492188 577.441406 Z M 416.890625 529.980469 L 416.890625 496.5 L 344.289062 496.5 L 344.289062 529.980469 Z M 245.25 490.429688 L 273.65625 490.429688 L 273.65625 528.398438 L 245.25 528.398438 Z M 206.492188 490.429688 L 234.894531 490.429688 L 234.894531 528.398438 L 206.492188 528.398438 Z M 602.160156 453.683594 L 556.675781 453.683594 L 556.675781 507.832031 L 602.160156 507.832031 Z M 681.460938 453.683594 L 635.964844 453.683594 L 635.964844 489.167969 L 681.460938 489.167969 Z M 167.730469 468.28125 L 273.65625 468.28125 L 273.65625 476.191406 L 167.730469 476.191406 Z M 416.890625 469.863281 L 416.890625 436.382812 L 344.289062 436.382812 L 344.289062 469.863281 Z M 522.859375 469.863281 L 522.859375 436.382812 L 450.261719 436.382812 L 450.261719 469.863281 Z M 681.460938 373 L 635.964844 373 L 635.964844 427.148438 L 681.460938 427.148438 Z M 522.859375 412.910156 L 522.859375 379.429688 L 450.261719 379.429688 L 450.261719 412.910156 Z M 681.460938 290.734375 L 635.964844 290.734375 L 635.964844 344.882812 L 681.460938 344.882812 Z M 477.378906 329.0625 L 515.839844 329.0625 L 515.839844 344.882812 L 522.859375 344.882812 L 522.859375 290.734375 L 477.378906 290.734375 L 477.378906 329.0625 " fill-opacity="1" fill-rule="evenodd"/><path fill="#273045" d="M 167.730469 714.289062 L 196.136719 714.289062 L 196.136719 752.257812 L 167.730469 752.257812 Z M 206.492188 714.289062 L 234.894531 714.289062 L 234.894531 752.257812 L 206.492188 752.257812 Z M 167.730469 689.765625 L 273.65625 689.765625 L 273.65625 697.675781 L 167.730469 697.675781 Z M 167.730469 636.769531 L 196.136719 636.769531 L 196.136719 674.738281 L 167.730469 674.738281 Z M 245.25 636.769531 L 273.65625 636.769531 L 273.65625 674.738281 L 245.25 674.738281 Z M 167.730469 587.726562 L 196.136719 587.726562 L 196.136719 625.695312 L 167.730469 625.695312 Z M 206.492188 587.726562 L 234.894531 587.726562 L 234.894531 625.695312 L 206.492188 625.695312 Z M 245.25 539.472656 L 273.65625 539.472656 L 273.65625 577.441406 L 245.25 577.441406 Z M 167.730469 490.429688 L 196.136719 490.429688 L 196.136719 528.398438 L 167.730469 528.398438 L 167.730469 490.429688 " fill-opacity="1" fill-rule="evenodd"/><path fill="#4d525e" d="M 174.058594 460.371094 L 200.125 460.371094 L 200.125 431.894531 L 174.058594 431.894531 L 174.058594 460.371094 " fill-opacity="1" fill-rule="evenodd"/></svg>