<?xml version="1.0" standalone="no"?>
<!DOCTYPE svg PUBLIC "-//W3C//DTD SVG 1.0//EN" "http://www.w3.org/TR/2001/REC-SVG-20010904/DTD/svg10.dtd">
<svg xmlns="http://www.w3.org/2000/svg" xmlns:xlink="http://www.w3.org/1999/xlink" id="body_1" width="1080" height="1080">

<defs>
        <clipPath  id="1">

            <path clip-rule="evenodd" d="M0 578L810 578L810 729.0742L0 729.0742L0 578z" />        </clipPath>
                <clipPath  id="2">

                    <path clip-rule="evenodd" d="M0 0L184 0L184 218L0 218z" />                </clipPath>
</defs>

<g transform="matrix(1.3333334 0 0 1.3333334 0 0)">
	<g clip-path="url(#1)" >
        <path d="M172.11328 580.83594L766.08203 578.2461L809.39453 729.34766L0.308594 728.625L172.11328 580.83594" stroke="none" fill="#CB7350" fill-rule="nonzero" fill-opacity="0.99607843" />
	</g>
    <path d="M744.0586 605.77344L290.6953 604.0625C 275.91406 602.6328 257.80078 601.8242 236.35938 601.6367C 225.13281 601.77734 216.51562 602.5469 210.50781 603.9492C 200.3125 606.3281 192.75781 608.9883 187.83984 611.9297L187.83984 611.9297L164.6914 627.46484L157.57422 631.0703C 153.44531 633.0586 146.57031 634.59766 136.95312 635.6797C 142.60547 639.3711 145.88281 644.375 146.79297 650.6836L146.79297 650.6836L145.19531 658.33984C 138.46875 670.03125 134.54297 678.4453 133.42188 683.58203C 132.0625 689 133.85156 693.4375 138.78516 696.8906C 140.42188 698.39453 143.375 699.7422 147.64844 700.9414L147.64844 700.9414L155.05078 702.6211C 160.64453 703.66797 167.5586 704.5586 175.79297 705.3008C 192.26172 706.78125 214.00781 707.65234 241.03516 707.91406L241.03516 707.91406L771.7461 704.3203L744.0586 605.77344" stroke="none" fill="#070906" fill-rule="nonzero" fill-opacity="0.14117648" />
    <path d="M682.33203 684.2383L724.02344 682.15625C 733.2383 680.47656 739.6875 678.47656 743.375 676.15625C 744.8828 675.2617 746.22266 674.20703 747.39453 672.9883L747.39453 672.9883L748.9961 671.0078C 749.96875 669.59766 750.71094 667.96484 751.22266 666.1094L751.22266 666.1094L751.79297 663.15234C 752.52734 656.3828 751.125 649.6211 747.59375 642.8711C 746.4219 640.78125 745.03125 638.9414 743.41797 637.34375L743.41797 637.34375L740.83594 635.21875L737.9258 633.64844C 735.66016 632.7969 733.6289 632.41016 731.83594 632.4844L731.83594 632.4844L728.3281 632.77344L724.59375 633.60547L720.64453 634.9297C 717.9414 635.98047 715.1289 637.29297 712.1992 638.8672C 704.9375 642.6758 693.90234 650.03906 679.09766 660.9531L679.09766 660.9531L682.33203 684.2383" stroke="none" fill="#FEE0C7" fill-rule="nonzero" fill-opacity="0.99607843" />
    <path d="M696.8594 694.96484L692.2383 695.33203C 663.3672 697.66797 632.8711 699.14453 600.7539 699.77344C 578.01953 700.27344 557.3789 699.8047 538.83203 698.3672C 524.3594 697.25 511.76562 695.16406 501.04688 692.10547C 495.8789 690.5508 491.32812 688.73047 487.39062 686.64453C 484.77734 685.8789 480.04297 682.2383 473.1797 675.72656C 464.3672 664.35547 460.03906 651.0742 460.19922 635.875C 459.9375 618.90234 463.82812 606.2969 471.8672 598.0586C 474.70703 594.7656 478.25 591.66016 482.4922 588.7344C 484.65625 586.59766 491.8086 583.1211 503.95312 578.3047C 522.27734 572.1719 543.54297 568.1836 567.7461 566.33203C 596.22266 564.5039 618.6797 565.3125 635.1133 568.75C 644.53516 570.83594 651.08984 572.8242 654.78516 574.71484L654.78516 574.71484L661.4414 578.09375C 665.53516 580.5039 669.08203 583.16406 672.0742 586.0742C 679.83594 593.22266 686.46875 605.16797 691.97266 621.90234L691.97266 621.90234L696.8594 694.96484" stroke="none" fill="#697258" fill-rule="nonzero" fill-opacity="0.99607843" />
    <path d="M530.9453 686.1328L537.5547 685.79297C 550.45703 685.2031 566.9844 684.20703 587.1406 682.8047C 597.875 682.0039 606.6211 681.1953 613.3789 680.3828C 621.9375 679.46094 630.1797 678.33203 638.10156 676.9961C 642.0625 676.33203 645.9453 675.6094 649.7461 674.83984C 659.1133 672.8242 664.6367 671.5508 666.3203 671.02344C 682.7969 666.4336 696.7461 661.3789 708.1719 655.85547C 713.8867 653.09375 718.96875 650.21875 723.41797 647.22266L723.41797 647.22266L729.6211 642.64453C 733.4414 639.53516 736.6289 636.3086 739.1875 632.96875L739.1875 632.96875L530.9453 686.1328" stroke="none" fill="#070906" fill-rule="nonzero" fill-opacity="0.12941177" />
    <path d="M497.71875 423.7422L494.23438 421.54297C 475.5039 409.90234 463.3672 399.90625 457.8164 391.5547C 448.83594 378.8125 444.2539 365.51172 444.07812 351.66016C 444.03906 347.21094 444.4453 343.17188 445.29297 339.54297C 445.71094 337.75 446.22656 336.1328 446.83984 334.6914L446.83984 334.6914L447.82812 332.6953C 448.53125 331.46484 449.3203 330.48047 450.1914 329.7422L450.1914 329.7422L451.55078 328.85547C 452.65234 328.09766 454.4375 328.20312 456.91406 329.1797C 459.6953 330.14453 463.97266 334.32812 469.73828 341.7422C 473.35547 346.3828 479.72266 356.29688 488.84375 371.4922L488.84375 371.4922L490.26953 373.35156L490.67578 373.60156L490.875 373.29297C 490.91016 372.91016 490.83984 372.26172 490.66406 371.34375C 488.82812 363.14062 487.89844 358.41406 487.8789 357.16406C 487.6797 356.02344 487.6289 354.34375 487.72266 352.13672C 488.64062 347 490.71875 345.5 493.96094 347.63672C 495.60938 348.9375 496.9375 350.46484 497.9453 352.23047C 499.67578 355.1172 501.39453 358.8164 503.10156 363.33203C 504.8125 367.84766 506.42578 372.54688 507.94922 377.42188L507.94922 377.42188L518.46094 411.5586L497.71875 423.7422" stroke="none" fill="#FEE0C7" fill-rule="nonzero" fill-opacity="0.99607843" />
    <path d="M497.71875 423.7422L494.23438 421.54297C 476.1211 410.23047 464.27344 400.65234 458.6875 392.8047C 454.53125 387.17188 451.1172 380.98438 448.44922 374.23438C 445.5703 366.54688 444.11328 359.02344 444.07812 351.66016C 444.05078 348.07422 444.29688 344.8086 444.8164 341.85938C 444.85938 341.02344 445.40625 338.98828 446.45703 335.76172C 446.92188 334.52734 447.46094 333.3711 448.0664 332.29688C 450.27344 328.5625 453.10938 327.4453 456.5703 328.9375C 459.28125 329.55078 464.10547 334.39844 471.04688 343.48438C 476.14844 350.77734 482.08203 360.11328 488.84375 371.4922L488.84375 371.4922L490.26953 373.35156L490.67578 373.60156C 490.9336 373.79688 490.9453 373.14062 490.71875 371.63672C 488.83984 363.08984 487.90625 358.48047 487.92578 357.8047C 487.625 355.20312 487.58594 353.08203 487.8086 351.4453C 488.10156 349.64062 488.9414 348.14062 490.32812 346.9453C 491.04297 346.41406 492.2539 346.64453 493.96094 347.63672C 496.71484 349.27734 499.89062 354.76172 503.48828 364.09375C 504.95312 367.65234 509.9453 383.47266 518.46094 411.5586L518.46094 411.5586L497.71875 423.7422" stroke="none" fill="#070906" fill-rule="nonzero" fill-opacity="0.019607844" />
    <path d="M583.71875 448.66797L522.9219 396.20312L474.83594 422.01953C 502.97266 463.0586 524.98047 491.2578 540.8594 506.6211C 555.97656 522.25 570.8633 528.3906 585.52344 525.0469C 589.5742 524.47266 595.4531 521.53516 603.16406 516.2344C 606.3867 514.4297 615.20703 506.07812 629.625 491.1836L629.625 491.1836L647.7969 471.23047C 656.79297 458.21484 665.3164 445.47266 673.3594 433C 685.72656 414.125 694.34766 397.38672 699.22266 382.79297C 700.72266 379.3086 701.5039 373.6211 701.5742 365.73047C 701.78125 361.53125 699.58203 356.5664 694.97656 350.83594C 682.0039 340.3203 666.27344 342.09375 647.77734 356.16016C 629.9531 371.54297 608.60156 402.3789 583.71875 448.66797" stroke="none" fill="#9DAB87" fill-rule="nonzero" fill-opacity="0.99607843" />
    <path d="M583.71875 448.66797L522.9219 396.20312L474.83594 422.01953C 498.1328 455.29688 513.16406 475.7422 519.9336 483.35547C 530.08594 495.83203 538.7383 505.20703 545.8867 511.47656C 551.6289 516.8594 557.52344 520.72656 563.5664 523.0742C 571.1875 525.34766 575.8086 526.2539 577.4219 525.7969C 580.5586 525.83203 583.73047 525.4922 586.9414 524.7656C 591.28906 523.7461 597.6914 520.1758 606.14453 514.0625C 619.66016 501.89453 633.54297 487.6172 647.7969 471.23047C 658.48047 455.82812 669.39453 439.33984 680.54297 421.76172C 688.8633 408.25 695.5117 393.85547 700.4844 378.57422C 701.5 372.11328 701.79297 366.86328 701.35547 362.8164C 699.5664 357.2578 697.4414 353.26172 694.97656 350.83203C 681.6172 340.36328 665.8828 342.14062 647.77734 356.16016C 641.7617 360.83594 633.14453 370.72656 621.9219 385.82812C 612.1875 398.6328 599.4531 419.57812 583.71875 448.66797" stroke="none" fill="#070906" fill-rule="nonzero" fill-opacity="0.12941177" />
    <path d="M722.52734 295.59766L624.0078 325.16016C 605.875 389.375 595.08203 425.95703 591.6289 434.90234L591.6289 434.90234L567.2344 492.8828L556.41016 515.03516C 548.3164 530.48047 538.46875 543.47266 526.8672 554.01953C 526.2578 555.9219 511.32812 566.73047 482.08203 586.4414C 474.72266 592.4453 470.72266 596.1406 470.08594 597.53125C 461.78516 606.34375 458.1172 618.76953 459.07422 634.8164C 459.67188 646.03125 469.14844 649.66016 487.5078 645.6953C 504.6875 643.28125 556.08984 630.09375 641.71484 606.1328C 609.84766 621.91016 587.8867 634.3047 575.83203 643.3086C 563.08594 652.1172 547.83984 666.4453 530.09375 686.28906C 610.5156 679.4219 660.1133 672.26953 678.8906 664.8281C 703.6133 656.33203 717.3711 650.54297 720.16797 647.46484C 727.96484 642.72266 734.6836 637.29297 740.3164 631.1719C 756.4922 612.08203 765.72266 589.6875 768.0039 563.97656C 771.76953 538.9453 769.66406 497.59766 761.6875 439.9375C 757.54297 408.42578 744.4883 360.3125 722.52734 295.59766" stroke="none" fill="#9DAB87" fill-rule="nonzero" fill-opacity="0.99607843" />
    <path d="M683.5625 275.59375L682.8672 276.5039C 705.2461 271.28906 720.89844 264.84766 729.8164 257.1836C 733.4883 254.39062 737.53125 250.39062 741.9375 245.1836C 749.3672 236.0586 756.29297 226.34766 762.70703 216.05469C 759.96094 200.97656 757.1797 190.82422 754.3711 185.60156C 749.875 176.92188 744.64453 170.60547 738.6719 166.65234C 731.26953 161.32812 722.7461 158.34766 713.10156 157.70312C 705.4961 157.76562 699.8633 160.26172 696.2031 165.19531C 693.5703 168.60156 691.5781 172.5586 690.21875 177.0625C 689.75 177.92188 688.7461 182.08594 687.2031 189.55469C 686.6367 192.72656 686.1328 196.16016 685.6953 199.85938C 684.5039 212.0039 683.71875 222.28125 683.34375 230.69922L683.34375 230.69922L683.5625 275.59375" stroke="none" fill="#070906" fill-rule="nonzero" fill-opacity="0.99607843" />
    <path d="M592.15234 297.35938L587.3867 293.44922C 573.02734 281.72266 563.22266 272.60547 557.97656 266.10156C 552.98047 259.59766 550.34766 255.69922 550.0781 254.40234C 548.78516 251.80469 547.8594 249.20703 547.2969 246.60938C 546.6875 245.32031 546.46875 241.41406 546.64844 234.88672C 546.35156 233.77734 548.14844 224.34766 552.03516 206.59766C 552.46484 205.25 552.76953 200.96094 552.9531 193.73828C 553.2656 185.08984 550.6836 169.9336 545.20703 148.26562C 547.6172 140.55078 551.01953 133.76172 555.41406 127.89844C 559.7539 123.640625 562.6953 121.40234 564.2422 121.18359C 566.6328 120.09375 569.3906 119.34375 572.5156 118.9375C 577.64453 118 585.6953 118.85156 596.66406 121.49219C 611.10547 124.28125 644.84375 137.9375 697.875 162.46484L697.875 162.46484L700.14844 201.36328L701.8867 212.1211C 711.8242 205.08203 717.3281 205.5586 718.40234 213.54688C 720.08594 226.76953 718.45703 238.42578 713.52344 248.51172C 711.0508 253.07031 705.3086 253.33594 696.2969 249.3086C 695.4922 258.84766 692.46484 266.8086 687.20703 273.1914C 679.3789 281.14844 670.5742 286.92578 660.79297 290.53125C 646.4844 297.34375 623.60156 299.6211 592.15234 297.35938" stroke="none" fill="#FEE0C7" fill-rule="nonzero" fill-opacity="0.99607843" />
    <path d="M678.9844 170.0039L678.9844 170.01172C 683.14453 180.28516 685.4258 186.10938 685.8281 187.47656C 687.08203 190.92578 688.15234 194.09375 689.0469 196.97266C 690.8125 202.55078 691.91016 207.33984 692.34375 211.33984C 692.9258 216.01172 692.9336 220.66016 692.3672 225.28906C 691.8867 229.57422 690.6992 235.05078 688.8047 241.71875C 692.09766 232.84766 694.8789 225.84766 697.1406 220.71875C 698.25 218.42969 699.09766 216.76562 699.6914 215.73047L699.6914 215.73047L703.7617 209.8164C 704.3047 208.63281 704.6328 207.84766 704.7461 207.46484C 705.2539 205.9961 705.66406 203.30469 705.97656 199.39844C 706.4844 191.58984 706.7656 184.61328 706.8164 178.47656L706.8164 178.47656L678.9844 170.0039" stroke="none" fill="#070906" fill-rule="nonzero" fill-opacity="0.99607843" />
    <path d="M545.5156 150.89062L554.28125 151.63672C 592.1758 154.29688 624.75 159.71875 652.0039 167.90234C 676.16016 174.72266 713.3906 191.1836 763.7031 217.28516C 768.97266 197 772.0664 177.46484 772.97656 158.6875C 772.2461 143.55078 771.0664 134.72266 769.4375 132.20703C 767.70703 126.64844 765.1719 121.37109 761.8281 116.36719C 751.26953 101.984375 735.47266 90.76953 714.4414 82.72656C 693.25 74.46875 671.7031 69.64453 649.8047 68.25391C 634.83203 67.3125 621.41797 68.38281 609.5508 71.46484C 603.7539 72.97656 598.4414 74.85547 593.6133 77.09375L593.6133 77.09375L586.7031 80.640625C 582.3281 83.15625 578.3789 85.86328 574.85156 88.76172C 552.6758 108.5 542.89453 129.21094 545.5156 150.89062" stroke="none" fill="#9DAB87" fill-rule="nonzero" fill-opacity="0.99607843" />
    <path d="M495.1211 441.3203L491.08984 439.32422C 469.45312 428.8047 455.15234 419.32422 448.1914 410.8828C 437.0039 398.0664 430.53906 384.15234 428.78516 369.13672C 428.2422 364.3125 428.22656 359.8828 428.73828 355.84766C 429.58984 351.16797 430.25 348.59766 430.71875 348.1328C 431.34375 346.71875 432.08984 345.5586 432.94922 344.66016L432.94922 344.66016L434.32812 343.54688C 436.07812 342.47656 438.23438 342.46875 440.79297 343.52734C 443.88672 344.4453 448.8672 348.51172 455.7422 355.72266C 459.96875 360.10938 467.90234 370.0547 479.54688 385.55078L479.54688 385.55078L481.32422 387.4453L481.83594 387.6953L482.01172 387.33984L481.5625 385.2461C 478.64453 376.55078 477.10156 371.52734 476.9414 370.17578C 476.59766 368.97266 476.35156 367.14062 476.20703 364.6836C 476.3789 359.4336 478.35547 357.53125 482.1328 358.97656C 485.02734 359.85938 489.03516 365.25 494.16016 375.15234C 496.52344 379.86328 498.8047 384.77734 501.0039 389.89844L501.0039 389.89844L516.2617 425.76172L495.1211 441.3203" stroke="none" fill="#FEE0C7" fill-rule="nonzero" fill-opacity="0.99607843" />
	<g>
		<g transform="matrix(1 0 0 1 532 333)">
			<g clip-path="url(#2)" >
                <path d="M176.96875 16.824219L1.6875 174.01953C 7.175781 182.39844 14.636719 191.72656 24.066406 202.0039C 31.546875 209.54297 38.671875 214.03906 45.441406 215.49219C 51.648438 217.21094 58.398438 216.89844 65.69531 214.55469C 67.34766 214.60547 73.12891 211.70703 83.03516 205.85938C 87.09375 203.16797 91.28906 199.96484 95.62109 196.25781C 108.08594 185.27734 120.70703 170.17969 133.48438 150.97266C 143.0586 136.73047 153.60156 117.60156 165.11328 93.578125C 171.91016 79.25 176.75 65.22266 179.63281 51.5C 180.70703 47.277344 180.97656 40.648438 180.4375 31.621094C 179.89062 26.523438 178.73438 21.59375 176.96875 16.824219" stroke="none" fill="#070906" fill-rule="nonzero" fill-opacity="0.99607843" />
                <path d="M59.67578 128.79297L59.67578 128.80078C 59.95703 118.53906 64.88281 102.39844 74.453125 80.37891C 85.34766 55.484375 95.67578 36.914062 105.44141 24.667969C 111.27734 16.980469 118.35156 11.4375 126.671875 8.03125C 132.55078 5.394531 141.94922 4.636719 154.86328 5.757812L154.86328 5.757812L131.35547 33.76953L59.67578 128.79297" stroke="none" fill="#070906" fill-rule="nonzero" fill-opacity="0.99607843" />
			</g>
		</g>
	</g>
    <path d="M591.2656 458.6797L519.3711 408.59375L470.09375 442.02734C 508.95312 487.8203 538.23047 517.60547 557.9219 531.3867C 574.83203 543.73047 590.51953 546.6719 604.9883 540.20703C 610.8711 537.6875 618.1133 531.96484 626.71484 523.03125C 637.27734 510.98828 649.4922 495.29688 663.35156 475.9453C 678.625 447.9453 689.26953 427.29688 695.29297 413.98828C 703.7383 395.6836 708.7344 379.85547 710.28125 366.51172C 710.3711 358.46484 709.9219 353.4297 708.9297 351.40234C 706.46094 345.4336 703.3906 341.30078 699.71875 339.0078C 681.4219 330.04688 663.46484 335.58984 645.83984 355.64062C 632.7539 369.76562 614.5586 404.11328 591.2656 458.6797" stroke="none" fill="#9DAB87" fill-rule="nonzero" fill-opacity="0.99607843" />
    <path d="M624.53906 325.30078L663.83203 301.26562L718.2539 279.57812L724.0742 299.1914L624.53906 325.30078" stroke="none" fill="#697258" fill-rule="nonzero" fill-opacity="0.99607843" />
</g>
</svg>