<svg xmlns="http://www.w3.org/2000/svg" xmlns:xlink="http://www.w3.org/1999/xlink" width="1080" zoomAndPan="magnify" viewBox="0 0 810 809.999993" height="1080" preserveAspectRatio="xMidYMid meet" version="1.0"><defs><filter x="0%" y="0%" width="100%" height="100%" id="05073a377d"><feColorMatrix values="0 0 0 0 1 0 0 0 0 1 0 0 0 0 1 0 0 0 1 0" color-interpolation-filters="sRGB"/></filter><clipPath id="4969cc2fc6"><path d="M 0 578 L 810 578 L 810 729.074219 L 0 729.074219 Z M 0 578 " clip-rule="nonzero"/></clipPath><mask id="694ca86284"><g filter="url(#05073a377d)"><rect x="-81" width="972" fill="#000000" y="-80.999999" height="971.999992" fill-opacity="0.1333"/></g></mask><clipPath id="bf7990e9c2"><rect x="0" width="184" y="0" height="218"/></clipPath></defs><g clip-path="url(#4969cc2fc6)"><path fill="#cb7350" d="M 172.113281 580.835938 L 766.082031 578.246094 L 809.394531 729.347656 L 0.308594 728.625 L 172.113281 580.835938 " fill-opacity="0.9961" fill-rule="nonzero"/></g><path fill="#070906" d="M 744.058594 605.773438 L 290.695312 604.0625 C 275.914062 602.632812 257.800781 601.824219 236.359375 601.636719 C 225.132812 601.777344 216.515625 602.546875 210.507812 603.949219 C 200.3125 606.328125 192.757812 608.988281 187.839844 611.929688 L 164.691406 627.464844 L 157.574219 631.070312 C 153.445312 633.058594 146.570312 634.597656 136.953125 635.679688 C 142.605469 639.371094 145.882812 644.375 146.792969 650.683594 L 145.195312 658.339844 C 138.46875 670.03125 134.542969 678.445312 133.421875 683.582031 C 132.0625 689 133.851562 693.4375 138.785156 696.890625 C 140.421875 698.394531 143.375 699.742188 147.648438 700.941406 L 155.050781 702.621094 C 160.644531 703.667969 167.558594 704.558594 175.792969 705.300781 C 192.261719 706.78125 214.007812 707.652344 241.035156 707.914062 L 771.746094 704.320312 L 744.058594 605.773438 " fill-opacity="0.1445" fill-rule="nonzero"/><path fill="#fee0c7" d="M 682.332031 684.238281 L 724.023438 682.15625 C 733.238281 680.476562 739.6875 678.476562 743.375 676.15625 C 744.882812 675.261719 746.222656 674.207031 747.394531 672.988281 L 748.996094 671.007812 C 749.96875 669.597656 750.710938 667.964844 751.222656 666.109375 L 751.792969 663.152344 C 752.527344 656.382812 751.125 649.621094 747.59375 642.871094 C 746.421875 640.78125 745.03125 638.941406 743.417969 637.34375 L 740.835938 635.21875 L 737.925781 633.648438 C 735.660156 632.796875 733.628906 632.410156 731.835938 632.484375 L 728.328125 632.773438 L 724.59375 633.605469 L 720.644531 634.929688 C 717.941406 635.980469 715.128906 637.292969 712.199219 638.867188 C 704.9375 642.675781 693.902344 650.039062 679.097656 660.953125 L 682.332031 684.238281 " fill-opacity="0.9961" fill-rule="nonzero"/><path fill="#697258" d="M 696.859375 694.964844 L 692.238281 695.332031 C 663.367188 697.667969 632.871094 699.144531 600.753906 699.773438 C 578.019531 700.273438 557.378906 699.804688 538.832031 698.367188 C 524.359375 697.25 511.765625 695.164062 501.046875 692.105469 C 495.878906 690.550781 491.328125 688.730469 487.390625 686.644531 C 484.777344 685.878906 480.042969 682.238281 473.179688 675.726562 C 464.367188 664.355469 460.039062 651.074219 460.199219 635.875 C 459.9375 618.902344 463.828125 606.296875 471.867188 598.058594 C 474.707031 594.765625 478.25 591.660156 482.492188 588.734375 C 484.65625 586.597656 491.808594 583.121094 503.953125 578.304688 C 522.277344 572.171875 543.542969 568.183594 567.746094 566.332031 C 596.222656 564.503906 618.679688 565.3125 635.113281 568.75 C 644.535156 570.835938 651.089844 572.824219 654.785156 574.714844 L 661.441406 578.09375 C 665.535156 580.503906 669.082031 583.164062 672.074219 586.074219 C 679.835938 593.222656 686.46875 605.167969 691.972656 621.902344 L 696.859375 694.964844 " fill-opacity="0.9961" fill-rule="nonzero"/><path fill="#070906" d="M 530.945312 686.132812 L 537.554688 685.792969 C 550.457031 685.203125 566.984375 684.207031 587.140625 682.804688 C 597.875 682.003906 606.621094 681.195312 613.378906 680.382812 C 621.9375 679.460938 630.179688 678.332031 638.101562 676.996094 C 642.0625 676.332031 645.945312 675.609375 649.746094 674.839844 C 659.113281 672.824219 664.636719 671.550781 666.320312 671.023438 C 682.796875 666.433594 696.746094 661.378906 708.171875 655.855469 C 713.886719 653.09375 718.96875 650.21875 723.417969 647.222656 L 729.621094 642.644531 C 733.441406 639.535156 736.628906 636.308594 739.1875 632.96875 L 530.945312 686.132812 " fill-opacity="0.1328" fill-rule="nonzero"/><path fill="#fee0c7" d="M 497.71875 423.742188 L 494.234375 421.542969 C 475.503906 409.902344 463.367188 399.90625 457.816406 391.554688 C 448.835938 378.8125 444.253906 365.511719 444.078125 351.660156 C 444.039062 347.210938 444.445312 343.171875 445.292969 339.542969 C 445.710938 337.75 446.226562 336.132812 446.839844 334.691406 L 447.828125 332.695312 C 448.53125 331.464844 449.320312 330.480469 450.191406 329.742188 L 451.550781 328.855469 C 452.652344 328.097656 454.4375 328.203125 456.914062 329.179688 C 459.695312 330.144531 463.972656 334.328125 469.738281 341.742188 C 473.355469 346.382812 479.722656 356.296875 488.84375 371.492188 L 490.269531 373.351562 L 490.675781 373.601562 L 490.875 373.292969 C 490.910156 372.910156 490.839844 372.261719 490.664062 371.34375 C 488.828125 363.140625 487.898438 358.414062 487.878906 357.164062 C 487.679688 356.023438 487.628906 354.34375 487.722656 352.136719 C 488.640625 347 490.71875 345.5 493.960938 347.636719 C 495.609375 348.9375 496.9375 350.464844 497.945312 352.230469 C 499.675781 355.117188 501.394531 358.816406 503.101562 363.332031 C 504.8125 367.847656 506.425781 372.546875 507.949219 377.421875 L 518.460938 411.558594 L 497.71875 423.742188 " fill-opacity="0.9961" fill-rule="nonzero"/><path fill="#070906" d="M 497.71875 423.742188 L 494.234375 421.542969 C 476.121094 410.230469 464.273438 400.652344 458.6875 392.804688 C 454.53125 387.171875 451.117188 380.984375 448.449219 374.234375 C 445.570312 366.546875 444.113281 359.023438 444.078125 351.660156 C 444.050781 348.074219 444.296875 344.808594 444.816406 341.859375 C 444.859375 341.023438 445.40625 338.988281 446.457031 335.761719 C 446.921875 334.527344 447.460938 333.371094 448.066406 332.296875 C 450.273438 328.5625 453.109375 327.445312 456.570312 328.9375 C 459.28125 329.550781 464.105469 334.398438 471.046875 343.484375 C 476.148438 350.777344 482.082031 360.113281 488.84375 371.492188 L 490.269531 373.351562 L 490.675781 373.601562 C 490.933594 373.796875 490.945312 373.140625 490.71875 371.636719 C 488.839844 363.089844 487.90625 358.480469 487.925781 357.804688 C 487.625 355.203125 487.585938 353.082031 487.808594 351.445312 C 488.101562 349.640625 488.941406 348.140625 490.328125 346.945312 C 491.042969 346.414062 492.253906 346.644531 493.960938 347.636719 C 496.714844 349.277344 499.890625 354.761719 503.488281 364.09375 C 504.953125 367.652344 509.945312 383.472656 518.460938 411.558594 L 497.71875 423.742188 " fill-opacity="0.0199" fill-rule="nonzero"/><path fill="#9dab87" d="M 583.71875 448.667969 L 522.921875 396.203125 L 474.835938 422.019531 C 502.972656 463.058594 524.980469 491.257812 540.859375 506.621094 C 555.976562 522.25 570.863281 528.390625 585.523438 525.046875 C 589.574219 524.472656 595.453125 521.535156 603.164062 516.234375 C 606.386719 514.429688 615.207031 506.078125 629.625 491.183594 L 647.796875 471.230469 C 656.792969 458.214844 665.316406 445.472656 673.359375 433 C 685.726562 414.125 694.347656 397.386719 699.222656 382.792969 C 700.722656 379.308594 701.503906 373.621094 701.574219 365.730469 C 701.78125 361.53125 699.582031 356.566406 694.976562 350.835938 C 682.003906 340.320312 666.273438 342.09375 647.777344 356.160156 C 629.953125 371.542969 608.601562 402.378906 583.71875 448.667969 " fill-opacity="0.9961" fill-rule="nonzero"/><path fill="#070906" d="M 583.71875 448.667969 L 522.921875 396.203125 L 474.835938 422.019531 C 498.132812 455.296875 513.164062 475.742188 519.933594 483.355469 C 530.085938 495.832031 538.738281 505.207031 545.886719 511.476562 C 551.628906 516.859375 557.523438 520.726562 563.566406 523.074219 C 571.1875 525.347656 575.808594 526.253906 577.421875 525.796875 C 580.558594 525.832031 583.730469 525.492188 586.941406 524.765625 C 591.289062 523.746094 597.691406 520.175781 606.144531 514.0625 C 619.660156 501.894531 633.542969 487.617188 647.796875 471.230469 C 658.480469 455.828125 669.394531 439.339844 680.542969 421.761719 C 688.863281 408.25 695.511719 393.855469 700.484375 378.574219 C 701.5 372.113281 701.792969 366.863281 701.355469 362.816406 C 699.566406 357.257812 697.441406 353.261719 694.976562 350.832031 C 681.617188 340.363281 665.882812 342.140625 647.777344 356.160156 C 641.761719 360.835938 633.144531 370.726562 621.921875 385.828125 C 612.1875 398.632812 599.453125 419.578125 583.71875 448.667969 " fill-opacity="0.1328" fill-rule="nonzero"/><path fill="#9dab87" d="M 722.527344 295.597656 L 624.007812 325.160156 C 605.875 389.375 595.082031 425.957031 591.628906 434.902344 L 567.234375 492.882812 L 556.410156 515.035156 C 548.316406 530.480469 538.46875 543.472656 526.867188 554.019531 C 526.257812 555.921875 511.328125 566.730469 482.082031 586.441406 C 474.722656 592.445312 470.722656 596.140625 470.085938 597.53125 C 461.785156 606.34375 458.117188 618.769531 459.074219 634.816406 C 459.671875 646.03125 469.148438 649.660156 487.507812 645.695312 C 504.6875 643.28125 556.089844 630.09375 641.714844 606.132812 C 609.847656 621.910156 587.886719 634.304688 575.832031 643.308594 C 563.085938 652.117188 547.839844 666.445312 530.09375 686.289062 C 610.515625 679.421875 660.113281 672.269531 678.890625 664.828125 C 703.613281 656.332031 717.371094 650.542969 720.167969 647.464844 C 727.964844 642.722656 734.683594 637.292969 740.316406 631.171875 C 756.492188 612.082031 765.722656 589.6875 768.003906 563.976562 C 771.769531 538.945312 769.664062 497.597656 761.6875 439.9375 C 757.542969 408.425781 744.488281 360.3125 722.527344 295.597656 " fill-opacity="0.9961" fill-rule="nonzero"/><path fill="#070906" d="M 683.5625 275.59375 L 682.867188 276.503906 C 705.246094 271.289062 720.898438 264.847656 729.816406 257.183594 C 733.488281 254.390625 737.53125 250.390625 741.9375 245.183594 C 749.367188 236.058594 756.292969 226.347656 762.707031 216.054688 C 759.960938 200.976562 757.179688 190.824219 754.371094 185.601562 C 749.875 176.921875 744.644531 170.605469 738.671875 166.652344 C 731.269531 161.328125 722.746094 158.347656 713.101562 157.703125 C 705.496094 157.765625 699.863281 160.261719 696.203125 165.195312 C 693.570312 168.601562 691.578125 172.558594 690.21875 177.0625 C 689.75 177.921875 688.746094 182.085938 687.203125 189.554688 C 686.636719 192.726562 686.132812 196.160156 685.695312 199.859375 C 684.503906 212.003906 683.71875 222.28125 683.34375 230.699219 L 683.5625 275.59375 " fill-opacity="0.9961" fill-rule="nonzero"/><path fill="#fee0c7" d="M 592.152344 297.359375 L 587.386719 293.449219 C 573.027344 281.722656 563.222656 272.605469 557.976562 266.101562 C 552.980469 259.597656 550.347656 255.699219 550.078125 254.402344 C 548.785156 251.804688 547.859375 249.207031 547.296875 246.609375 C 546.6875 245.320312 546.46875 241.414062 546.648438 234.886719 C 546.351562 233.777344 548.148438 224.347656 552.035156 206.597656 C 552.464844 205.25 552.769531 200.960938 552.953125 193.738281 C 553.265625 185.089844 550.683594 169.933594 545.207031 148.265625 C 547.617188 140.550781 551.019531 133.761719 555.414062 127.898438 C 559.753906 123.640625 562.695312 121.402344 564.242188 121.183594 C 566.632812 120.09375 569.390625 119.34375 572.515625 118.9375 C 577.644531 118 585.695312 118.851562 596.664062 121.492188 C 611.105469 124.28125 644.84375 137.9375 697.875 162.464844 L 700.148438 201.363281 L 701.886719 212.121094 C 711.824219 205.082031 717.328125 205.558594 718.402344 213.546875 C 720.085938 226.769531 718.457031 238.425781 713.523438 248.511719 C 711.050781 253.070312 705.308594 253.335938 696.296875 249.308594 C 695.492188 258.847656 692.464844 266.808594 687.207031 273.191406 C 679.378906 281.148438 670.574219 286.925781 660.792969 290.53125 C 646.484375 297.34375 623.601562 299.621094 592.152344 297.359375 " fill-opacity="0.9961" fill-rule="nonzero"/><path fill="#070906" d="M 678.984375 170.003906 L 678.984375 170.011719 C 683.144531 180.285156 685.425781 186.109375 685.828125 187.476562 C 687.082031 190.925781 688.152344 194.09375 689.046875 196.972656 C 690.8125 202.550781 691.910156 207.339844 692.34375 211.339844 C 692.925781 216.011719 692.933594 220.660156 692.367188 225.289062 C 691.886719 229.574219 690.699219 235.050781 688.804688 241.71875 C 692.097656 232.847656 694.878906 225.847656 697.140625 220.71875 C 698.25 218.429688 699.097656 216.765625 699.691406 215.730469 L 703.761719 209.816406 C 704.304688 208.632812 704.632812 207.847656 704.746094 207.464844 C 705.253906 205.996094 705.664062 203.304688 705.976562 199.398438 C 706.484375 191.589844 706.765625 184.613281 706.816406 178.476562 L 678.984375 170.003906 " fill-opacity="0.9961" fill-rule="nonzero"/><path fill="#9dab87" d="M 545.515625 150.890625 L 554.28125 151.636719 C 592.175781 154.296875 624.75 159.71875 652.003906 167.902344 C 676.160156 174.722656 713.390625 191.183594 763.703125 217.285156 C 768.972656 197 772.066406 177.464844 772.976562 158.6875 C 772.246094 143.550781 771.066406 134.722656 769.4375 132.207031 C 767.707031 126.648438 765.171875 121.371094 761.828125 116.367188 C 751.269531 101.984375 735.472656 90.769531 714.441406 82.726562 C 693.25 74.46875 671.703125 69.644531 649.804688 68.253906 C 634.832031 67.3125 621.417969 68.382812 609.550781 71.464844 C 603.753906 72.976562 598.441406 74.855469 593.613281 77.09375 L 586.703125 80.640625 C 582.328125 83.15625 578.378906 85.863281 574.851562 88.761719 C 552.675781 108.5 542.894531 129.210938 545.515625 150.890625 " fill-opacity="0.9961" fill-rule="nonzero"/><path fill="#fee0c7" d="M 495.121094 441.320312 L 491.089844 439.324219 C 469.453125 428.804688 455.152344 419.324219 448.191406 410.882812 C 437.003906 398.066406 430.539062 384.152344 428.785156 369.136719 C 428.242188 364.3125 428.226562 359.882812 428.738281 355.847656 C 429.589844 351.167969 430.25 348.597656 430.71875 348.132812 C 431.34375 346.71875 432.089844 345.558594 432.949219 344.660156 L 434.328125 343.546875 C 436.078125 342.476562 438.234375 342.46875 440.792969 343.527344 C 443.886719 344.445312 448.867188 348.511719 455.742188 355.722656 C 459.96875 360.109375 467.902344 370.054688 479.546875 385.550781 L 481.324219 387.445312 L 481.835938 387.695312 L 482.011719 387.339844 L 481.5625 385.246094 C 478.644531 376.550781 477.101562 371.527344 476.941406 370.175781 C 476.597656 368.972656 476.351562 367.140625 476.207031 364.683594 C 476.378906 359.433594 478.355469 357.53125 482.132812 358.976562 C 485.027344 359.859375 489.035156 365.25 494.160156 375.152344 C 496.523438 379.863281 498.804688 384.777344 501.003906 389.898438 L 516.261719 425.761719 L 495.121094 441.320312 " fill-opacity="0.9961" fill-rule="nonzero"/><g mask="url(#694ca86284)"><g transform="matrix(1, 0, 0, 1, 532, 333)"><g clip-path="url(#bf7990e9c2)"><path fill="#070906" d="M 176.96875 16.824219 L 1.6875 174.019531 C 7.175781 182.398438 14.636719 191.726562 24.066406 202.003906 C 31.546875 209.542969 38.671875 214.039062 45.441406 215.492188 C 51.648438 217.210938 58.398438 216.898438 65.695312 214.554688 C 67.347656 214.605469 73.128906 211.707031 83.035156 205.859375 C 87.09375 203.167969 91.289062 199.964844 95.621094 196.257812 C 108.085938 185.277344 120.707031 170.179688 133.484375 150.972656 C 143.058594 136.730469 153.601562 117.601562 165.113281 93.578125 C 171.910156 79.25 176.75 65.222656 179.632812 51.5 C 180.707031 47.277344 180.976562 40.648438 180.4375 31.621094 C 179.890625 26.523438 178.734375 21.59375 176.96875 16.824219 " fill-opacity="0.9961" fill-rule="nonzero"/><path fill="#070906" d="M 59.675781 128.792969 L 59.675781 128.800781 C 59.957031 118.539062 64.882812 102.398438 74.453125 80.378906 C 85.347656 55.484375 95.675781 36.914062 105.441406 24.667969 C 111.277344 16.980469 118.351562 11.4375 126.671875 8.03125 C 132.550781 5.394531 141.949219 4.636719 154.863281 5.757812 L 131.355469 33.769531 L 59.675781 128.792969 " fill-opacity="0.9961" fill-rule="nonzero"/></g></g></g><path fill="#9dab87" d="M 591.265625 458.679688 L 519.371094 408.59375 L 470.09375 442.027344 C 508.953125 487.820312 538.230469 517.605469 557.921875 531.386719 C 574.832031 543.730469 590.519531 546.671875 604.988281 540.207031 C 610.871094 537.6875 618.113281 531.964844 626.714844 523.03125 C 637.277344 510.988281 649.492188 495.296875 663.351562 475.945312 C 678.625 447.945312 689.269531 427.296875 695.292969 413.988281 C 703.738281 395.683594 708.734375 379.855469 710.28125 366.511719 C 710.371094 358.464844 709.921875 353.429688 708.929688 351.402344 C 706.460938 345.433594 703.390625 341.300781 699.71875 339.007812 C 681.421875 330.046875 663.464844 335.589844 645.839844 355.640625 C 632.753906 369.765625 614.558594 404.113281 591.265625 458.679688 " fill-opacity="0.9961" fill-rule="nonzero"/><path fill="#697258" d="M 624.539062 325.300781 L 663.832031 301.265625 L 718.253906 279.578125 L 724.074219 299.191406 L 624.539062 325.300781 " fill-opacity="0.9961" fill-rule="nonzero"/></svg>