<svg xmlns="http://www.w3.org/2000/svg" xmlns:xlink="http://www.w3.org/1999/xlink" width="1080" zoomAndPan="magnify" viewBox="0 0 810 809.999993" height="1080" preserveAspectRatio="xMidYMid meet" version="1.0"><defs><clipPath id="ceb1cc6dd8"><path d="M 9 555 L 78 555 L 78 604.367188 L 9 604.367188 Z M 9 555 " clip-rule="nonzero"/></clipPath><clipPath id="56b4770e9e"><path d="M 722 205.367188 L 783 205.367188 L 783 271 L 722 271 Z M 722 205.367188 " clip-rule="nonzero"/></clipPath></defs><g clip-path="url(#ceb1cc6dd8)"><path fill="#ffce45" d="M 69.238281 558.972656 L 32.472656 579.355469 C 30.324219 580.429688 27.554688 582.078125 24.152344 584.316406 C 20.757812 586.550781 17.625 589.230469 14.761719 592.363281 C 11.902344 595.488281 10.109375 599.019531 9.394531 602.957031 L 11.273438 604.296875 C 12.34375 603.042969 13.914062 601.703125 15.96875 600.273438 C 18.027344 598.84375 21.199219 596.964844 25.496094 594.640625 L 62.796875 574.261719 C 66.910156 571.933594 70.042969 569.339844 72.191406 566.480469 C 74.339844 563.621094 76.125 560.3125 77.558594 556.558594 L 75.144531 555.21875 C 74.246094 555.929688 72.277344 557.183594 69.238281 558.972656 Z M 69.238281 558.972656 " fill-opacity="1" fill-rule="nonzero"/></g><path fill="#ffce45" d="M 111.296875 414.910156 C 109.6875 417.769531 108.878906 421.4375 108.878906 425.90625 C 108.878906 433.414062 112.191406 437.167969 118.8125 437.167969 C 126.324219 437.167969 132.410156 431.71875 137.058594 420.808594 C 138.84375 422.242188 141.085938 422.957031 143.769531 422.957031 C 149.136719 422.957031 153.339844 421.390625 156.382812 418.261719 C 159.421875 415.136719 161.570312 411.335938 162.824219 406.863281 C 164.074219 402.398438 164.703125 398.011719 164.703125 393.722656 L 164.703125 390.773438 L 159.871094 391.574219 C 159.152344 397.476562 158.082031 401.902344 156.652344 404.851562 C 155.214844 407.800781 152.800781 409.277344 149.40625 409.277344 C 145.289062 409.277344 142.425781 407.667969 140.816406 404.449219 L 136.523438 405.253906 C 134.734375 412.050781 132.765625 416.785156 130.617188 419.46875 C 128.472656 422.148438 125.613281 423.488281 122.03125 423.488281 C 120.066406 423.488281 118.5 422.910156 117.335938 421.746094 C 116.171875 420.585938 115.320312 418.574219 114.785156 415.710938 L 114.785156 414.371094 Z M 111.296875 414.910156 " fill-opacity="1" fill-rule="nonzero"/><path fill="#ffce45" d="M 109.628906 376.523438 C 111.6875 375.09375 114.859375 373.214844 119.15625 370.890625 L 156.457031 350.503906 C 160.574219 348.183594 163.703125 345.589844 165.851562 342.726562 C 168 339.871094 169.785156 336.558594 171.21875 332.804688 L 168.800781 331.464844 C 168.265625 331.824219 167.503906 332.269531 166.519531 332.804688 C 165.535156 333.339844 164.328125 334.058594 162.898438 334.949219 L 126.132812 355.601562 C 123.984375 356.855469 121.214844 358.550781 117.8125 360.699219 C 114.417969 362.84375 111.285156 365.480469 108.417969 368.609375 C 105.558594 371.738281 103.769531 375.269531 103.050781 379.203125 L 104.929688 380.542969 C 106.003906 379.296875 107.574219 377.953125 109.628906 376.523438 Z M 109.628906 376.523438 " fill-opacity="1" fill-rule="nonzero"/><path fill="#ffce45" d="M 187.859375 441.234375 C 187.859375 444.632812 187.8125 448.117188 187.722656 451.691406 C 187.632812 455.269531 187.410156 459.027344 187.050781 462.957031 C 186.515625 467.609375 184.457031 472.074219 180.882812 476.367188 C 177.300781 480.65625 171.753906 482.804688 164.242188 482.804688 C 151 482.804688 144.203125 474.488281 143.84375 457.859375 C 143.84375 456.96875 143.84375 456.074219 143.84375 455.175781 C 143.84375 454.285156 143.933594 453.394531 144.113281 452.496094 L 137.941406 451.691406 C 130.964844 478.335938 118.886719 491.652344 101.710938 491.652344 C 96.519531 491.652344 91.824219 489.910156 87.621094 486.421875 C 83.417969 482.933594 81.316406 477.082031 81.316406 468.855469 C 81.316406 467.425781 81.359375 465.996094 81.449219 464.5625 C 81.539062 463.136719 81.671875 461.792969 81.851562 460.542969 L 77.289062 458.933594 C 74.78125 462.152344 70.625 467.023438 64.8125 473.550781 C 58.996094 480.078125 52.332031 487.359375 44.816406 495.40625 C 37.304688 503.453125 29.609375 511.5 21.738281 519.542969 C 13.863281 527.589844 6.617188 534.832031 0 541.269531 L 4.292969 545.828125 C 18.785156 535.816406 35.695312 522.675781 55.015625 506.402344 C 55.910156 510.695312 57.605469 514.984375 60.117188 519.277344 C 62.617188 523.566406 66.375 527.144531 71.386719 530.003906 C 76.394531 532.867188 82.925781 534.296875 90.976562 534.296875 C 97.773438 534.296875 103.632812 533.136719 108.554688 530.808594 C 113.476562 528.488281 117.585938 525.714844 120.902344 522.496094 C 124.210938 519.277344 126.671875 516.328125 128.28125 513.644531 C 133.289062 521.335938 141.160156 525.175781 151.894531 525.175781 C 158.335938 525.175781 164.015625 523.613281 168.9375 520.484375 C 173.859375 517.359375 178.105469 513.46875 181.683594 508.816406 C 185.261719 504.171875 188.125 499.792969 190.273438 495.675781 C 194.207031 488.167969 197.117188 480.523438 198.996094 472.746094 C 200.875 464.96875 202.214844 456.566406 203.023438 447.535156 C 203.824219 438.507812 204.585938 428.359375 205.300781 417.09375 C 205.660156 411.554688 206.109375 406.679688 206.644531 402.476562 C 207.179688 398.28125 207.804688 394.480469 208.523438 391.082031 L 203.425781 388.933594 C 193.046875 406.816406 187.859375 424.25 187.859375 441.234375 Z M 187.859375 441.234375 " fill-opacity="1" fill-rule="nonzero"/><path fill="#ffce45" d="M 231.0625 369.089844 C 228.113281 376.777344 225.917969 383.617188 224.488281 389.605469 C 223.054688 395.597656 222.117188 401.632812 221.671875 407.707031 C 221.222656 413.789062 220.820312 420.851562 220.464844 428.894531 L 218.046875 492.992188 C 217.511719 505.867188 216.792969 516.773438 215.902344 525.714844 C 215.003906 534.65625 214.113281 541.179688 213.21875 545.292969 L 219.121094 546.632812 C 224.847656 533.402344 229.183594 520.617188 232.136719 508.28125 C 235.089844 495.945312 236.921875 484.054688 237.640625 472.609375 L 242.203125 396.980469 C 243.09375 382.5 244.035156 370.746094 245.019531 361.714844 C 246 352.6875 247.207031 346.382812 248.640625 342.804688 L 243.007812 340.660156 C 237.996094 351.921875 234.015625 361.402344 231.0625 369.089844 Z M 231.0625 369.089844 " fill-opacity="1" fill-rule="nonzero"/><path fill="#ffce45" d="M 330.355469 302.226562 C 332.414062 300.796875 335.589844 298.921875 339.882812 296.59375 L 377.1875 276.210938 C 381.300781 273.890625 384.433594 271.296875 386.582031 268.433594 C 388.726562 265.574219 390.515625 262.265625 391.949219 258.511719 L 389.53125 257.167969 C 388.996094 257.53125 388.230469 257.972656 387.25 258.511719 C 386.265625 259.046875 385.058594 259.761719 383.628906 260.65625 L 346.863281 281.308594 C 344.714844 282.558594 341.941406 284.257812 338.542969 286.402344 C 335.144531 288.546875 332.011719 291.1875 329.148438 294.3125 C 326.289062 297.445312 324.5 300.976562 323.78125 304.90625 L 325.660156 306.25 C 326.734375 305 328.300781 303.660156 330.355469 302.226562 Z M 330.355469 302.226562 " fill-opacity="1" fill-rule="nonzero"/><path fill="#ffce45" d="M 353.03125 389.929688 L 350.617188 389.929688 C 349.1875 390.824219 346.90625 392.925781 343.773438 396.230469 C 340.644531 399.539062 337.511719 403.027344 334.378906 406.691406 C 331.25 410.355469 328.878906 413.351562 327.265625 415.671875 L 327.265625 418.089844 C 330.847656 420.949219 334.515625 424.035156 338.269531 427.339844 C 342.027344 430.652344 345.785156 434.273438 349.542969 438.203125 L 351.6875 438.203125 C 366.535156 427.65625 373.964844 419.160156 373.964844 412.722656 C 373.964844 409.6875 372.53125 406.421875 369.671875 402.933594 C 366.808594 399.449219 361.261719 395.113281 353.03125 389.929688 Z M 353.03125 389.929688 " fill-opacity="1" fill-rule="nonzero"/><path fill="#ffce45" d="M 433.277344 347.417969 C 430.769531 355.554688 428.984375 363.332031 427.910156 370.75 C 426.835938 378.171875 426.300781 385.902344 426.300781 393.949219 C 426.300781 396.992188 426.34375 400.03125 426.433594 403.066406 C 426.523438 406.109375 426.570312 409.148438 426.570312 412.1875 C 426.570312 432.210938 424.511719 447.679688 420.394531 458.582031 C 416.996094 467.882812 411.539062 476.910156 404.027344 485.671875 C 396.511719 494.429688 386.851562 501.628906 375.042969 507.261719 C 363.234375 512.894531 349.011719 515.710938 332.371094 515.710938 C 324.675781 515.710938 317.074219 514.769531 309.558594 512.894531 C 302.046875 511.015625 295.292969 507.839844 289.300781 503.371094 C 283.304688 498.902344 278.519531 492.734375 274.941406 484.867188 C 271.359375 476.996094 269.574219 467.167969 269.574219 455.367188 C 269.574219 438.203125 274.582031 417.28125 284.601562 392.609375 L 277.089844 389.660156 C 267.605469 409.683594 260.984375 428.054688 257.230469 444.773438 C 253.472656 461.492188 251.59375 478.164062 251.59375 494.792969 C 251.59375 508.558594 254.367188 520.625 259.914062 530.996094 C 265.457031 541.367188 273.285156 549.410156 283.394531 555.136719 C 293.5 560.855469 305.445312 563.71875 319.222656 563.71875 C 334.789062 563.71875 349.769531 559.964844 364.175781 552.453125 C 378.574219 544.945312 391.855469 533.097656 404.027344 516.917969 C 416.191406 500.734375 426.390625 479.59375 434.621094 453.488281 C 438.378906 441.691406 441.332031 427.789062 443.476562 411.785156 C 445.625 395.785156 446.785156 377.683594 446.964844 357.476562 C 447.320312 338.167969 447.945312 326.097656 448.84375 321.269531 L 443.207031 319.660156 C 439.089844 330.03125 435.78125 339.28125 433.277344 347.417969 Z M 433.277344 347.417969 " fill-opacity="1" fill-rule="nonzero"/><path fill="#ffce45" d="M 521.132812 369.699219 C 523.195312 368.269531 526.367188 366.390625 530.664062 364.066406 L 567.964844 343.679688 C 572.078125 341.359375 575.210938 338.765625 577.359375 335.902344 C 579.503906 333.046875 581.292969 329.734375 582.726562 325.980469 L 580.3125 324.640625 C 579.773438 325 579.011719 325.445312 578.027344 325.980469 C 577.042969 326.515625 575.835938 327.234375 574.40625 328.125 L 537.640625 348.777344 C 535.492188 350.03125 532.71875 351.726562 529.320312 353.875 C 525.925781 356.019531 522.789062 358.65625 519.925781 361.785156 C 517.066406 364.914062 515.277344 368.445312 514.558594 372.378906 L 516.4375 373.71875 C 517.511719 372.472656 519.078125 371.128906 521.132812 369.699219 Z M 521.132812 369.699219 " fill-opacity="1" fill-rule="nonzero"/><path fill="#ffce45" d="M 615.28125 285.054688 C 618.945312 281.714844 623.003906 278.292969 627.464844 274.789062 L 635.347656 268.347656 C 646.011719 275.03125 656.367188 282.113281 666.398438 289.59375 L 668.550781 288.636719 C 668.070312 284.816406 667.273438 281.636719 666.160156 279.089844 C 665.042969 276.542969 663.332031 274.117188 661.023438 271.804688 C 658.714844 269.5 655.566406 266.757812 651.589844 263.570312 C 646.96875 259.914062 641.875 256.332031 636.304688 252.828125 L 633.4375 253.304688 C 625.636719 260.148438 619.582031 266 615.28125 270.851562 C 610.980469 275.707031 607.957031 279.964844 606.203125 283.625 C 604.453125 287.285156 603.5 290.785156 603.335938 294.125 L 605.726562 294.605469 C 608.4375 291.582031 611.621094 288.398438 615.28125 285.054688 Z M 615.28125 285.054688 " fill-opacity="1" fill-rule="nonzero"/><path fill="#ffce45" d="M 660.269531 415.667969 L 657.851562 415.667969 C 656.421875 416.558594 654.140625 418.660156 651.011719 421.96875 C 647.878906 425.277344 644.75 428.761719 641.617188 432.429688 C 638.488281 436.09375 636.117188 439.089844 634.503906 441.414062 L 634.503906 443.5625 C 638.085938 446.417969 641.75 449.5 645.507812 452.8125 C 649.265625 456.117188 653.023438 459.738281 656.777344 463.675781 L 658.925781 463.675781 C 673.773438 453.121094 681.199219 444.632812 681.199219 438.195312 C 681.199219 434.617188 679.457031 431.089844 675.96875 427.601562 C 672.480469 424.117188 667.246094 420.136719 660.269531 415.667969 Z M 660.269531 415.667969 " fill-opacity="1" fill-rule="nonzero"/><g clip-path="url(#56b4770e9e)"><path fill="#ffce45" d="M 753.546875 253.570312 C 762.402344 248.121094 769.417969 242.441406 774.609375 236.539062 C 779.796875 230.640625 782.394531 224.203125 782.394531 217.230469 C 782.394531 209.367188 778.992188 205.429688 772.195312 205.429688 C 769.152344 205.429688 766.113281 206.550781 763.070312 208.78125 C 760.027344 211.019531 757.523438 213.742188 755.558594 216.964844 C 753.585938 220.179688 752.605469 223.398438 752.605469 226.617188 C 752.605469 227.871094 752.964844 229.613281 753.679688 231.847656 C 754.390625 234.085938 755.734375 236.367188 757.703125 238.6875 C 756.628906 239.402344 754.570312 240.964844 751.53125 243.382812 C 748.492188 245.792969 745.046875 248.609375 741.199219 251.828125 C 737.355469 255.046875 733.683594 258.132812 730.195312 261.082031 C 726.707031 264.03125 723.984375 266.402344 722.011719 268.1875 L 723.355469 270.066406 C 734.625 264.527344 744.6875 259.027344 753.546875 253.570312 Z M 762.402344 217.632812 C 763.5625 216.292969 765.308594 215.621094 767.632812 215.621094 C 769.0625 215.621094 770.359375 216.023438 771.523438 216.828125 C 772.6875 217.632812 773.269531 219.019531 773.269531 220.984375 C 773.269531 223.132812 772.640625 225.007812 771.390625 226.617188 C 770.136719 228.226562 768.792969 229.746094 767.363281 231.175781 C 764.144531 228.136719 762.21875 226.082031 761.597656 225.007812 C 760.96875 223.9375 760.65625 222.863281 760.65625 221.789062 C 760.65625 220.359375 761.234375 218.972656 762.402344 217.632812 Z M 762.402344 217.632812 " fill-opacity="1" fill-rule="nonzero"/></g><path fill="#ffce45" d="M 802.253906 288.707031 C 799.925781 296.039062 797.289062 301.757812 794.335938 305.871094 C 791.382812 309.984375 787.761719 312.039062 783.464844 312.039062 C 779.171875 312.039062 774.96875 310.964844 770.855469 308.820312 L 768.171875 309.625 C 763.695312 317.316406 759.804688 322.8125 756.496094 326.121094 C 753.183594 329.429688 748.847656 331.082031 743.480469 331.082031 C 741.511719 331.082031 739.589844 330.769531 737.710938 330.140625 C 735.832031 329.515625 733.90625 328.847656 731.941406 328.128906 C 727.820312 326.347656 724.78125 325.449219 722.816406 325.449219 C 717.804688 325.449219 713.78125 327.6875 710.738281 332.152344 C 707.695312 336.625 705.503906 339.84375 704.164062 341.808594 C 702.820312 343.777344 701.882812 345.160156 701.347656 345.964844 C 700.808594 346.769531 700.003906 347.800781 698.929688 349.050781 C 692.847656 356.203125 686.675781 361.164062 680.414062 363.933594 C 674.839844 366.402344 669.695312 367.761719 664.972656 368.035156 C 664.421875 367.894531 663.847656 367.820312 663.242188 367.820312 C 660.199219 367.820312 657.558594 367.195312 655.328125 365.945312 C 653.085938 364.695312 650.851562 363.21875 648.617188 361.519531 C 646.375 359.820312 643.828125 358.347656 640.96875 357.09375 C 638.101562 355.84375 634.347656 355.214844 629.695312 355.214844 C 619.671875 355.214844 609.523438 357.363281 599.238281 361.652344 C 588.949219 365.945312 579.109375 371.710938 569.714844 378.953125 C 560.324219 386.191406 551.957031 394.105469 544.625 402.6875 C 538.539062 409.839844 533.4375 416.679688 529.328125 423.203125 C 527.511719 426.082031 526.101562 428.53125 525.085938 430.558594 C 523.863281 432.210938 522.722656 434.039062 521.675781 436.074219 C 520.152344 439.023438 518.859375 441.886719 517.785156 444.65625 C 516.710938 447.429688 515.996094 449.527344 515.636719 450.957031 L 517.785156 453.640625 C 520.824219 455.25 525.386719 456.90625 531.472656 458.601562 C 537.554688 460.304688 544.21875 461.820312 551.464844 463.160156 C 558.710938 464.503906 565.644531 465.574219 572.261719 466.378906 C 578.878906 467.183594 584.339844 467.679688 588.636719 467.855469 C 582.550781 475.722656 575.082031 481.933594 566.226562 486.492188 C 557.371094 491.054688 548.152344 494.273438 538.582031 496.148438 C 529.011719 498.027344 520.023438 498.964844 511.613281 498.964844 C 503.5625 498.964844 497.257812 496.953125 492.695312 492.929688 C 488.132812 488.90625 484.820312 483.675781 482.765625 477.242188 C 480.707031 470.804688 479.453125 463.875 479.011719 456.457031 C 478.558594 449.039062 478.339844 441.929688 478.339844 435.132812 C 478.339844 409.566406 478.875 387.308594 479.949219 368.351562 C 481.023438 349.402344 493.769531 235.304688 495.742188 223.144531 L 487.101562 236.097656 C 481.703125 255.523438 481.703125 260.921875 471.980469 322.445312 C 469.820312 337.554688 467.335938 359.550781 466.261719 368.21875 C 465.1875 376.894531 464.203125 387.171875 463.308594 399.0625 C 462.414062 410.953125 461.652344 423.960938 461.03125 438.085938 C 460.402344 452.210938 460.089844 466.691406 460.089844 481.53125 C 460.089844 501.203125 463.175781 516.085938 469.347656 526.1875 C 475.421875 536.132812 484.929688 541.167969 497.855469 541.324219 C 497.96875 541.328125 498.078125 541.339844 498.195312 541.339844 C 498.257812 541.339844 498.320312 541.335938 498.382812 541.335938 C 498.410156 541.335938 498.4375 541.339844 498.46875 541.339844 C 498.515625 541.339844 498.570312 541.335938 498.621094 541.335938 C 511.863281 541.285156 523.667969 538.921875 534.019531 534.230469 C 544.488281 529.496094 553.96875 523.148438 562.46875 515.191406 C 570.960938 507.234375 578.972656 498.609375 586.488281 489.308594 C 591.855469 482.515625 596.859375 475.675781 601.515625 468.792969 C 606.164062 461.910156 610.726562 455.074219 615.203125 448.273438 L 614.667969 444.789062 L 603.660156 443.449219 C 597.757812 442.734375 590.6875 441.703125 582.460938 440.363281 C 574.230469 439.023438 566.132812 437.460938 558.171875 435.671875 C 550.71875 434 544.417969 432.324219 539.234375 430.648438 C 540.347656 428.8125 541.46875 426.996094 542.609375 425.214844 C 544.667969 421.996094 546.945312 418.867188 549.453125 415.828125 C 553.03125 411.535156 557.996094 406.890625 564.347656 401.882812 C 570.695312 396.878906 578.570312 392.585938 587.964844 389.007812 C 597.355469 385.433594 608.3125 383.644531 620.839844 383.644531 C 623.34375 383.644531 625.9375 384.09375 628.621094 384.984375 C 631.304688 385.882812 633.808594 387.042969 636.136719 388.472656 C 638.996094 390.078125 641.546875 391.824219 643.78125 393.703125 C 646.011719 395.574219 649.535156 396.511719 654.347656 396.515625 C 654.359375 396.515625 654.371094 396.519531 654.382812 396.519531 C 660.105469 396.519531 665.339844 395.671875 670.078125 393.972656 C 674.816406 392.273438 679.785156 389.191406 684.976562 384.71875 C 689.984375 380.609375 696.78125 372.472656 705.371094 360.3125 C 708.949219 355.484375 711.632812 353.070312 713.421875 353.070312 C 714.855469 353.070312 717.449219 354.144531 721.207031 356.289062 C 724.960938 358.433594 729.34375 359.507812 734.355469 359.507812 C 744.015625 359.507812 752.78125 352.984375 760.652344 339.929688 C 762.441406 340.289062 764.097656 340.601562 765.621094 340.871094 C 767.136719 341.136719 768.707031 341.269531 770.316406 341.269531 C 788.921875 341.269531 802.160156 324.289062 810.035156 290.316406 Z M 802.253906 288.707031 " fill-opacity="1" fill-rule="nonzero"/></svg>