<?xml version="1.0" standalone="no"?>
<!DOCTYPE svg PUBLIC "-//W3C//DTD SVG 1.0//EN" "http://www.w3.org/TR/2001/REC-SVG-20010904/DTD/svg10.dtd">
<svg xmlns="http://www.w3.org/2000/svg" xmlns:xlink="http://www.w3.org/1999/xlink" id="body_1" width="1080" height="1080">

<defs>
        <clipPath  id="1">

            <path clip-rule="evenodd" d="M9 555L78 555L78 604.3672L9 604.3672L9 555z" />        </clipPath>
        <clipPath  id="2">

            <path clip-rule="evenodd" d="M722 205.36719L783 205.36719L783 271L722 271L722 205.36719z" />        </clipPath>
</defs>

<g transform="matrix(1.3333334 0 0 1.3333334 0 0)">
	<g clip-path="url(#1)" >
        <path d="M69.23828 558.97266L32.472656 579.35547C 30.324219 580.4297 27.554688 582.0781 24.152344 584.3164C 20.757812 586.5508 17.625 589.23047 14.761719 592.3633C 11.902344 595.4883 10.109375 599.01953 9.394531 602.95703L9.394531 602.95703L11.273438 604.2969C 12.34375 603.04297 13.914062 601.7031 15.96875 600.27344C 18.027344 598.84375 21.199219 596.96484 25.496094 594.6406L25.496094 594.6406L62.796875 574.2617C 66.91016 571.9336 70.04297 569.33984 72.19141 566.48047C 74.33984 563.6211 76.125 560.3125 77.55859 556.5586L77.55859 556.5586L75.14453 555.21875C 74.24609 555.9297 72.27734 557.1836 69.23828 558.97266z" stroke="none" fill="#FFCE45" fill-rule="nonzero" />
	</g>
    <path d="M111.296875 414.91016C 109.6875 417.76953 108.87891 421.4375 108.87891 425.90625C 108.87891 433.41406 112.19141 437.16797 118.8125 437.16797C 126.32422 437.16797 132.41016 431.71875 137.0586 420.8086C 138.84375 422.2422 141.08594 422.95703 143.76953 422.95703C 149.13672 422.95703 153.33984 421.39062 156.38281 418.26172C 159.42188 415.13672 161.57031 411.33594 162.82422 406.86328C 164.07422 402.39844 164.70312 398.01172 164.70312 393.72266L164.70312 393.72266L164.70312 390.77344L159.8711 391.57422C 159.15234 397.47656 158.08203 401.90234 156.65234 404.85156C 155.21484 407.80078 152.80078 409.27734 149.40625 409.27734C 145.28906 409.27734 142.42578 407.66797 140.8164 404.44922L140.8164 404.44922L136.52344 405.2539C 134.73438 412.05078 132.76562 416.78516 130.61719 419.46875C 128.47266 422.14844 125.61328 423.48828 122.03125 423.48828C 120.06641 423.48828 118.5 422.91016 117.33594 421.7461C 116.171875 420.58594 115.32031 418.57422 114.78516 415.71094L114.78516 415.71094L114.78516 414.3711L111.296875 414.91016z" stroke="none" fill="#FFCE45" fill-rule="nonzero" />
    <path d="M109.62891 376.52344C 111.6875 375.09375 114.859375 373.21484 119.15625 370.89062L119.15625 370.89062L156.45703 350.5039C 160.57422 348.1836 163.70312 345.58984 165.85156 342.72656C 168 339.8711 169.78516 336.5586 171.21875 332.8047L171.21875 332.8047L168.80078 331.46484C 168.26562 331.82422 167.5039 332.26953 166.51953 332.8047C 165.53516 333.33984 164.32812 334.0586 162.89844 334.94922L162.89844 334.94922L126.13281 355.60156C 123.984375 356.85547 121.21484 358.55078 117.8125 360.69922C 114.41797 362.84375 111.28516 365.48047 108.41797 368.60938C 105.55859 371.73828 103.76953 375.26953 103.05078 379.20312L103.05078 379.20312L104.92969 380.54297C 106.00391 379.29688 107.57422 377.95312 109.62891 376.52344z" stroke="none" fill="#FFCE45" fill-rule="nonzero" />
    <path d="M187.85938 441.23438C 187.85938 444.6328 187.8125 448.1172 187.72266 451.6914C 187.63281 455.26953 187.41016 459.02734 187.05078 462.95703C 186.51562 467.60938 184.45703 472.07422 180.88281 476.3672C 177.30078 480.65625 171.7539 482.8047 164.24219 482.8047C 151 482.8047 144.20312 474.48828 143.84375 457.85938C 143.84375 456.96875 143.84375 456.07422 143.84375 455.17578C 143.84375 454.28516 143.9336 453.39453 144.11328 452.4961L144.11328 452.4961L137.9414 451.6914C 130.96484 478.33594 118.88672 491.65234 101.71094 491.65234C 96.51953 491.65234 91.82422 489.91016 87.62109 486.42188C 83.41797 482.9336 81.31641 477.08203 81.31641 468.85547C 81.31641 467.42578 81.359375 465.9961 81.44922 464.5625C 81.53906 463.13672 81.671875 461.79297 81.85156 460.54297L81.85156 460.54297L77.28906 458.9336C 74.78125 462.15234 70.625 467.02344 64.8125 473.55078C 58.996094 480.07812 52.33203 487.35938 44.816406 495.40625C 37.304688 503.45312 29.609375 511.5 21.738281 519.54297C 13.863281 527.58984 6.617188 534.83203 0 541.26953L0 541.26953L4.292969 545.8281C 18.785156 535.8164 35.695312 522.6758 55.015625 506.40234C 55.910156 510.6953 57.60547 514.9844 60.117188 519.27734C 62.617188 523.5664 66.375 527.14453 71.38672 530.0039C 76.39453 532.8672 82.92578 534.2969 90.97656 534.2969C 97.77344 534.2969 103.63281 533.1367 108.55469 530.8086C 113.47656 528.4883 117.58594 525.71484 120.90234 522.4961C 124.21094 519.27734 126.671875 516.3281 128.28125 513.64453C 133.28906 521.33594 141.16016 525.1758 151.89453 525.1758C 158.33594 525.1758 164.01562 523.6133 168.9375 520.4844C 173.85938 517.3594 178.10547 513.46875 181.6836 508.8164C 185.26172 504.17188 188.125 499.79297 190.27344 495.67578C 194.20703 488.16797 197.11719 480.52344 198.9961 472.7461C 200.875 464.96875 202.21484 456.5664 203.02344 447.53516C 203.82422 438.5078 204.58594 428.35938 205.30078 417.09375C 205.66016 411.5547 206.10938 406.6797 206.64453 402.47656C 207.17969 398.28125 207.80469 394.48047 208.52344 391.08203L208.52344 391.08203L203.42578 388.9336C 193.04688 406.8164 187.85938 424.25 187.85938 441.23438z" stroke="none" fill="#FFCE45" fill-rule="nonzero" />
    <path d="M231.0625 369.08984C 228.11328 376.77734 225.91797 383.6172 224.48828 389.60547C 223.05469 395.59766 222.11719 401.6328 221.67188 407.70703C 221.22266 413.78906 220.82031 420.85156 220.46484 428.89453L220.46484 428.89453L218.04688 492.9922C 217.51172 505.8672 216.79297 516.77344 215.90234 525.71484C 215.0039 534.65625 214.11328 541.1797 213.21875 545.29297L213.21875 545.29297L219.1211 546.6328C 224.84766 533.40234 229.1836 520.6172 232.13672 508.28125C 235.08984 495.9453 236.92188 484.0547 237.64062 472.60938L237.64062 472.60938L242.20312 396.98047C 243.09375 382.5 244.03516 370.7461 245.01953 361.71484C 246 352.6875 247.20703 346.3828 248.64062 342.8047L248.64062 342.8047L243.00781 340.66016C 237.9961 351.92188 234.01562 361.40234 231.0625 369.08984z" stroke="none" fill="#FFCE45" fill-rule="nonzero" />
    <path d="M330.35547 302.22656C 332.41406 300.79688 335.58984 298.92188 339.8828 296.59375L339.8828 296.59375L377.1875 276.21094C 381.30078 273.89062 384.4336 271.29688 386.58203 268.4336C 388.72656 265.57422 390.51562 262.26562 391.94922 258.51172L391.94922 258.51172L389.53125 257.16797C 388.9961 257.53125 388.23047 257.97266 387.25 258.51172C 386.26562 259.04688 385.0586 259.76172 383.6289 260.65625L383.6289 260.65625L346.86328 281.3086C 344.71484 282.5586 341.9414 284.2578 338.54297 286.40234C 335.14453 288.54688 332.01172 291.1875 329.14844 294.3125C 326.28906 297.4453 324.5 300.97656 323.78125 304.90625L323.78125 304.90625L325.66016 306.25C 326.73438 305 328.30078 303.66016 330.35547 302.22656z" stroke="none" fill="#FFCE45" fill-rule="nonzero" />
    <path d="M353.03125 389.9297L350.6172 389.9297C 349.1875 390.82422 346.90625 392.92578 343.77344 396.23047C 340.64453 399.53906 337.51172 403.02734 334.3789 406.6914C 331.25 410.35547 328.8789 413.35156 327.26562 415.67188L327.26562 415.67188L327.26562 418.08984C 330.84766 420.94922 334.51562 424.03516 338.26953 427.33984C 342.02734 430.65234 345.78516 434.27344 349.54297 438.20312L349.54297 438.20312L351.6875 438.20312C 366.53516 427.65625 373.96484 419.16016 373.96484 412.72266C 373.96484 409.6875 372.53125 406.42188 369.67188 402.9336C 366.8086 399.44922 361.26172 395.11328 353.03125 389.9297z" stroke="none" fill="#FFCE45" fill-rule="nonzero" />
    <path d="M433.27734 347.41797C 430.76953 355.5547 428.98438 363.33203 427.91016 370.75C 426.83594 378.17188 426.30078 385.90234 426.30078 393.94922C 426.30078 396.9922 426.34375 400.03125 426.4336 403.0664C 426.52344 406.10938 426.5703 409.14844 426.5703 412.1875C 426.5703 432.21094 424.51172 447.6797 420.39453 458.58203C 416.9961 467.8828 411.53906 476.91016 404.02734 485.67188C 396.51172 494.4297 386.85156 501.6289 375.04297 507.26172C 363.23438 512.89453 349.01172 515.71094 332.3711 515.71094C 324.67578 515.71094 317.07422 514.76953 309.5586 512.89453C 302.04688 511.01562 295.29297 507.83984 289.30078 503.3711C 283.3047 498.90234 278.51953 492.73438 274.9414 484.8672C 271.35938 476.9961 269.57422 467.16797 269.57422 455.3672C 269.57422 438.20312 274.58203 417.28125 284.60156 392.60938L284.60156 392.60938L277.08984 389.66016C 267.60547 409.6836 260.98438 428.0547 257.23047 444.77344C 253.47266 461.4922 251.59375 478.16406 251.59375 494.79297C 251.59375 508.5586 254.36719 520.625 259.91406 530.9961C 265.45703 541.3672 273.28516 549.41016 283.39453 555.1367C 293.5 560.85547 305.4453 563.71875 319.22266 563.71875C 334.78906 563.71875 349.76953 559.96484 364.17578 552.4531C 378.57422 544.9453 391.85547 533.09766 404.02734 516.91797C 416.1914 500.73438 426.39062 479.59375 434.6211 453.48828C 438.3789 441.6914 441.33203 427.78906 443.47656 411.78516C 445.625 395.78516 446.78516 377.6836 446.96484 357.47656C 447.3203 338.16797 447.9453 326.09766 448.84375 321.26953L448.84375 321.26953L443.20703 319.66016C 439.08984 330.03125 435.78125 339.28125 433.27734 347.41797z" stroke="none" fill="#FFCE45" fill-rule="nonzero" />
    <path d="M521.1328 369.69922C 523.1953 368.26953 526.3672 366.39062 530.66406 364.0664L530.66406 364.0664L567.96484 343.6797C 572.0781 341.35938 575.21094 338.76562 577.3594 335.90234C 579.5039 333.04688 581.29297 329.73438 582.72656 325.98047L582.72656 325.98047L580.3125 324.64062C 579.77344 325 579.0117 325.4453 578.02734 325.98047C 577.04297 326.51562 575.83594 327.23438 574.40625 328.125L574.40625 328.125L537.6406 348.77734C 535.4922 350.03125 532.71875 351.72656 529.3203 353.875C 525.9258 356.01953 522.78906 358.65625 519.9258 361.78516C 517.0664 364.91406 515.27734 368.4453 514.5586 372.3789L514.5586 372.3789L516.4375 373.71875C 517.5117 372.47266 519.0781 371.1289 521.1328 369.69922z" stroke="none" fill="#FFCE45" fill-rule="nonzero" />
    <path d="M615.28125 285.0547C 618.9453 281.71484 623.0039 278.29297 627.46484 274.78906L627.46484 274.78906L635.34766 268.34766C 646.0117 275.03125 656.3672 282.11328 666.39844 289.59375L666.39844 289.59375L668.5508 288.63672C 668.0703 284.8164 667.27344 281.63672 666.16016 279.08984C 665.04297 276.54297 663.33203 274.1172 661.02344 271.8047C 658.71484 269.5 655.5664 266.7578 651.58984 263.5703C 646.96875 259.91406 641.875 256.33203 636.3047 252.82812L636.3047 252.82812L633.4375 253.30469C 625.6367 260.14844 619.58203 266 615.28125 270.85156C 610.98047 275.70703 607.95703 279.96484 606.2031 283.625C 604.4531 287.28516 603.5 290.78516 603.33594 294.125L603.33594 294.125L605.72656 294.60547C 608.4375 291.58203 611.6211 288.39844 615.28125 285.0547z" stroke="none" fill="#FFCE45" fill-rule="nonzero" />
    <path d="M660.26953 415.66797L657.85156 415.66797C 656.4219 416.5586 654.1406 418.66016 651.0117 421.96875C 647.8789 425.27734 644.75 428.76172 641.6172 432.4297C 638.4883 436.09375 636.1172 439.08984 634.5039 441.41406L634.5039 441.41406L634.5039 443.5625C 638.08594 446.41797 641.75 449.5 645.5078 452.8125C 649.2656 456.1172 653.02344 459.73828 656.77734 463.67578L656.77734 463.67578L658.9258 463.67578C 673.77344 453.1211 681.1992 444.6328 681.1992 438.1953C 681.1992 434.6172 679.45703 431.08984 675.96875 427.60156C 672.48047 424.1172 667.2461 420.13672 660.26953 415.66797z" stroke="none" fill="#FFCE45" fill-rule="nonzero" />
	<g clip-path="url(#2)" >
        <path d="M753.5469 253.57031C 762.40234 248.1211 769.41797 242.4414 774.6094 236.53906C 779.7969 230.64062 782.39453 224.20312 782.39453 217.23047C 782.39453 209.36719 778.9922 205.42969 772.1953 205.42969C 769.15234 205.42969 766.1133 206.55078 763.0703 208.78125C 760.02734 211.01953 757.52344 213.74219 755.5586 216.96484C 753.58594 220.17969 752.60547 223.39844 752.60547 226.61719C 752.60547 227.8711 752.96484 229.61328 753.6797 231.84766C 754.3906 234.08594 755.7344 236.36719 757.7031 238.6875C 756.6289 239.40234 754.5703 240.96484 751.53125 243.38281C 748.4922 245.79297 745.0469 248.60938 741.1992 251.82812C 737.35547 255.04688 733.6836 258.1328 730.1953 261.08203C 726.70703 264.03125 723.9844 266.40234 722.0117 268.1875L722.0117 268.1875L723.35547 270.0664C 734.625 264.52734 744.6875 259.02734 753.5469 253.57031zM762.40234 217.63281C 763.5625 216.29297 765.3086 215.6211 767.6328 215.6211C 769.0625 215.6211 770.3594 216.02344 771.52344 216.82812C 772.6875 217.63281 773.26953 219.01953 773.26953 220.98438C 773.26953 223.13281 772.6406 225.00781 771.3906 226.61719C 770.1367 228.22656 768.79297 229.7461 767.3633 231.17578C 764.14453 228.13672 762.21875 226.08203 761.59766 225.00781C 760.96875 223.9375 760.65625 222.86328 760.65625 221.78906C 760.65625 220.35938 761.2344 218.97266 762.40234 217.63281z" stroke="none" fill="#FFCE45" fill-rule="nonzero" />
	</g>
    <path d="M802.2539 288.70703C 799.9258 296.03906 797.28906 301.7578 794.33594 305.8711C 791.3828 309.98438 787.7617 312.03906 783.46484 312.03906C 779.1719 312.03906 774.96875 310.96484 770.85547 308.8203L770.85547 308.8203L768.1719 309.625C 763.6953 317.3164 759.8047 322.8125 756.4961 326.1211C 753.1836 329.4297 748.84766 331.08203 743.48047 331.08203C 741.5117 331.08203 739.58984 330.76953 737.71094 330.14062C 735.83203 329.51562 733.90625 328.84766 731.9414 328.1289C 727.8203 326.34766 724.78125 325.44922 722.8164 325.44922C 717.8047 325.44922 713.78125 327.6875 710.7383 332.15234C 707.6953 336.625 705.5039 339.84375 704.16406 341.8086C 702.8203 343.77734 701.8828 345.16016 701.34766 345.96484C 700.8086 346.76953 700.0039 347.80078 698.9297 349.05078C 692.84766 356.20312 686.6758 361.16406 680.41406 363.9336C 674.83984 366.40234 669.6953 367.76172 664.97266 368.03516C 664.4219 367.89453 663.84766 367.8203 663.2422 367.8203C 660.1992 367.8203 657.5586 367.1953 655.3281 365.9453C 653.08594 364.6953 650.85156 363.21875 648.6172 361.51953C 646.375 359.8203 643.8281 358.34766 640.96875 357.09375C 638.10156 355.84375 634.34766 355.21484 629.6953 355.21484C 619.6719 355.21484 609.52344 357.36328 599.2383 361.65234C 588.9492 365.9453 579.1094 371.71094 569.71484 378.95312C 560.3242 386.1914 551.95703 394.10547 544.625 402.6875C 538.53906 409.83984 533.4375 416.6797 529.3281 423.20312C 527.5117 426.08203 526.10156 428.53125 525.08594 430.5586C 523.8633 432.21094 522.72266 434.03906 521.6758 436.07422C 520.15234 439.02344 518.8594 441.88672 517.78516 444.65625C 516.71094 447.4297 515.9961 449.52734 515.6367 450.95703L515.6367 450.95703L517.78516 453.64062C 520.8242 455.25 525.3867 456.90625 531.47266 458.60156C 537.5547 460.3047 544.21875 461.8203 551.46484 463.16016C 558.71094 464.5039 565.64453 465.57422 572.2617 466.3789C 578.8789 467.1836 584.33984 467.6797 588.6367 467.85547C 582.5508 475.72266 575.08203 481.9336 566.22656 486.4922C 557.3711 491.0547 548.15234 494.27344 538.58203 496.14844C 529.0117 498.02734 520.02344 498.96484 511.61328 498.96484C 503.5625 498.96484 497.2578 496.95312 492.6953 492.9297C 488.1328 488.90625 484.8203 483.67578 482.76562 477.2422C 480.70703 470.8047 479.45312 463.875 479.01172 456.45703C 478.5586 449.03906 478.33984 441.9297 478.33984 435.1328C 478.33984 409.5664 478.875 387.3086 479.94922 368.35156C 481.02344 349.40234 493.76953 235.30469 495.7422 223.14453L495.7422 223.14453L487.10156 236.09766C 481.70312 255.52344 481.70312 260.92188 471.98047 322.4453C 469.8203 337.5547 467.33594 359.55078 466.26172 368.21875C 465.1875 376.89453 464.20312 387.17188 463.3086 399.0625C 462.41406 410.95312 461.65234 423.96094 461.03125 438.08594C 460.40234 452.21094 460.08984 466.6914 460.08984 481.53125C 460.08984 501.20312 463.17578 516.08594 469.34766 526.1875C 475.42188 536.1328 484.9297 541.16797 497.85547 541.3242C 497.96875 541.3281 498.07812 541.33984 498.1953 541.33984C 498.2578 541.33984 498.3203 541.33594 498.3828 541.33594C 498.41016 541.33594 498.4375 541.33984 498.46875 541.33984C 498.51562 541.33984 498.5703 541.33594 498.6211 541.33594C 511.86328 541.28516 523.66797 538.9219 534.01953 534.23047C 544.4883 529.4961 553.96875 523.14844 562.46875 515.1914C 570.96094 507.23438 578.97266 498.60938 586.4883 489.3086C 591.85547 482.51562 596.8594 475.67578 601.5156 468.79297C 606.16406 461.91016 610.72656 455.07422 615.2031 448.27344L615.2031 448.27344L614.66797 444.78906L603.66016 443.44922C 597.7578 442.73438 590.6875 441.70312 582.46094 440.36328C 574.23047 439.02344 566.1328 437.46094 558.1719 435.67188C 550.71875 434 544.41797 432.32422 539.2344 430.64844C 540.34766 428.8125 541.46875 426.9961 542.6094 425.21484C 544.66797 421.9961 546.9453 418.8672 549.4531 415.82812C 553.03125 411.53516 557.9961 406.89062 564.34766 401.8828C 570.6953 396.8789 578.5703 392.58594 587.96484 389.0078C 597.35547 385.4336 608.3125 383.64453 620.83984 383.64453C 623.34375 383.64453 625.9375 384.09375 628.6211 384.98438C 631.3047 385.8828 633.8086 387.04297 636.1367 388.47266C 638.9961 390.07812 641.5469 391.82422 643.78125 393.70312C 646.0117 395.57422 649.53516 396.51172 654.34766 396.51562C 654.3594 396.51562 654.3711 396.51953 654.3828 396.51953C 660.10547 396.51953 665.33984 395.67188 670.0781 393.97266C 674.8164 392.27344 679.78516 389.1914 684.97656 384.71875C 689.9844 380.60938 696.78125 372.47266 705.3711 360.3125C 708.9492 355.48438 711.6328 353.0703 713.4219 353.0703C 714.85547 353.0703 717.4492 354.14453 721.20703 356.28906C 724.96094 358.4336 729.34375 359.5078 734.35547 359.5078C 744.0156 359.5078 752.78125 352.98438 760.65234 339.9297C 762.4414 340.28906 764.09766 340.60156 765.6211 340.8711C 767.1367 341.13672 768.70703 341.26953 770.3164 341.26953C 788.9219 341.26953 802.16016 324.28906 810.03516 290.3164L810.03516 290.3164L802.2539 288.70703z" stroke="none" fill="#FFCE45" fill-rule="nonzero" />
</g>
</svg>