<?xml version="1.0" standalone="no"?>
<!DOCTYPE svg PUBLIC "-//W3C//DTD SVG 1.0//EN" "http://www.w3.org/TR/2001/REC-SVG-20010904/DTD/svg10.dtd">
<svg xmlns="http://www.w3.org/2000/svg" xmlns:xlink="http://www.w3.org/1999/xlink" id="body_1" width="1080" height="1080">

<g transform="matrix(1.3333334 0 0 1.3333334 0 0)">
    <path d="M405.58203 95.48828C 405.14844 95.03906 404.54297 94.484375 404.0703 93.984375C 404.0703 93.39453 404.36328 92.69922 404.0586 92.65625C 402.85938 92.49219 403.28516 93.16797 404.0703 93.984375L404.0703 93.984375L404.0664 94.00391C 404.09766 98.296875 403.8164 107.41016 404.0664 120.41797L404.0664 120.41797L403.92188 157.69531L400.33984 292.03125C 399.07422 302.26562 398.07812 313.1211 394.1211 322.53125C 392.07422 327.40234 388.89844 331.64453 384.16406 335.03516C 375.92578 341.82812 359.41406 349.5 352.6914 353.98047C 343.3672 360.1953 343.64844 368.92578 343.82812 369.25C 344.5703 371.35547 347.22656 375.58984 353.65234 378.7539C 362.82422 383.26172 383.72656 391.29688 398.48047 400.80078C 402.23047 403.21875 405.52734 405.71875 407.82812 408.375C 409.35547 410.14062 409.89844 412.03125 407.96094 413.98828C 397.46484 423.125 380.83203 431.4375 362.21484 439.6328C 351.6172 444.29688 340.4336 448.9453 328.96875 452.73438C 305.5703 460.47656 281.41797 464.6836 261.8164 463.85547C 256.69922 463.63672 251.90625 463.4453 247.6211 462.27344C 228.65625 457.59375 211.65625 438.59375 203.34375 417.39453C 198.08984 403.98438 196.48438 389.9453 199.14844 377.28125C 201.04688 368.2461 203.86719 359.7422 211.17188 352.6953C 213.07031 351.39844 213.5625 348.8047 212.26953 346.90625C 210.97656 345.0039 208.38281 344.51172 206.48438 345.8086C 194.32422 351.36328 186.03125 360.1797 180.90234 371.20312C 173.61328 386.875 174.90234 406.42188 179.69922 425.04688C 187.89453 456.85547 210.8789 485.40234 237.17578 495.51953C 244.00781 497.95312 251.6914 499.61328 260.04297 500.07812C 283.5625 501.39062 312.51172 494.2422 340.0547 483.41797C 352.5039 478.52734 364.8164 473.08594 375.92188 466.66016C 396.23047 454.91016 412.90625 441.2422 423.1914 428.92578C 433.35547 418.44922 433.01172 408.30078 426.97266 398.8125C 419.28125 386.71484 396.1914 375.51172 378.46875 367.60938C 386.08594 363.64844 394.1953 358.83984 399.64062 354.78516C 407.6875 347.89062 412.8125 339.72266 415.77734 330.5664C 419.52734 318.97266 420.04297 306.01172 420.5547 293.70312C 420.6328 292.16797 420.64062 289.96875 420.57812 287.1953C 430.77734 315.5703 448.10938 339.10547 475.1875 351.98438C 492.52734 359.91406 511.3711 360.76172 529.3164 356.3164C 546.1367 352.14453 562.1367 343.34766 574.9844 331.98047L574.9844 331.98047L587.1992 321.5664C 592.6914 328.15234 598.6328 333.94922 602.6406 337.1289C 601.10156 339.26172 599.625 341.4375 598.2422 343.66016C 595.66406 347.79688 593.6953 352.08594 591.64844 356.33984C 590.66797 358.53516 591.4492 370.91797 587.14453 370.4414C 583.59375 370.05078 585.91797 372 588.4375 373.17578L588.4375 373.17578L588.1719 373.29297C 587.40234 373.71875 587.125 374.6836 587.5469 375.44922C 587.6992 376.36328 588.52734 376.45312 588.8867 376.9297C 590.3672 378.89453 590.6758 379.03516 596 376.4297C 599.78516 374.57812 602.9453 366.53906 604.53125 364.8203L604.53125 364.8203L620.5117 346.04688C 629.8125 349.28125 639.77344 351.01562 649.97266 351.60547C 671.65234 352.86328 694.41406 348.66797 713.4375 344.13672C 730.72266 339.54297 758.7031 329.1914 776.41016 313.28125C 791.7031 299.54297 800.1133 282.14062 793.91797 261.4297C 791.95703 254.8711 788.3594 247.5664 783.52734 241.58203C 779.8711 237.05078 775.59375 233.20703 770.9414 230.6914C 753.3594 221.23047 731.8906 223.98047 710.16016 235.1914C 673.4883 254.11328 635.34766 296.39062 619.1367 316.32422L619.1367 316.32422L618.6133 316.0586C 615.9375 314.53516 611.6875 301.77734 606.0469 296.3711C 606.1211 295.10156 606.08203 293.77344 605.9375 292.3828C 606.46484 292.35156 605.84375 291.41797 605.8164 291.21875L605.8164 291.21875L605.9375 292.3828L605.9219 292.39062C 603.65625 292.45703 605.5 285.09375 604.7656 283.34375C 601 274.3672 594.33984 272.05078 589.58203 272.90234C 587.16797 273.33594 584.2344 273.32422 581.7578 275.53516C 576.5039 280.22656 573.3789 285.3125 572.875 291.23047C 571.23047 291.77734 571.4531 292.71875 572.83594 293.78906L572.83594 293.78906L572.85156 294.38672L572.8594 294.4375L570.78125 295.84375L554.83594 308.8789C 545.52734 316.89453 534.02344 323.07812 521.9492 325.9414C 510.8086 328.58594 499.1211 328.3125 488.41016 323.32812C 468.3789 314.35156 456.46484 296.54688 448.2539 276.02734C 434.51172 241.67578 430.97656 199.67578 427.26953 168.625L427.26953 168.625L423.40234 119.30078C 422.16797 106.48047 421.96094 97.4375 421.39453 93.22656C 421.01172 90.40234 420.70703 88.62109 420.2539 88.109375C 418.45312 86.08984 418.6328 84.35156 417.28906 84.296875C 413.59375 84.15625 411.57812 80.38281 409.5547 83.203125C 408.70703 84.38281 405.95703 83.55078 405.82812 86.02344L405.82812 86.02344L405.58203 95.48828zM640.8711 322.48047C 644.2422 322.89453 647.6719 323.10547 651.1172 323.1836C 670.03516 323.6172 689.7344 319.55078 706.21094 315.23438C 720.2969 311.9297 743.3828 304.69922 758.08203 292.25C 765.4297 286.02344 770.8867 278.4961 768.2578 268.70703C 767.4492 265.6797 766.02734 262.34375 764.0742 259.3789C 762.46484 256.9297 760.6289 254.59375 758.33984 253.26953C 743.9844 244.95312 725.5625 253 707.16406 264.5039C 681.1992 280.7461 655.9375 305.9297 640.8711 322.48047zM576.4922 292.72266C 576.1719 293.45312 575.8672 294.41406 575.97266 295.2539C 575.9453 295.03125 576.33203 293.83203 576.4922 292.72266zM576.5586 291.9297C 576.5703 291.22266 576.3906 290.69922 575.78125 290.7422C 574.4844 290.82812 573.52734 290.9922 572.875 291.23047L572.875 291.23047L572.8047 292.72656L572.83594 293.78906L573.1836 294.0586L573.3047 294.13672z" stroke="none" fill="#080706" fill-rule="nonzero" />
    <path d="M600.0469 193.90625C 602.9336 193.34375 600.8008 196.0039 603.8125 194.3164C 604.4219 193.97656 604.7617 193.16406 605.39453 192.48828C 611.6367 185.8125 627.1289 177.34766 644.4336 168.42969C 673.2031 153.59375 707.10547 138.38672 716.27734 134.92969L716.27734 134.92969L758.6406 121.92578C 761.21484 121.03906 762.58594 118.23047 761.6953 115.65625C 760.8164 113.08203 758 111.71094 755.4297 112.59766C 744.96484 114.71484 734.7031 112.75781 724.3789 113.73047C 719.2344 114.21094 714.2539 115.671875 709.34375 117.54297C 698.7617 122.02344 655.15625 142.4961 625.21875 161.9414C 611.0586 171.13672 599.7617 180.11719 595.83984 186.77344C 595.0664 188.08984 593.8164 189.29688 594.16406 190.45312C 595.3906 194.55469 593.70703 191.25 596.9414 193.22656C 596.7539 194.08203 597.3008 194.92969 598.14844 195.11719C 599.0078 195.30469 599.85156 194.76172 600.0469 193.90625z" stroke="none" fill="#080706" fill-rule="nonzero" />
    <path d="M324.11328 73.64453C 323.125 73.953125 322.52734 74.19531 321.21484 76.22656C 319.98438 78.13281 319.82422 81.75781 319.35547 86.29297C 317.23047 106.87109 316.9414 150.78516 319.8125 194.96484C 321.15625 215.6914 323.52734 236.42969 326.375 254.76953C 330.73047 282.8203 336.40234 304.9336 338.83984 314.05078C 339.0703 315.47656 340.41797 316.4453 341.83984 316.21094C 343.26562 315.98047 344.23438 314.63672 344.0039 313.21094C 343.83594 307.67188 344.48828 297.66406 344.3672 284.375C 344.20312 266.1953 343.64844 242.39844 342.11328 217.27344C 341.33594 204.4961 339.88672 191.44531 338.52734 178.64844C 334.63672 141.94922 330.77344 107.53125 329.29688 88.76953C 328.91016 83.87891 329.07812 80.109375 328.48438 77.74609C 328.04688 76.01953 326.8789 76.01953 326.8125 75.3125C 327.27344 74.56641 327.04297 73.58984 326.30078 73.12891C 325.5547 72.66797 324.57422 72.89844 324.11328 73.64453z" stroke="none" fill="#080706" fill-rule="nonzero" />
    <path d="M209.48828 240.42188C 208.36719 227.69531 206.38672 215.46484 204.34375 204.98047C 203.48828 200.1289 201.6875 194.33203 199.89844 188.28125L199.89844 188.28125L198.4336 176.94922L196.67188 163.77344C 196.125 162.48828 195.75 159.05078 195.44922 158.23828C 192.8086 151.09766 188.85938 147.14844 186.36719 159.20703C 185.42578 163.76953 185.67969 169.1289 186.4961 174.79297C 187.28906 180.25 188.66406 186.02344 189.97656 191.53906L189.97656 191.53906L191.47656 213.96875C 191.7539 218.97266 192.92578 229.39844 195.15625 242.02734C 195.20312 259.22656 193.39844 277.02734 187.3789 291.54297C 181.40234 305.96484 170.33203 316.07812 151.40625 316.69922C 147.05078 316.85547 145.6289 312.20312 143.20703 307.6836C 139.83984 301.39453 137.13281 293.45312 134.59766 284.77734C 125.671875 254.23438 120.38672 215.80078 117.82031 202.27734L117.82031 202.27734L114.45703 183.27734C 114.27734 180.54297 112.03516 178.39844 109.296875 178.33594C 106.55469 178.27344 104.21875 180.3086 103.91406 183.03516L103.91406 183.03516L102.69531 193.36719C 101.53516 202.52734 100.46484 208.83594 97.89453 214.41797C 95.421875 219.78516 91.37891 224.27734 84.6875 230.27734C 73.85156 240.25781 46.328125 251.1914 28.941406 265.03125C 17.765625 273.92578 10.773438 284.28906 10.308594 294.6836C 9.617188 312.52344 19.914062 322.53906 34.4375 326.89062C 41.08203 328.8828 48.703125 330.04297 56.191406 329.30078C 68.19141 328.10547 79.37891 323.4414 85.98828 318.79297C 88.51953 317.44922 89.48828 314.3047 88.14453 311.76953C 86.80078 309.23438 83.65625 308.26953 81.12109 309.61328C 75.00781 311.92578 65.38672 312.04297 55.628906 311.69922C 50.121094 311.5078 44.558594 311.28516 39.71875 309.75C 33.242188 307.70312 28.234375 303.5078 28.65625 295.51953C 28.929688 289.53516 34.304688 284.5703 40.59375 279.27344C 57.820312 264.76172 84.50781 251.47656 94.89844 240.7539C 97.94922 237.51562 100.47266 234.58594 102.55859 231.78906C 102.46484 235.66406 102.421875 239.7539 102.46094 243.98828C 102.65625 264.7461 104.13672 288.60547 110.21484 306.79688C 118.48828 331.5625 134.8789 345.70312 153.8164 343.11328C 183.14844 338.70703 198.8164 321.53516 205.80469 298.09375C 206.51953 295.6914 207.14062 293.22266 207.66797 290.6953C 210.61328 298.6875 214.00781 306.11328 217.8789 312.28125C 230.60938 332.55078 248.01562 340.1875 268.16016 327.10547C 276.02344 321.41406 280.91797 303.66406 278.79297 279.22266C 275.60547 242.57812 263.70703 188.64453 256.80078 153.60938C 254.02734 139.51953 251.49219 128.875 252.54297 123.17969C 252.80469 122.33594 252.33203 121.44141 251.49219 121.17969C 250.64844 120.91797 249.7539 121.390625 249.4961 122.234375C 247.625 126.265625 246.23828 133.30078 246.09766 142.71875C 245.57422 177.63672 258.14844 243.5625 258.10547 284.09766C 258.09766 291.55078 257.72656 298.04297 256.70312 303.15234C 256.2461 305.41797 256.35938 307.3711 255.22266 308.10547C 250.63281 311.30078 246.57812 310.90234 242.91016 308.11328C 237.6836 304.1328 232.80078 297.69922 228.51172 289.875C 220.34766 274.96875 213.88672 256.10156 209.48828 240.42188z" stroke="none" fill="#080706" fill-rule="nonzero" />
    <path d="M419.28125 58.60547C 418.91797 58.179688 417.79688 57.914062 417.26562 57.320312C 415.53906 55.378906 413.90625 52.83203 412.4297 50.117188C 408.46875 42.859375 405.44922 34.597656 404.14453 31.691406L404.14453 31.691406L403.0703 27.171875C 402.65234 23.90625 399.91797 21.429688 396.6289 21.328125C 393.33594 21.230469 390.46484 23.539062 389.85156 26.777344L389.85156 26.777344L388.75 33.51172C 387.95312 38.3125 384.52734 48.890625 379.20703 55.54297C 376.72266 58.64453 373.9922 61.347656 370.51953 59.51172C 366.14062 57.1875 363.16016 53.757812 361.0703 49.83203C 357.54297 43.195312 356.26953 35.234375 357.10547 27.511719C 356.6914 26.007812 356.71484 23.460938 355.69922 23.210938C 355.1172 23.066406 354.3789 22.191406 353.41406 23.144531C 352.64844 23.402344 352.20703 24.1875 352.3672 24.960938C 352.1328 25.203125 351.41016 25.972656 351.10938 26.371094C 348.94922 33.933594 348.29297 42.085938 350.16797 49.51172C 352.1953 57.539062 357.3047 64.40234 365.19922 69.04297C 371.98828 73.03906 378.4414 71.50781 384.17188 66.99609C 389.13672 63.08203 393.40234 56.32422 396.5 49.828125C 399.4336 56.867188 403.33984 64.79297 407.69922 69.17578C 412.23047 73.73828 417.42188 75.21484 422.51172 73.89453C 432.4922 71.30469 438.3672 64.90625 441.91016 56.726562C 446.25 46.70703 447.01562 33.285156 446.4922 21.871094C 446.27344 17.148438 445.38672 12.953125 445.67578 9.585938C 446.4453 5.550781 443.78906 1.65625 439.76172 0.890625C 435.72656 0.128906 431.83203 2.78125 431.0664 6.8125C 429.78125 11.296875 428.9453 17.292969 428.7578 23.941406C 428.5664 30.988281 429.33984 38.76172 428.03516 45.617188C 426.96094 51.273438 424.89062 56.40625 419.28125 58.60547z" stroke="none" fill="#080706" fill-rule="nonzero" />
    <path d="M213.59766 123.63672C 211.28516 123.265625 209.4336 119.36719 207.16797 116.47656C 204.51562 113.08984 202.35547 109.58203 201.38281 107.59375C 200.3125 105.453125 199.32422 100.578125 198.1836 98.67578C 196.75 96.27344 194.8789 95.046875 193.29688 94.48828C 190.36328 93.453125 186.58984 93.16406 183.23047 97.64453C 178.66406 103.73828 177.26172 119.46484 172.44531 129.50781C 171.52344 131.4336 170.80469 133.39062 168.84375 133.51953C 165.50781 133.78516 164.51172 130.61328 163.48438 127.39453C 161.39844 120.85156 161.40234 112.66016 160.65625 106.76953C 160.33594 104.26953 159.48047 102.66016 159.19922 101.09375L159.19922 101.09375L157.83594 98.82422C 158.71094 98.875 159.46484 98.21094 159.51953 97.33594C 159.57422 96.46094 158.90625 95.70703 158.03125 95.65234C 156.69531 95.08984 155.97656 95.87109 155.20312 96.33984C 154.21484 96.9375 153.99219 98.48047 153.14453 99.94531C 152.17578 101.64844 150.85547 103.64453 149.91797 106.72266C 147.29297 115.375 147.64453 128.42578 151.16016 136.96484C 154.36328 144.75 160.63281 149.34766 169.73047 148.89453C 175.35547 148.61328 179.72656 145.95703 183.16016 141.66016C 186.97656 136.88281 188.94922 128.89062 190.82812 121.59766C 193.76172 125.97266 197.73438 131.01562 201.84375 134.45703C 206.6914 138.52344 211.95703 140.3789 216.4375 139.76562C 223.39453 138.82031 230.04297 130.66016 233.09766 118.00391C 234.83203 110.828125 236.28906 102.28906 236.51953 94.3125C 236.8164 83.89453 235.51953 74.71875 235.23438 71.140625C 235.30469 67.953125 232.77734 65.30469 229.58594 65.234375C 226.39844 65.16406 223.7539 67.69531 223.6836 70.88672C 223.25781 76.05469 221.53906 93.68359 218.53906 108.36328C 217.53516 113.28906 216.57812 117.89844 215.01172 121.31641C 214.64062 122.11719 213.96484 123.12109 213.59766 123.63672z" stroke="none" fill="#080706" fill-rule="nonzero" />
    <path d="M505.09375 343.4336L504.76562 420.98438C 505.03906 440.58984 509.5 463.34375 509.45312 485.32812C 509.42188 498.82812 507.35547 511.89453 502.05078 523.4453C 500.21875 527.5625 494.52734 527.8906 489.3047 528.2422C 483.28516 528.64844 476.72266 528.3633 473.44922 525.1133C 470.8789 522.5547 469.34375 519.58984 468.33594 516.4219C 464.3711 504.03516 464.67578 490.07422 457.33984 479.84375C 453.38672 474.32812 448.97266 474.4375 445.48828 475.73828C 443.73828 476.39062 441.5547 477.66797 439.8789 480.3672C 438.8164 482.09766 437.8203 486.5586 436.5586 488.34375L436.5586 488.34375L424.59375 506.0547C 417.3711 514.6172 409.9297 520.7344 401.65625 525.53906C 393.10938 530.5 383.66406 534.0078 372.71875 537.3672L372.71875 537.3672L336.01562 542.4453C 305.48828 549.4844 286.78516 553.22266 268.40625 553.0039C 249.7461 552.78125 231.46484 548.5039 201.46875 539.9531C 193.79688 537.33594 185.25 535.6836 177.41797 532.5469C 173.41797 530.9531 169.80469 528.7031 166.66016 525.71875C 162.61719 521.9219 159.52344 517.4922 156.33203 513.1406C 148.54297 502.51172 142.28125 490.67578 137.94922 477.5C 127.94531 447.08203 124.80469 412.33594 117.41797 384.3672C 116.98828 382.85938 114.79297 371.3047 112.62891 367.22656C 110.8125 363.80078 108.35156 362.35938 106.58203 362.1289C 102.43359 361.59375 100.046875 363.01172 98.6875 365.0586C 97.61719 366.66797 96.57031 369.52734 97.66797 373.16797C 98.515625 375.98438 100.953125 380.14062 101.359375 382.65625C 101.67578 384.71875 102.109375 386.875 102.52344 389.07422L102.52344 389.07422L103.375 394.21484L103.484375 394.98438C 103.859375 397.9336 103.98047 400.88672 103.53516 403.71484C 102.953125 407.4375 101.08594 410.73047 97.79297 413.3047C 93.35156 416.4414 86.77734 418.86328 79.63672 422.1289C 64.38672 429.10156 46.38672 437.89453 34.80078 448.73828C 24.445312 458.4297 19.074219 470.0664 22.207031 483.7578C 25.773438 499.33203 36.015625 505.08594 49.183594 505.26562C 64.91797 505.48047 86.61719 497.25 100.28516 489.4375C 104.82031 486.84375 107.84766 483.95312 110.30469 482.71484C 112.96875 481.96094 114.515625 479.1836 113.76172 476.52344C 113.00781 473.85938 110.23047 472.3086 107.57031 473.0625C 103.91406 473.52734 97.9375 474.77344 90.90234 477.27344C 80.62109 480.92188 68.234375 487.1328 56.976562 489.02344C 48.0625 490.51953 39.92578 489.88672 37.882812 480.29297C 36.214844 472.46094 40.285156 466.32812 46.13672 460.75C 56.660156 450.72266 73.36719 443.16797 86.546875 435.27734C 94.18359 430.70312 100.54297 425.9453 104.82422 421.5078C 105.41797 420.94922 105.97266 420.3789 106.48828 419.79297C 109.28516 446.60156 111.66797 475.4336 120.44141 500.41797C 124.07422 510.76953 128.47266 520.71094 134.96484 529.1758C 139.44531 535.01953 144.9414 540 151.02734 544.4883C 155.51562 547.7656 160.32031 550.28125 165.48828 552.09766C 175.27344 555.53906 186.04297 556.8281 195.77734 559.2383C 228.03906 569.09766 247.77344 573.83984 267.94922 574.45703C 287.71875 575.0586 307.9453 571.6289 340.92188 564.65234L340.92188 564.65234L379.35156 557.9375C 391.85156 553.71094 402.57422 549.2422 412.26562 543.2422C 422.26172 537.0547 431.23438 529.3164 439.8203 518.53906L439.8203 518.53906L446.41797 508.2539C 446.89062 512.9414 447.2578 517.71875 448.46094 522.2461C 450.16406 528.64453 453.0664 534.6172 457.92578 539.96484C 465.76562 548.5703 483.04297 553.3711 497.6289 550.1836C 508.9336 547.71484 518.1719 540.9375 521.53516 531.33594C 525.4219 520.3008 526.7969 508.47656 526.9375 496.2422C 526.97266 492.97266 526.91797 489.67188 526.78516 486.35156C 538.1289 519.7461 555.33594 546.29297 580.1719 559.65234C 606.72266 574.16016 633.9531 577.14844 659.8047 570.9531C 684.21094 565.10156 707.0508 550.8828 727.3047 533.39844L727.3047 533.39844L758.16406 502.14453C 758.46484 501.78125 764.0703 493.33203 766.22656 489.9375C 766.95703 488.78906 767.5117 487.97266 767.6875 487.5703C 770.77734 480.5586 765.1367 477.83203 762.54297 477.375C 761.72266 477.23438 757.89453 477.51172 753.83594 481.02344C 752.0117 481.10547 749.28906 484.66406 747.60547 487.08984L747.60547 487.08984L744.4531 490.2578L709.5742 511.23047C 705.5547 514.27344 701.4219 517.1406 697.21094 519.7969C 692.875 521.03516 688.46484 521.9453 684.03516 522.48047C 669.3281 524.2578 654.46484 521.5625 641.2344 512.91406C 635.02734 508.3711 633.26953 502.58594 633.1133 496.66797C 632.84375 486.59766 638.45703 475.5703 647.0742 465.97266C 661.2422 450.1875 682.85156 437.57812 700.96875 442.89062C 703.7617 443.61328 705.59375 444.8789 707.3867 446.04688C 711.26953 448.5703 714.2031 452.14062 718.9258 452.16406C 723.3594 452.1875 720.5742 452.0625 724.6875 449.88672C 725.40625 450.39062 726.39453 450.21484 726.89453 449.4961C 727.39844 448.77734 727.22266 447.78906 726.5039 447.28516C 726.8125 443.14844 728.41797 445.10938 727.7461 441.23828C 726.8711 436.22656 724.4883 432.5664 721.22266 428.65625C 718.2461 425.09375 713.5469 422.89844 707.6836 421.01562C 677.0625 411.17188 636.71094 433.95703 618.1875 462.6953C 610.64844 474.40234 606.2461 487.03906 607.5586 498.46094C 609.01953 511.20703 616.0039 522.90625 631.0742 530.0156C 638.65234 534.08594 646.46875 536.7461 654.3828 538.16406C 649.77734 539.22266 645.1367 539.97656 640.46875 540.41016C 625.3672 541.8125 609.85156 540.09766 594.2969 532.4297C 566.6992 518.46875 552.3789 482.5 543.7461 441.5625C 530.6328 379.39844 532.34766 305.40625 531.5547 264.2422C 530.03906 239.19922 525.7578 214.08984 523.9258 188.91406C 523.16797 178.55469 522.8008 168.21875 523.3086 157.8711L523.3086 157.8711L522.5117 139.0625L522.2578 139.09766L522.35547 137.80078C 521.40625 133.02734 516.9219 129.80078 512.08984 130.41797C 507.26562 131.03516 503.7422 135.28906 504.02344 140.14844L504.02344 140.14844L503.57812 156.13281C 502.16406 167.25 501.6875 178.42578 501.6211 189.65625C 501.46484 214.71875 503.66797 239.91016 503.16797 264.8125C 503.58984 285.03516 503.6875 312.8711 505.09375 343.4336z" stroke="none" fill="#080706" fill-rule="nonzero" />
    <path d="M462.27344 128.14453C 464.10547 126.54297 468.10547 125.84375 473.27344 123.18359C 478.0703 120.71875 483.59766 117.265625 489.8164 113.58594C 511.03516 101.03516 539.2969 85.9375 555.53516 79.14453C 558.4453 77.92578 560.7656 76.97266 562.40625 76.02344C 563.53125 75.375 562.27344 74.21094 563.08594 73.6875C 566.40625 74.32031 569.6172 72.13281 570.2461 68.80859C 570.8711 65.484375 568.6875 62.273438 565.3672 61.64453C 564.25 60.070312 563.60156 60.09375 561.1836 59.132812C 558.35547 58.003906 554.0625 59.30078 549.16797 60.589844C 537.1836 63.753906 519.96484 72.44922 503.52344 82.27344C 489.92578 90.40234 476.42578 99.00781 467.8125 107.34766C 460.65625 114.26953 456.9414 120.43359 455.71875 123.94531C 454.5586 125.75781 455.08984 128.16406 456.90234 129.32422C 458.70703 130.48047 461.11328 129.95312 462.27344 128.14453z" stroke="none" fill="#080706" fill-rule="nonzero" />
    <path d="M580.95703 437.0547C 584.59766 436.10938 588.03906 436.23828 592.4219 434.52734C 599.2656 431.85547 606.34766 426.86328 614.46484 422.26172C 636.8711 409.5547 664.23047 394.0664 689.6758 384.67578C 708.47656 377.73828 725.83984 373.5039 738.46484 375.48438C 740.54297 375.8789 742.5508 374.5078 742.9453 372.4297C 743.33594 370.35156 741.97266 368.34375 739.89453 367.94922C 719.2578 363.32812 685.39453 372.6797 652.7617 386.32812C 641.6992 390.94922 630.66797 395.79688 620.6328 401.25C 609.2539 407.4375 598.9336 413.9414 590.6328 420.15234C 588.6211 421.65625 586.6133 422.98828 585.10156 424.71094C 582.0664 428.1836 580.8711 431.30078 579.02734 434.52734C 578.33594 435.0586 578.2031 436.0547 578.7344 436.7539C 579.2656 437.44922 580.2617 437.58203 580.95703 437.0547z" stroke="none" fill="#080706" fill-rule="nonzero" />
    <path d="M739.4492 638.6797C 742.7461 649.4492 742.6719 663.08203 737.3789 679.3633C 730.3633 700.22266 717.21094 716.5117 700.64453 728.39453C 683.8594 740.4219 663.52734 747.875 642.2422 750.8594C 629.8164 753.14844 617.4883 755.1797 605.16406 754.9531C 597.79297 754.8203 590.4219 754.0742 583.03125 751.6914C 582.8203 751.40234 582.46484 751.2461 581.8867 751.33203L581.8867 751.33203L583.03125 751.6914C 583.60547 752.3711 583.3281 753.78906 583.6953 753.98047C 585.5547 754.96094 583.9375 756.89453 584.5117 758.39844C 584.96875 759.59766 583.08203 760.0156 582.90625 761.59375C 582.8203 762.3594 582.08984 763.0664 580.6758 762.6836C 577.96484 761.9531 580.3086 762.78125 580.8242 758.02344C 581.66016 757.7617 582.1328 756.8828 581.8789 756.04297C 581.625 755.2031 580.7383 754.72656 579.89844 754.9844C 575.4414 750.08594 576.73047 752.54297 574.35156 752.1094C 572.7617 751.8242 573.0586 754.10156 572.1406 754.79297C 570.5703 755.96875 570.9883 757.8047 576.4219 764.8164C 585.47266 769.08203 594.6953 771.3711 604.0781 772.3711C 617.60156 773.8203 631.3711 772.3125 645.21875 770.6953C 669.58203 766.78125 692.7539 757.71484 711.70703 743.46875C 730.9219 729.01953 745.8906 709.375 753.53906 684.5742C 766.7422 643.16797 752.1211 615.70703 731.96875 602.26953C 702.03906 582.3008 659.41797 592.8086 658.7422 634.16797C 658.25 662.8867 683.8789 673.03906 708.14844 665.35156C 721.1914 661.21484 734.8789 652.2344 739.4492 638.6797zM730.5117 622.64453C 728.21094 620.0781 725.6289 617.875 722.84375 616.04297C 704.1719 603.7461 676.65625 608.59766 676.6953 634.3008C 676.72266 648.5664 690.53125 650.65625 702.6914 647.1914C 711.7617 644.6133 719.83984 638.65234 725.3203 630.35156C 727.0547 627.73047 729.02734 625.4414 730.5117 622.64453z" stroke="none" fill="#080706" fill-rule="nonzero" />
    <path d="M274.97656 354.2461C 273.35547 355.1172 271.58984 356.84375 269.78125 359.875C 267.85938 363.10156 267.7539 369.45703 267.2422 375.59766C 266.70703 382 267.1836 388.3828 267.33594 391.8789L267.33594 391.8789L269.1172 465.28125C 270.73047 479.9375 271.10156 504.4961 274.3125 532.1406C 275.82422 545.1875 278.96484 558.64453 280.97656 572.4453C 284.01562 593.28906 286.26562 614.4258 289.9336 633.35547C 296.72656 668.3828 307.3125 696.1914 320.71875 705.8047C 342.97266 721.71875 377.5664 727.3789 408.0703 720.1367C 428.60156 715.2578 447.03516 704.89453 458.78906 689.7617L458.78906 689.7617L459.14062 690.64453C 461.3672 695.9375 464.71484 700.66016 468.5547 704.7461C 474.88672 711.52344 485.46875 715.41406 497.33984 716.03516C 510.98438 716.75 526.0625 712.8164 535.3281 710.84766C 544.4531 708.41406 551.58203 702.7422 556.52734 694.2578C 559.60547 688.96094 561.9297 682.6953 563.6992 676.27734C 565.33594 683.9961 567.83594 691.5742 571.5117 697.60156C 579.1914 710.16406 591.3711 716.6211 609.8086 709.7656C 622.70703 704.1211 631.0625 685.41016 632.98047 665.78516C 634.4375 650.90625 633.2578 635.6719 628.9297 627.98047C 626.8711 624.3203 624.72656 621.15234 621.97656 620.78125C 620.8594 620.6289 620.35547 619.875 619.47656 620.4844C 615.5703 623.1719 617.52344 619.4258 615.96875 623.9922C 615.09375 624.0156 614.39844 624.7461 614.4258 625.625C 614.4531 626.5039 615.1875 627.1953 616.0625 627.16406C 617.7969 629.2344 613.9492 628.8711 614.65625 631.9531C 614.8633 632.8594 614.8867 633.9414 615.22656 635.25C 617.4219 643.6953 617.9336 658.39453 615.02734 671.5664C 612.85156 681.3867 609.6094 690.66406 602.8906 693.4219C 594.2383 697.5547 588.0742 695.0039 583.7578 689.27344C 574.7656 677.33984 571.375 656.7031 570.47266 645.97656L570.47266 645.97656L570.39453 635.97656C 570.5156 633.6094 568.77734 631.5469 566.4219 631.26953C 564.0664 630.9922 561.89453 632.58203 561.4531 634.91406L561.4531 634.91406L559.16406 644.02734C 556.71875 653.40625 553.1094 668.72656 546.1172 680.1406C 542.59766 685.89844 538.0156 690.26953 531.8594 690.78906C 524.76953 691.72656 513.9453 692.7422 503.41406 693.1289C 495.07812 693.4297 486.7461 694.4375 481.84766 690.3633C 479.16797 688.21875 476.67578 685.6992 474.8789 682.6836C 473.07422 679.66016 471.61328 676.41016 471.10547 672.96094L471.10547 672.96094L470.58984 664.9414L470.94922 663.28516L471.02734 662.8281C 471.34766 661.8906 471.66406 660.9258 471.39844 660.70703L471.39844 660.70703L471.45312 660.3828L471.39062 660.70703L471.32422 660.66406C 467.53125 659.625 464.21094 659.28125 461.3125 659.45703C 459.3203 657.35547 457.84766 655.35156 457.84766 655.35156C 457.84766 655.35156 457.4375 656.09375 457.20312 657.14844L457.20312 657.14844L457.08984 657.72266L456.53125 659.8789L456.3828 660.35156C 445.8164 663.72266 443.23047 675.2617 444.71094 679.71484C 434.4336 689.97656 419.4375 696.21484 403.5664 699.3164C 378.7539 704.1797 350.96484 701.3906 333 688.59375C 319.20703 678.78906 312.13672 644.58594 306.33984 606.08594C 304.67188 594.9844 302.94922 583.53906 301.9961 572.0508C 300.52344 554.27344 300.97656 536.53906 299.9961 520.29297C 298.53516 496.17578 296.01172 475.3828 294.3125 462.28125L294.3125 462.28125L290.6289 390.53516C 290.3086 386.7422 290.5625 379.26953 289.83203 372.3789C 289.30078 367.3711 289.17188 362.52344 287.5586 359.8711C 281.6797 350.21875 276.72656 352.33984 274.97656 354.2461zM457.08203 657.7344L456.4375 660.33203L456.5703 660.2969L456.58594 660.1875z" stroke="none" fill="#080706" fill-rule="nonzero" />
    <path d="M202.84375 647.6367C 202.03906 646.7617 201.10547 646.1289 200.23438 645.6758C 198.27734 644.65234 191.3789 643.28125 186.23047 650.1914C 182.08594 655.7539 174.35156 670.4258 171.9336 675.0625C 159.91797 691.4961 144.36719 710.8047 137.44531 717.03125C 125.78125 727.6914 112.15234 734.78125 97.93359 740.3203C 83.35156 745.9961 68.09375 750.2383 52.027344 751.41406C 47.210938 751.46875 43.347656 755.4336 43.40625 760.25C 43.464844 765.0703 47.42578 768.9375 52.242188 768.875C 70.68359 769.7617 88.99219 768.2539 105.99219 762.52734C 123.36328 756.6758 139 746.41406 152.65234 733.22266C 156.10938 729.8281 161.59766 723.0586 167.72266 714.91406C 168.34766 716.21484 169.0664 717.46094 169.85938 718.65234C 179.15234 732.6133 200.89844 740.0742 225.59375 738.39453C 255.79297 736.34766 263.21875 718.22266 259.92188 697.90625C 258.83984 691.2422 256.3711 684.2969 253.0586 677.6719C 255.14844 677.14844 257.1914 676.5078 259.19922 675.77734C 270.64844 671.58984 280.75 664.35547 290.375 656.3281C 291.27734 655.5742 292.48828 655.0703 293.0664 654.0469C 294.6289 651.2656 293.72266 650.22656 294.21484 647.08203C 294.89844 646.53125 295.0078 645.53125 294.46094 644.84766C 293.91406 644.16406 292.91406 644.0508 292.22656 644.59766C 289.07422 644.39453 288.29297 643.21094 285.2578 644.0742C 271.13672 648.1133 261.17188 660.4961 246.86328 663.0078L246.86328 663.0078L244.28906 663.3828C 238.3164 655.2969 231.5039 648.7539 225.33984 645.4453C 216.35938 640.6211 208.32031 641.4297 202.84375 647.6367zM201.01953 666.77734C 199.91016 669.2578 197.78906 672.15234 195.5 674.8867C 191.92188 680.5664 187.51562 687.1836 182.83984 693.91797C 180.49219 702.5078 182.57812 709.1211 188.26953 713.6211C 196.48438 720.1172 209.9414 722.5703 224.52734 721.6992C 240.83594 720.71484 245.47266 711.4453 243.76953 700.46484C 242.69922 693.5703 239.75781 686.2422 235.89844 679.625C 228.40234 679.46484 220.38281 678 211.72266 674.9414C 207.21484 673.35547 203.375 670.3633 201.01953 666.77734zM220.23438 661.1289C 219.10547 660.28516 217.98828 659.59766 216.89453 659.08203C 215.94531 658.6367 215.20312 657.6094 214.6211 658.3047L214.6211 658.3047L217.01953 660.0664C 218.10547 660.4531 219.17188 660.8086 220.23438 661.1289z" stroke="none" fill="#080706" fill-rule="nonzero" />
    <path d="M188.52734 596.5117C 188.46484 596.1758 187.6875 596.1328 186.83203 596.2344C 182.3789 596.77344 172.59375 600.4492 156.51172 607.02734C 145.60938 611.96094 135.1289 617.4219 125.21875 623.77344C 110.76172 633.03906 97.41016 643.7617 82.71875 653C 79.36719 655.35547 71.75781 665.75 68.6875 665.08594C 67.87109 664.0547 67.23047 663.21875 67.76953 664.3125C 67.99609 664.7656 68.30469 665.0117 68.6875 665.08594C 69.27344 665.83594 69.94922 666.6875 70.33203 667C 70.99609 667.53906 69.671875 666.65625 68.94922 667.6953C 68.53516 668.29297 68.59766 667.78125 67.93359 667.20703C 68.12891 666.34766 67.58984 665.4961 66.734375 665.3086C 65.88281 665.1172 65.03125 665.64844 64.83594 666.5039C 59.73047 669.34375 63.554688 670.91406 65.796875 673.0469C 66.6875 673.8906 68.703125 673.41016 70.94922 672.8242C 75.703125 671.5781 84.57031 666.26953 89.078125 664.3008C 97.08203 660.53125 104.94531 656.7383 112.52344 652.33594C 129.58594 642.4258 145.58594 630.98047 163.76562 622.5508C 178.44922 614.78906 187.9961 611.7617 191.60156 609.4414C 193.94531 607.9414 194.91797 607.10547 195.20312 606.59375C 197.33203 602.78906 198.44531 600.9258 196.9961 599.46484C 196.1836 598.6367 196.14062 596.8008 194.34766 596.5742C 193.80469 596.5078 192.75781 595.3828 190.84375 596.0703C 190.02344 596.0469 189.23438 596.1992 188.52734 596.5117zM185.78516 599.0078C 185.2539 599.58594 185.08984 600.21484 185.15234 600.8672C 185.2461 600.1953 185.45703 599.5703 185.78516 599.0078z" stroke="none" fill="#080706" fill-rule="nonzero" />
    <path d="M92.43359 551.70703C 91.13672 551.8867 91.25781 551.2539 90.06641 551.84375C 89.16406 552.28906 88.60156 553.1914 87.84375 553.91406C 79.23828 562.1836 63.86328 567.0625 50.89453 573.8711C 43.640625 577.6797 37.621094 582.4336 32.890625 586.5469C 30.433594 588.27344 29.839844 591.66797 31.566406 594.1289C 33.29297 596.58594 36.6875 597.1758 39.14453 595.4492C 43.890625 592.8281 50.210938 591.1133 56.539062 588.0469C 65.47656 583.70703 74.41016 577.71094 82 571.6953C 88.01172 566.9297 95.08203 562.5586 95.91016 556.3789C 96.12109 554.8164 95.6875 554.70703 95.21484 553.2344C 95.63672 552.46484 95.35547 551.5 94.58984 551.0781C 93.82031 550.65234 92.85547 550.9375 92.43359 551.70703z" stroke="none" fill="#080706" fill-rule="nonzero" />
    <path d="M370.1836 627.83203C 371.98438 629.8008 374.125 631.40234 375.91797 632.0664C 379.6797 633.46094 385.19922 632.5039 390.28906 622.9375L390.28906 622.9375L391.86328 611.3594C 389.92578 600.46875 371.83984 598.7656 364.4297 607.59375C 359.6875 613.2422 358.22266 619.8633 362.3672 623.53516C 364.22266 625.1758 365.79688 628.0586 370.1836 627.83203zM378.54297 620.1211C 379.3828 620.8203 380 620.9414 379.8125 619.85547C 379.7461 619.45703 379.10547 619.6914 378.54297 620.1211zM379.28516 618.8164C 379.7539 619.1797 380.21094 619.3281 380.4453 618.9922C 381.03125 618.1328 380.39844 618.4492 379.28516 618.8164zM374.58594 615.41016L374.58203 615.4219C 374.60156 615.5742 374.58984 615.7383 374.55078 615.89453L374.55078 615.89453L374.5 616.0508L374.9922 616.2383L375.125 616.3086L375.2539 616.1953L375.26953 616.1914L375.14453 615.53906L375.41016 616.10547L376.03906 615.75C 375.71484 615.4844 374.8711 615.3906 374.75 615.2461z" stroke="none" fill="#080706" fill-rule="nonzero" />
    <path d="M418.96094 603.97656C 418.4414 604.83594 417.9453 605.8008 417.44922 606.7617C 415.34375 610.875 415.5547 616.1367 416.92578 619.6914C 418.75 624.41016 423.39062 628.64453 434.47656 626.0625C 447.33594 622.8281 447.33594 614.8203 444.5 608.53906C 442.4336 603.96094 436.46484 597.34766 430.21484 597.4492C 428.02344 597.4844 426.79688 597.60156 425.19922 598.65234C 422.04688 598.65234 419.4297 600.95703 418.96094 603.97656zM429.3711 614.6719C 429.39844 615.33984 429.6172 615.7383 430.07422 615.4961C 430.5703 615.2422 430.13672 614.96875 429.3711 614.6719zM429.4414 613.4219L429.375 613.8047C 429.55078 614.0156 429.78516 614.1133 430.08203 614.0742C 430.66797 613.9922 430.11328 613.7969 429.4414 613.4219zM430.02734 611.2969L430.2461 611.2539C 430.73828 611.09375 431.57812 610.9531 431.375 610.6797C 430.89062 610.0469 430.40234 610.47656 430.02734 611.2969z" stroke="none" fill="#080706" fill-rule="nonzero" />
    <path d="M498.58984 620.21875C 497.78125 620.4531 497.27344 620.8086 498.03906 621.28125L498.03906 621.28125L498.0547 621.28125C 497.41406 622.04297 497.0586 623.03906 497.1172 624.10156C 497.23828 626.3789 499.1875 628.1289 501.45703 628.0078C 501.7539 628.0078 503.95703 627.3867 505.76172 624.6992C 507.41016 622.2344 510.97266 616.5469 513.6719 614.2031C 520.10156 608.6211 526.2383 603.4414 532.4375 598.58984C 537.04297 594.9961 541.96875 592.1094 546.7656 588.8008C 551.52344 585.5156 555.66406 581.6836 561.35156 578.83984C 563.1328 578.33984 564.1758 576.4844 563.6758 574.6992C 563.16797 572.91016 561.3164 571.8711 559.52734 572.3711C 550.0078 573.6211 541.59766 575.7969 534.1836 580.2969C 523.5625 586.7344 515.8047 596.96094 506.57812 606.9414C 503.76562 610.04297 500.25 616.97656 498.58984 620.21875zM498.2539 621.0469C 498.9453 620.3008 499.91797 619.8203 501.01562 619.7578C 500.82422 619.78125 499.51562 619.9219 498.58984 620.21875L498.58984 620.21875L498.48828 620.41016C 498.38672 620.6094 498.3203 620.8633 498.2539 621.0469L498.2539 621.0469L498.16797 621.125L498.0547 621.28125L498.10547 621.29297C 498.125 621.27344 498.14453 621.2578 498.16016 621.2461z" stroke="none" fill="#080706" fill-rule="nonzero" />
    <path d="M291.1953 809.4844C 293.48828 809.22656 295.53516 809.48047 297.82422 809.02734C 315.97266 805.4375 335.3047 800.8125 354.52734 796.40234C 363.90234 794.2539 373.07422 791.53516 381.67188 787.5078C 391.28906 783.15234 400.8164 776.0508 411.05078 771.95703C 415.1211 770.33203 419.3125 769.21484 423.6875 769.0586C 425.22266 769.0039 426.59766 769.40234 427.89062 770.02344C 435.48438 773.66016 441.13672 782.9414 449.48047 784.3242C 454.32812 785.1328 459.35156 784.1875 464.35156 782.1914C 473.4922 778.5508 482.5625 771.1172 490.6914 768.7969C 495.35938 767.3711 503.1953 770.71875 510.51953 771.5703C 514.34766 772.0156 517.9531 771.8672 521.01953 771.0508C 522.45703 770.85547 523.47266 769.53516 523.27734 768.08984C 523.08594 766.64844 521.7617 765.6367 520.3203 765.83203C 513.27344 766.3281 503.77734 761.59375 496.34375 760.3125C 493.32422 759.79297 490.58594 759.8828 488.35156 760.46875C 479.9453 762.8047 470.41797 770.125 461.03125 773.97266C 457.5703 775.3867 454.15234 776.3633 450.77344 775.89453C 443.17188 774.8242 438.1914 765.9844 431.21875 762.84766C 428.77734 761.7539 426.17578 761.1406 423.3125 761.3086C 418.0664 761.6211 413.0625 763.03125 408.21875 765.09375C 397.96875 769.46875 388.47656 776.8281 378.84766 781.4453C 356.61328 791.6875 330.39844 792.6758 307.27344 798.58594C 302.8828 799.7031 298.29297 800.34766 294.48828 802.5703C 292.6211 803.66406 291.47266 805.10156 289.91797 806.58203C 289.1172 806.9297 288.75 807.8672 289.10547 808.6719C 289.45703 809.47266 290.39453 809.84375 291.1953 809.4844z" stroke="none" fill="#080706" fill-rule="nonzero" />
</g>
</svg>