<svg xmlns="http://www.w3.org/2000/svg" xmlns:xlink="http://www.w3.org/1999/xlink" width="1080" zoomAndPan="magnify" viewBox="0 0 810 809.999993" height="1080" preserveAspectRatio="xMidYMid meet" version="1.0"><path fill="#080706" d="M 405.582031 95.488281 C 405.148438 95.039062 404.542969 94.484375 404.070312 93.984375 C 404.070312 93.394531 404.363281 92.699219 404.058594 92.65625 C 402.859375 92.492188 403.285156 93.167969 404.070312 93.984375 L 404.066406 94.003906 C 404.097656 98.296875 403.816406 107.410156 404.066406 120.417969 L 403.921875 157.695312 L 400.339844 292.03125 C 399.074219 302.265625 398.078125 313.121094 394.121094 322.53125 C 392.074219 327.402344 388.898438 331.644531 384.164062 335.035156 C 375.925781 341.828125 359.414062 349.5 352.691406 353.980469 C 343.367188 360.195312 343.648438 368.925781 343.828125 369.25 C 344.570312 371.355469 347.226562 375.589844 353.652344 378.753906 C 362.824219 383.261719 383.726562 391.296875 398.480469 400.800781 C 402.230469 403.21875 405.527344 405.71875 407.828125 408.375 C 409.355469 410.140625 409.898438 412.03125 407.960938 413.988281 C 397.464844 423.125 380.832031 431.4375 362.214844 439.632812 C 351.617188 444.296875 340.433594 448.945312 328.96875 452.734375 C 305.570312 460.476562 281.417969 464.683594 261.816406 463.855469 C 256.699219 463.636719 251.90625 463.445312 247.621094 462.273438 C 228.65625 457.59375 211.65625 438.59375 203.34375 417.394531 C 198.089844 403.984375 196.484375 389.945312 199.148438 377.28125 C 201.046875 368.246094 203.867188 359.742188 211.171875 352.695312 C 213.070312 351.398438 213.5625 348.804688 212.269531 346.90625 C 210.976562 345.003906 208.382812 344.511719 206.484375 345.808594 C 194.324219 351.363281 186.03125 360.179688 180.902344 371.203125 C 173.613281 386.875 174.902344 406.421875 179.699219 425.046875 C 187.894531 456.855469 210.878906 485.402344 237.175781 495.519531 C 244.007812 497.953125 251.691406 499.613281 260.042969 500.078125 C 283.5625 501.390625 312.511719 494.242188 340.054688 483.417969 C 352.503906 478.527344 364.816406 473.085938 375.921875 466.660156 C 396.230469 454.910156 412.90625 441.242188 423.191406 428.925781 C 433.355469 418.449219 433.011719 408.300781 426.972656 398.8125 C 419.28125 386.714844 396.191406 375.511719 378.46875 367.609375 C 386.085938 363.648438 394.195312 358.839844 399.640625 354.785156 C 407.6875 347.890625 412.8125 339.722656 415.777344 330.566406 C 419.527344 318.972656 420.042969 306.011719 420.554688 293.703125 C 420.632812 292.167969 420.640625 289.96875 420.578125 287.195312 C 430.777344 315.570312 448.109375 339.105469 475.1875 351.984375 C 492.527344 359.914062 511.371094 360.761719 529.316406 356.316406 C 546.136719 352.144531 562.136719 343.347656 574.984375 331.980469 L 587.199219 321.566406 C 592.691406 328.152344 598.632812 333.949219 602.640625 337.128906 C 601.101562 339.261719 599.625 341.4375 598.242188 343.660156 C 595.664062 347.796875 593.695312 352.085938 591.648438 356.339844 C 590.667969 358.535156 591.449219 370.917969 587.144531 370.441406 C 583.59375 370.050781 585.917969 372 588.4375 373.175781 L 588.171875 373.292969 C 587.402344 373.71875 587.125 374.683594 587.546875 375.449219 C 587.699219 376.363281 588.527344 376.453125 588.886719 376.929688 C 590.367188 378.894531 590.675781 379.035156 596 376.429688 C 599.785156 374.578125 602.945312 366.539062 604.53125 364.820312 L 620.511719 346.046875 C 629.8125 349.28125 639.773438 351.015625 649.972656 351.605469 C 671.652344 352.863281 694.414062 348.667969 713.4375 344.136719 C 730.722656 339.542969 758.703125 329.191406 776.410156 313.28125 C 791.703125 299.542969 800.113281 282.140625 793.917969 261.429688 C 791.957031 254.871094 788.359375 247.566406 783.527344 241.582031 C 779.871094 237.050781 775.59375 233.207031 770.941406 230.691406 C 753.359375 221.230469 731.890625 223.980469 710.160156 235.191406 C 673.488281 254.113281 635.347656 296.390625 619.136719 316.324219 L 618.613281 316.058594 C 615.9375 314.535156 611.6875 301.777344 606.046875 296.371094 C 606.121094 295.101562 606.082031 293.773438 605.9375 292.382812 C 606.464844 292.351562 605.84375 291.417969 605.816406 291.21875 L 605.9375 292.382812 L 605.921875 292.390625 C 603.65625 292.457031 605.5 285.09375 604.765625 283.34375 C 601 274.367188 594.339844 272.050781 589.582031 272.902344 C 587.167969 273.335938 584.234375 273.324219 581.757812 275.535156 C 576.503906 280.226562 573.378906 285.3125 572.875 291.230469 C 571.230469 291.777344 571.453125 292.71875 572.835938 293.789062 L 572.851562 294.386719 L 572.859375 294.4375 L 570.78125 295.84375 L 554.835938 308.878906 C 545.527344 316.894531 534.023438 323.078125 521.949219 325.941406 C 510.808594 328.585938 499.121094 328.3125 488.410156 323.328125 C 468.378906 314.351562 456.464844 296.546875 448.253906 276.027344 C 434.511719 241.675781 430.976562 199.675781 427.269531 168.625 L 423.402344 119.300781 C 422.167969 106.480469 421.960938 97.4375 421.394531 93.226562 C 421.011719 90.402344 420.707031 88.621094 420.253906 88.109375 C 418.453125 86.089844 418.632812 84.351562 417.289062 84.296875 C 413.59375 84.15625 411.578125 80.382812 409.554688 83.203125 C 408.707031 84.382812 405.957031 83.550781 405.828125 86.023438 Z M 640.871094 322.480469 C 644.242188 322.894531 647.671875 323.105469 651.117188 323.183594 C 670.035156 323.617188 689.734375 319.550781 706.210938 315.234375 C 720.296875 311.929688 743.382812 304.699219 758.082031 292.25 C 765.429688 286.023438 770.886719 278.496094 768.257812 268.707031 C 767.449219 265.679688 766.027344 262.34375 764.074219 259.378906 C 762.464844 256.929688 760.628906 254.59375 758.339844 253.269531 C 743.984375 244.953125 725.5625 253 707.164062 264.503906 C 681.199219 280.746094 655.9375 305.929688 640.871094 322.480469 Z M 576.492188 292.722656 C 576.171875 293.453125 575.867188 294.414062 575.972656 295.253906 C 575.945312 295.03125 576.332031 293.832031 576.492188 292.722656 Z M 576.558594 291.929688 C 576.570312 291.222656 576.390625 290.699219 575.78125 290.742188 C 574.484375 290.828125 573.527344 290.992188 572.875 291.230469 L 572.804688 292.726562 L 572.835938 293.789062 L 573.183594 294.058594 L 573.304688 294.136719 Z M 576.558594 291.929688 " fill-opacity="1" fill-rule="evenodd"/><path fill="#080706" d="M 600.046875 193.90625 C 602.933594 193.34375 600.800781 196.003906 603.8125 194.316406 C 604.421875 193.976562 604.761719 193.164062 605.394531 192.488281 C 611.636719 185.8125 627.128906 177.347656 644.433594 168.429688 C 673.203125 153.59375 707.105469 138.386719 716.277344 134.929688 L 758.640625 121.925781 C 761.214844 121.039062 762.585938 118.230469 761.695312 115.65625 C 760.816406 113.082031 758 111.710938 755.429688 112.597656 C 744.964844 114.714844 734.703125 112.757812 724.378906 113.730469 C 719.234375 114.210938 714.253906 115.671875 709.34375 117.542969 C 698.761719 122.023438 655.15625 142.496094 625.21875 161.941406 C 611.058594 171.136719 599.761719 180.117188 595.839844 186.773438 C 595.066406 188.089844 593.816406 189.296875 594.164062 190.453125 C 595.390625 194.554688 593.707031 191.25 596.941406 193.226562 C 596.753906 194.082031 597.300781 194.929688 598.148438 195.117188 C 599.007812 195.304688 599.851562 194.761719 600.046875 193.90625 Z M 600.046875 193.90625 " fill-opacity="1" fill-rule="evenodd"/><path fill="#080706" d="M 324.113281 73.644531 C 323.125 73.953125 322.527344 74.195312 321.214844 76.226562 C 319.984375 78.132812 319.824219 81.757812 319.355469 86.292969 C 317.230469 106.871094 316.941406 150.785156 319.8125 194.964844 C 321.15625 215.691406 323.527344 236.429688 326.375 254.769531 C 330.730469 282.820312 336.402344 304.933594 338.839844 314.050781 C 339.070312 315.476562 340.417969 316.445312 341.839844 316.210938 C 343.265625 315.980469 344.234375 314.636719 344.003906 313.210938 C 343.835938 307.671875 344.488281 297.664062 344.367188 284.375 C 344.203125 266.195312 343.648438 242.398438 342.113281 217.273438 C 341.335938 204.496094 339.886719 191.445312 338.527344 178.648438 C 334.636719 141.949219 330.773438 107.53125 329.296875 88.769531 C 328.910156 83.878906 329.078125 80.109375 328.484375 77.746094 C 328.046875 76.019531 326.878906 76.019531 326.8125 75.3125 C 327.273438 74.566406 327.042969 73.589844 326.300781 73.128906 C 325.554688 72.667969 324.574219 72.898438 324.113281 73.644531 Z M 324.113281 73.644531 " fill-opacity="1" fill-rule="evenodd"/><path fill="#080706" d="M 209.488281 240.421875 C 208.367188 227.695312 206.386719 215.464844 204.34375 204.980469 C 203.488281 200.128906 201.6875 194.332031 199.898438 188.28125 L 198.433594 176.949219 L 196.671875 163.773438 C 196.125 162.488281 195.75 159.050781 195.449219 158.238281 C 192.808594 151.097656 188.859375 147.148438 186.367188 159.207031 C 185.425781 163.769531 185.679688 169.128906 186.496094 174.792969 C 187.289062 180.25 188.664062 186.023438 189.976562 191.539062 L 191.476562 213.96875 C 191.753906 218.972656 192.925781 229.398438 195.15625 242.027344 C 195.203125 259.226562 193.398438 277.027344 187.378906 291.542969 C 181.402344 305.964844 170.332031 316.078125 151.40625 316.699219 C 147.050781 316.855469 145.628906 312.203125 143.207031 307.683594 C 139.839844 301.394531 137.132812 293.453125 134.597656 284.777344 C 125.671875 254.234375 120.386719 215.800781 117.820312 202.277344 L 114.457031 183.277344 C 114.277344 180.542969 112.035156 178.398438 109.296875 178.335938 C 106.554688 178.273438 104.21875 180.308594 103.914062 183.035156 L 102.695312 193.367188 C 101.535156 202.527344 100.464844 208.835938 97.894531 214.417969 C 95.421875 219.785156 91.378906 224.277344 84.6875 230.277344 C 73.851562 240.257812 46.328125 251.191406 28.941406 265.03125 C 17.765625 273.925781 10.773438 284.289062 10.308594 294.683594 C 9.617188 312.523438 19.914062 322.539062 34.4375 326.890625 C 41.082031 328.882812 48.703125 330.042969 56.191406 329.300781 C 68.191406 328.105469 79.378906 323.441406 85.988281 318.792969 C 88.519531 317.449219 89.488281 314.304688 88.144531 311.769531 C 86.800781 309.234375 83.65625 308.269531 81.121094 309.613281 C 75.007812 311.925781 65.386719 312.042969 55.628906 311.699219 C 50.121094 311.507812 44.558594 311.285156 39.71875 309.75 C 33.242188 307.703125 28.234375 303.507812 28.65625 295.519531 C 28.929688 289.535156 34.304688 284.570312 40.59375 279.273438 C 57.820312 264.761719 84.507812 251.476562 94.898438 240.753906 C 97.949219 237.515625 100.472656 234.585938 102.558594 231.789062 C 102.464844 235.664062 102.421875 239.753906 102.460938 243.988281 C 102.65625 264.746094 104.136719 288.605469 110.214844 306.796875 C 118.488281 331.5625 134.878906 345.703125 153.816406 343.113281 C 183.148438 338.707031 198.816406 321.535156 205.804688 298.09375 C 206.519531 295.691406 207.140625 293.222656 207.667969 290.695312 C 210.613281 298.6875 214.007812 306.113281 217.878906 312.28125 C 230.609375 332.550781 248.015625 340.1875 268.160156 327.105469 C 276.023438 321.414062 280.917969 303.664062 278.792969 279.222656 C 275.605469 242.578125 263.707031 188.644531 256.800781 153.609375 C 254.027344 139.519531 251.492188 128.875 252.542969 123.179688 C 252.804688 122.335938 252.332031 121.441406 251.492188 121.179688 C 250.648438 120.917969 249.753906 121.390625 249.496094 122.234375 C 247.625 126.265625 246.238281 133.300781 246.097656 142.71875 C 245.574219 177.636719 258.148438 243.5625 258.105469 284.097656 C 258.097656 291.550781 257.726562 298.042969 256.703125 303.152344 C 256.246094 305.417969 256.359375 307.371094 255.222656 308.105469 C 250.632812 311.300781 246.578125 310.902344 242.910156 308.113281 C 237.683594 304.132812 232.800781 297.699219 228.511719 289.875 C 220.347656 274.96875 213.886719 256.101562 209.488281 240.421875 Z M 209.488281 240.421875 " fill-opacity="1" fill-rule="evenodd"/><path fill="#080706" d="M 419.28125 58.605469 C 418.917969 58.179688 417.796875 57.914062 417.265625 57.320312 C 415.539062 55.378906 413.90625 52.832031 412.429688 50.117188 C 408.46875 42.859375 405.449219 34.597656 404.144531 31.691406 L 403.070312 27.171875 C 402.652344 23.90625 399.917969 21.429688 396.628906 21.328125 C 393.335938 21.230469 390.464844 23.539062 389.851562 26.777344 L 388.75 33.511719 C 387.953125 38.3125 384.527344 48.890625 379.207031 55.542969 C 376.722656 58.644531 373.992188 61.347656 370.519531 59.511719 C 366.140625 57.1875 363.160156 53.757812 361.070312 49.832031 C 357.542969 43.195312 356.269531 35.234375 357.105469 27.511719 C 356.691406 26.007812 356.714844 23.460938 355.699219 23.210938 C 355.117188 23.066406 354.378906 22.191406 353.414062 23.144531 C 352.648438 23.402344 352.207031 24.1875 352.367188 24.960938 C 352.132812 25.203125 351.410156 25.972656 351.109375 26.371094 C 348.949219 33.933594 348.292969 42.085938 350.167969 49.511719 C 352.195312 57.539062 357.304688 64.402344 365.199219 69.042969 C 371.988281 73.039062 378.441406 71.507812 384.171875 66.996094 C 389.136719 63.082031 393.402344 56.324219 396.5 49.828125 C 399.433594 56.867188 403.339844 64.792969 407.699219 69.175781 C 412.230469 73.738281 417.421875 75.214844 422.511719 73.894531 C 432.492188 71.304688 438.367188 64.90625 441.910156 56.726562 C 446.25 46.707031 447.015625 33.285156 446.492188 21.871094 C 446.273438 17.148438 445.386719 12.953125 445.675781 9.585938 C 446.445312 5.550781 443.789062 1.65625 439.761719 0.890625 C 435.726562 0.128906 431.832031 2.78125 431.066406 6.8125 C 429.78125 11.296875 428.945312 17.292969 428.757812 23.941406 C 428.566406 30.988281 429.339844 38.761719 428.035156 45.617188 C 426.960938 51.273438 424.890625 56.40625 419.28125 58.605469 Z M 419.28125 58.605469 " fill-opacity="1" fill-rule="evenodd"/><path fill="#080706" d="M 213.597656 123.636719 C 211.285156 123.265625 209.433594 119.367188 207.167969 116.476562 C 204.515625 113.089844 202.355469 109.582031 201.382812 107.59375 C 200.3125 105.453125 199.324219 100.578125 198.183594 98.675781 C 196.75 96.273438 194.878906 95.046875 193.296875 94.488281 C 190.363281 93.453125 186.589844 93.164062 183.230469 97.644531 C 178.664062 103.738281 177.261719 119.464844 172.445312 129.507812 C 171.523438 131.433594 170.804688 133.390625 168.84375 133.519531 C 165.507812 133.785156 164.511719 130.613281 163.484375 127.394531 C 161.398438 120.851562 161.402344 112.660156 160.65625 106.769531 C 160.335938 104.269531 159.480469 102.660156 159.199219 101.09375 L 157.835938 98.824219 C 158.710938 98.875 159.464844 98.210938 159.519531 97.335938 C 159.574219 96.460938 158.90625 95.707031 158.03125 95.652344 C 156.695312 95.089844 155.976562 95.871094 155.203125 96.339844 C 154.214844 96.9375 153.992188 98.480469 153.144531 99.945312 C 152.175781 101.648438 150.855469 103.644531 149.917969 106.722656 C 147.292969 115.375 147.644531 128.425781 151.160156 136.964844 C 154.363281 144.75 160.632812 149.347656 169.730469 148.894531 C 175.355469 148.613281 179.726562 145.957031 183.160156 141.660156 C 186.976562 136.882812 188.949219 128.890625 190.828125 121.597656 C 193.761719 125.972656 197.734375 131.015625 201.84375 134.457031 C 206.691406 138.523438 211.957031 140.378906 216.4375 139.765625 C 223.394531 138.820312 230.042969 130.660156 233.097656 118.003906 C 234.832031 110.828125 236.289062 102.289062 236.519531 94.3125 C 236.816406 83.894531 235.519531 74.71875 235.234375 71.140625 C 235.304688 67.953125 232.777344 65.304688 229.585938 65.234375 C 226.398438 65.164062 223.753906 67.695312 223.683594 70.886719 C 223.257812 76.054688 221.539062 93.683594 218.539062 108.363281 C 217.535156 113.289062 216.578125 117.898438 215.011719 121.316406 C 214.640625 122.117188 213.964844 123.121094 213.597656 123.636719 Z M 213.597656 123.636719 " fill-opacity="1" fill-rule="evenodd"/><path fill="#080706" d="M 505.09375 343.433594 L 504.765625 420.984375 C 505.039062 440.589844 509.5 463.34375 509.453125 485.328125 C 509.421875 498.828125 507.355469 511.894531 502.050781 523.445312 C 500.21875 527.5625 494.527344 527.890625 489.304688 528.242188 C 483.285156 528.648438 476.722656 528.363281 473.449219 525.113281 C 470.878906 522.554688 469.34375 519.589844 468.335938 516.421875 C 464.371094 504.035156 464.675781 490.074219 457.339844 479.84375 C 453.386719 474.328125 448.972656 474.4375 445.488281 475.738281 C 443.738281 476.390625 441.554688 477.667969 439.878906 480.367188 C 438.816406 482.097656 437.820312 486.558594 436.558594 488.34375 L 424.59375 506.054688 C 417.371094 514.617188 409.929688 520.734375 401.65625 525.539062 C 393.109375 530.5 383.664062 534.007812 372.71875 537.367188 L 336.015625 542.445312 C 305.488281 549.484375 286.785156 553.222656 268.40625 553.003906 C 249.746094 552.78125 231.464844 548.503906 201.46875 539.953125 C 193.796875 537.335938 185.25 535.683594 177.417969 532.546875 C 173.417969 530.953125 169.804688 528.703125 166.660156 525.71875 C 162.617188 521.921875 159.523438 517.492188 156.332031 513.140625 C 148.542969 502.511719 142.28125 490.675781 137.949219 477.5 C 127.945312 447.082031 124.804688 412.335938 117.417969 384.367188 C 116.988281 382.859375 114.792969 371.304688 112.628906 367.226562 C 110.8125 363.800781 108.351562 362.359375 106.582031 362.128906 C 102.433594 361.59375 100.046875 363.011719 98.6875 365.058594 C 97.617188 366.667969 96.570312 369.527344 97.667969 373.167969 C 98.515625 375.984375 100.953125 380.140625 101.359375 382.65625 C 101.675781 384.71875 102.109375 386.875 102.523438 389.074219 L 103.375 394.214844 L 103.484375 394.984375 C 103.859375 397.933594 103.980469 400.886719 103.535156 403.714844 C 102.953125 407.4375 101.085938 410.730469 97.792969 413.304688 C 93.351562 416.441406 86.777344 418.863281 79.636719 422.128906 C 64.386719 429.101562 46.386719 437.894531 34.800781 448.738281 C 24.445312 458.429688 19.074219 470.066406 22.207031 483.757812 C 25.773438 499.332031 36.015625 505.085938 49.183594 505.265625 C 64.917969 505.480469 86.617188 497.25 100.285156 489.4375 C 104.820312 486.84375 107.847656 483.953125 110.304688 482.714844 C 112.96875 481.960938 114.515625 479.183594 113.761719 476.523438 C 113.007812 473.859375 110.230469 472.308594 107.570312 473.0625 C 103.914062 473.527344 97.9375 474.773438 90.902344 477.273438 C 80.621094 480.921875 68.234375 487.132812 56.976562 489.023438 C 48.0625 490.519531 39.925781 489.886719 37.882812 480.292969 C 36.214844 472.460938 40.285156 466.328125 46.136719 460.75 C 56.660156 450.722656 73.367188 443.167969 86.546875 435.277344 C 94.183594 430.703125 100.542969 425.945312 104.824219 421.507812 C 105.417969 420.949219 105.972656 420.378906 106.488281 419.792969 C 109.285156 446.601562 111.667969 475.433594 120.441406 500.417969 C 124.074219 510.769531 128.472656 520.710938 134.964844 529.175781 C 139.445312 535.019531 144.941406 540 151.027344 544.488281 C 155.515625 547.765625 160.320312 550.28125 165.488281 552.097656 C 175.273438 555.539062 186.042969 556.828125 195.777344 559.238281 C 228.039062 569.097656 247.773438 573.839844 267.949219 574.457031 C 287.71875 575.058594 307.945312 571.628906 340.921875 564.652344 L 379.351562 557.9375 C 391.851562 553.710938 402.574219 549.242188 412.265625 543.242188 C 422.261719 537.054688 431.234375 529.316406 439.820312 518.539062 L 446.417969 508.253906 C 446.890625 512.941406 447.257812 517.71875 448.460938 522.246094 C 450.164062 528.644531 453.066406 534.617188 457.925781 539.964844 C 465.765625 548.570312 483.042969 553.371094 497.628906 550.183594 C 508.933594 547.714844 518.171875 540.9375 521.535156 531.335938 C 525.421875 520.300781 526.796875 508.476562 526.9375 496.242188 C 526.972656 492.972656 526.917969 489.671875 526.785156 486.351562 C 538.128906 519.746094 555.335938 546.292969 580.171875 559.652344 C 606.722656 574.160156 633.953125 577.148438 659.804688 570.953125 C 684.210938 565.101562 707.050781 550.882812 727.304688 533.398438 L 758.164062 502.144531 C 758.464844 501.78125 764.070312 493.332031 766.226562 489.9375 C 766.957031 488.789062 767.511719 487.972656 767.6875 487.570312 C 770.777344 480.558594 765.136719 477.832031 762.542969 477.375 C 761.722656 477.234375 757.894531 477.511719 753.835938 481.023438 C 752.011719 481.105469 749.289062 484.664062 747.605469 487.089844 L 744.453125 490.257812 L 709.574219 511.230469 C 705.554688 514.273438 701.421875 517.140625 697.210938 519.796875 C 692.875 521.035156 688.464844 521.945312 684.035156 522.480469 C 669.328125 524.257812 654.464844 521.5625 641.234375 512.914062 C 635.027344 508.371094 633.269531 502.585938 633.113281 496.667969 C 632.84375 486.597656 638.457031 475.570312 647.074219 465.972656 C 661.242188 450.1875 682.851562 437.578125 700.96875 442.890625 C 703.761719 443.613281 705.59375 444.878906 707.386719 446.046875 C 711.269531 448.570312 714.203125 452.140625 718.925781 452.164062 C 723.359375 452.1875 720.574219 452.0625 724.6875 449.886719 C 725.40625 450.390625 726.394531 450.214844 726.894531 449.496094 C 727.398438 448.777344 727.222656 447.789062 726.503906 447.285156 C 726.8125 443.148438 728.417969 445.109375 727.746094 441.238281 C 726.871094 436.226562 724.488281 432.566406 721.222656 428.65625 C 718.246094 425.09375 713.546875 422.898438 707.683594 421.015625 C 677.0625 411.171875 636.710938 433.957031 618.1875 462.695312 C 610.648438 474.402344 606.246094 487.039062 607.558594 498.460938 C 609.019531 511.207031 616.003906 522.90625 631.074219 530.015625 C 638.652344 534.085938 646.46875 536.746094 654.382812 538.164062 C 649.777344 539.222656 645.136719 539.976562 640.46875 540.410156 C 625.367188 541.8125 609.851562 540.097656 594.296875 532.429688 C 566.699219 518.46875 552.378906 482.5 543.746094 441.5625 C 530.632812 379.398438 532.347656 305.40625 531.554688 264.242188 C 530.039062 239.199219 525.757812 214.089844 523.925781 188.914062 C 523.167969 178.554688 522.800781 168.21875 523.308594 157.871094 L 522.511719 139.0625 L 522.257812 139.097656 L 522.355469 137.800781 C 521.40625 133.027344 516.921875 129.800781 512.089844 130.417969 C 507.265625 131.035156 503.742188 135.289062 504.023438 140.148438 L 503.578125 156.132812 C 502.164062 167.25 501.6875 178.425781 501.621094 189.65625 C 501.464844 214.71875 503.667969 239.910156 503.167969 264.8125 C 503.589844 285.035156 503.6875 312.871094 505.09375 343.433594 Z M 505.09375 343.433594 " fill-opacity="1" fill-rule="evenodd"/><path fill="#080706" d="M 462.273438 128.144531 C 464.105469 126.542969 468.105469 125.84375 473.273438 123.183594 C 478.070312 120.71875 483.597656 117.265625 489.816406 113.585938 C 511.035156 101.035156 539.296875 85.9375 555.535156 79.144531 C 558.445312 77.925781 560.765625 76.972656 562.40625 76.023438 C 563.53125 75.375 562.273438 74.210938 563.085938 73.6875 C 566.40625 74.320312 569.617188 72.132812 570.246094 68.808594 C 570.871094 65.484375 568.6875 62.273438 565.367188 61.644531 C 564.25 60.070312 563.601562 60.09375 561.183594 59.132812 C 558.355469 58.003906 554.0625 59.300781 549.167969 60.589844 C 537.183594 63.753906 519.964844 72.449219 503.523438 82.273438 C 489.925781 90.402344 476.425781 99.007812 467.8125 107.347656 C 460.65625 114.269531 456.941406 120.433594 455.71875 123.945312 C 454.558594 125.757812 455.089844 128.164062 456.902344 129.324219 C 458.707031 130.480469 461.113281 129.953125 462.273438 128.144531 Z M 462.273438 128.144531 " fill-opacity="1" fill-rule="evenodd"/><path fill="#080706" d="M 580.957031 437.054688 C 584.597656 436.109375 588.039062 436.238281 592.421875 434.527344 C 599.265625 431.855469 606.347656 426.863281 614.464844 422.261719 C 636.871094 409.554688 664.230469 394.066406 689.675781 384.675781 C 708.476562 377.738281 725.839844 373.503906 738.464844 375.484375 C 740.542969 375.878906 742.550781 374.507812 742.945312 372.429688 C 743.335938 370.351562 741.972656 368.34375 739.894531 367.949219 C 719.257812 363.328125 685.394531 372.679688 652.761719 386.328125 C 641.699219 390.949219 630.667969 395.796875 620.632812 401.25 C 609.253906 407.4375 598.933594 413.941406 590.632812 420.152344 C 588.621094 421.65625 586.613281 422.988281 585.101562 424.710938 C 582.066406 428.183594 580.871094 431.300781 579.027344 434.527344 C 578.335938 435.058594 578.203125 436.054688 578.734375 436.753906 C 579.265625 437.449219 580.261719 437.582031 580.957031 437.054688 Z M 580.957031 437.054688 " fill-opacity="1" fill-rule="evenodd"/><path fill="#080706" d="M 739.449219 638.679688 C 742.746094 649.449219 742.671875 663.082031 737.378906 679.363281 C 730.363281 700.222656 717.210938 716.511719 700.644531 728.394531 C 683.859375 740.421875 663.527344 747.875 642.242188 750.859375 C 629.816406 753.148438 617.488281 755.179688 605.164062 754.953125 C 597.792969 754.820312 590.421875 754.074219 583.03125 751.691406 C 582.820312 751.402344 582.464844 751.246094 581.886719 751.332031 L 583.03125 751.691406 C 583.605469 752.371094 583.328125 753.789062 583.695312 753.980469 C 585.554688 754.960938 583.9375 756.894531 584.511719 758.398438 C 584.96875 759.597656 583.082031 760.015625 582.90625 761.59375 C 582.820312 762.359375 582.089844 763.066406 580.675781 762.683594 C 577.964844 761.953125 580.308594 762.78125 580.824219 758.023438 C 581.660156 757.761719 582.132812 756.882812 581.878906 756.042969 C 581.625 755.203125 580.738281 754.726562 579.898438 754.984375 C 575.441406 750.085938 576.730469 752.542969 574.351562 752.109375 C 572.761719 751.824219 573.058594 754.101562 572.140625 754.792969 C 570.570312 755.96875 570.988281 757.804688 576.421875 764.816406 C 585.472656 769.082031 594.695312 771.371094 604.078125 772.371094 C 617.601562 773.820312 631.371094 772.3125 645.21875 770.695312 C 669.582031 766.78125 692.753906 757.714844 711.707031 743.46875 C 730.921875 729.019531 745.890625 709.375 753.539062 684.574219 C 766.742188 643.167969 752.121094 615.707031 731.96875 602.269531 C 702.039062 582.300781 659.417969 592.808594 658.742188 634.167969 C 658.25 662.886719 683.878906 673.039062 708.148438 665.351562 C 721.191406 661.214844 734.878906 652.234375 739.449219 638.679688 Z M 730.511719 622.644531 C 728.210938 620.078125 725.628906 617.875 722.84375 616.042969 C 704.171875 603.746094 676.65625 608.597656 676.695312 634.300781 C 676.722656 648.566406 690.53125 650.65625 702.691406 647.191406 C 711.761719 644.613281 719.839844 638.652344 725.320312 630.351562 C 727.054688 627.730469 729.027344 625.441406 730.511719 622.644531 Z M 730.511719 622.644531 " fill-opacity="1" fill-rule="evenodd"/><path fill="#080706" d="M 274.976562 354.246094 C 273.355469 355.117188 271.589844 356.84375 269.78125 359.875 C 267.859375 363.101562 267.753906 369.457031 267.242188 375.597656 C 266.707031 382 267.183594 388.382812 267.335938 391.878906 L 269.117188 465.28125 C 270.730469 479.9375 271.101562 504.496094 274.3125 532.140625 C 275.824219 545.1875 278.964844 558.644531 280.976562 572.445312 C 284.015625 593.289062 286.265625 614.425781 289.933594 633.355469 C 296.726562 668.382812 307.3125 696.191406 320.71875 705.804688 C 342.972656 721.71875 377.566406 727.378906 408.070312 720.136719 C 428.601562 715.257812 447.035156 704.894531 458.789062 689.761719 L 459.140625 690.644531 C 461.367188 695.9375 464.714844 700.660156 468.554688 704.746094 C 474.886719 711.523438 485.46875 715.414062 497.339844 716.035156 C 510.984375 716.75 526.0625 712.816406 535.328125 710.847656 C 544.453125 708.414062 551.582031 702.742188 556.527344 694.257812 C 559.605469 688.960938 561.929688 682.695312 563.699219 676.277344 C 565.335938 683.996094 567.835938 691.574219 571.511719 697.601562 C 579.191406 710.164062 591.371094 716.621094 609.808594 709.765625 C 622.707031 704.121094 631.0625 685.410156 632.980469 665.785156 C 634.4375 650.90625 633.257812 635.671875 628.929688 627.980469 C 626.871094 624.320312 624.726562 621.152344 621.976562 620.78125 C 620.859375 620.628906 620.355469 619.875 619.476562 620.484375 C 615.570312 623.171875 617.523438 619.425781 615.96875 623.992188 C 615.09375 624.015625 614.398438 624.746094 614.425781 625.625 C 614.453125 626.503906 615.1875 627.195312 616.0625 627.164062 C 617.796875 629.234375 613.949219 628.871094 614.65625 631.953125 C 614.863281 632.859375 614.886719 633.941406 615.226562 635.25 C 617.421875 643.695312 617.933594 658.394531 615.027344 671.566406 C 612.851562 681.386719 609.609375 690.664062 602.890625 693.421875 C 594.238281 697.554688 588.074219 695.003906 583.757812 689.273438 C 574.765625 677.339844 571.375 656.703125 570.472656 645.976562 L 570.394531 635.976562 C 570.515625 633.609375 568.777344 631.546875 566.421875 631.269531 C 564.066406 630.992188 561.894531 632.582031 561.453125 634.914062 L 559.164062 644.027344 C 556.71875 653.40625 553.109375 668.726562 546.117188 680.140625 C 542.597656 685.898438 538.015625 690.269531 531.859375 690.789062 C 524.769531 691.726562 513.945312 692.742188 503.414062 693.128906 C 495.078125 693.429688 486.746094 694.4375 481.847656 690.363281 C 479.167969 688.21875 476.675781 685.699219 474.878906 682.683594 C 473.074219 679.660156 471.613281 676.410156 471.105469 672.960938 L 470.589844 664.941406 L 470.949219 663.285156 L 471.027344 662.828125 C 471.347656 661.890625 471.664062 660.925781 471.398438 660.707031 L 471.453125 660.382812 L 471.390625 660.707031 L 471.324219 660.664062 C 467.53125 659.625 464.210938 659.28125 461.3125 659.457031 C 459.320312 657.355469 457.847656 655.351562 457.847656 655.351562 C 457.847656 655.351562 457.4375 656.09375 457.203125 657.148438 L 457.089844 657.722656 L 456.53125 659.878906 L 456.382812 660.351562 C 445.816406 663.722656 443.230469 675.261719 444.710938 679.714844 C 434.433594 689.976562 419.4375 696.214844 403.566406 699.316406 C 378.753906 704.179688 350.964844 701.390625 333 688.59375 C 319.207031 678.789062 312.136719 644.585938 306.339844 606.085938 C 304.671875 594.984375 302.949219 583.539062 301.996094 572.050781 C 300.523438 554.273438 300.976562 536.539062 299.996094 520.292969 C 298.535156 496.175781 296.011719 475.382812 294.3125 462.28125 L 290.628906 390.535156 C 290.308594 386.742188 290.5625 379.269531 289.832031 372.378906 C 289.300781 367.371094 289.171875 362.523438 287.558594 359.871094 C 281.679688 350.21875 276.726562 352.339844 274.976562 354.246094 Z M 457.082031 657.734375 L 456.4375 660.332031 L 456.570312 660.296875 L 456.585938 660.1875 Z M 457.082031 657.734375 " fill-opacity="1" fill-rule="evenodd"/><path fill="#080706" d="M 202.84375 647.636719 C 202.039062 646.761719 201.105469 646.128906 200.234375 645.675781 C 198.277344 644.652344 191.378906 643.28125 186.230469 650.191406 C 182.085938 655.753906 174.351562 670.425781 171.933594 675.0625 C 159.917969 691.496094 144.367188 710.804688 137.445312 717.03125 C 125.78125 727.691406 112.152344 734.78125 97.933594 740.320312 C 83.351562 745.996094 68.09375 750.238281 52.027344 751.414062 C 47.210938 751.46875 43.347656 755.433594 43.40625 760.25 C 43.464844 765.070312 47.425781 768.9375 52.242188 768.875 C 70.683594 769.761719 88.992188 768.253906 105.992188 762.527344 C 123.363281 756.675781 139 746.414062 152.652344 733.222656 C 156.109375 729.828125 161.597656 723.058594 167.722656 714.914062 C 168.347656 716.214844 169.066406 717.460938 169.859375 718.652344 C 179.152344 732.613281 200.898438 740.074219 225.59375 738.394531 C 255.792969 736.347656 263.21875 718.222656 259.921875 697.90625 C 258.839844 691.242188 256.371094 684.296875 253.058594 677.671875 C 255.148438 677.148438 257.191406 676.507812 259.199219 675.777344 C 270.648438 671.589844 280.75 664.355469 290.375 656.328125 C 291.277344 655.574219 292.488281 655.070312 293.066406 654.046875 C 294.628906 651.265625 293.722656 650.226562 294.214844 647.082031 C 294.898438 646.53125 295.007812 645.53125 294.460938 644.847656 C 293.914062 644.164062 292.914062 644.050781 292.226562 644.597656 C 289.074219 644.394531 288.292969 643.210938 285.257812 644.074219 C 271.136719 648.113281 261.171875 660.496094 246.863281 663.007812 L 244.289062 663.382812 C 238.316406 655.296875 231.503906 648.753906 225.339844 645.445312 C 216.359375 640.621094 208.320312 641.429688 202.84375 647.636719 Z M 201.019531 666.777344 C 199.910156 669.257812 197.789062 672.152344 195.5 674.886719 C 191.921875 680.566406 187.515625 687.183594 182.839844 693.917969 C 180.492188 702.507812 182.578125 709.121094 188.269531 713.621094 C 196.484375 720.117188 209.941406 722.570312 224.527344 721.699219 C 240.835938 720.714844 245.472656 711.445312 243.769531 700.464844 C 242.699219 693.570312 239.757812 686.242188 235.898438 679.625 C 228.402344 679.464844 220.382812 678 211.722656 674.941406 C 207.214844 673.355469 203.375 670.363281 201.019531 666.777344 Z M 220.234375 661.128906 C 219.105469 660.285156 217.988281 659.597656 216.894531 659.082031 C 215.945312 658.636719 215.203125 657.609375 214.621094 658.304688 L 217.019531 660.066406 C 218.105469 660.453125 219.171875 660.808594 220.234375 661.128906 Z M 220.234375 661.128906 " fill-opacity="1" fill-rule="evenodd"/><path fill="#080706" d="M 188.527344 596.511719 C 188.464844 596.175781 187.6875 596.132812 186.832031 596.234375 C 182.378906 596.773438 172.59375 600.449219 156.511719 607.027344 C 145.609375 611.960938 135.128906 617.421875 125.21875 623.773438 C 110.761719 633.039062 97.410156 643.761719 82.71875 653 C 79.367188 655.355469 71.757812 665.75 68.6875 665.085938 C 67.871094 664.054688 67.230469 663.21875 67.769531 664.3125 C 67.996094 664.765625 68.304688 665.011719 68.6875 665.085938 C 69.273438 665.835938 69.949219 666.6875 70.332031 667 C 70.996094 667.539062 69.671875 666.65625 68.949219 667.695312 C 68.535156 668.292969 68.597656 667.78125 67.933594 667.207031 C 68.128906 666.347656 67.589844 665.496094 66.734375 665.308594 C 65.882812 665.117188 65.03125 665.648438 64.835938 666.503906 C 59.730469 669.34375 63.554688 670.914062 65.796875 673.046875 C 66.6875 673.890625 68.703125 673.410156 70.949219 672.824219 C 75.703125 671.578125 84.570312 666.269531 89.078125 664.300781 C 97.082031 660.53125 104.945312 656.738281 112.523438 652.335938 C 129.585938 642.425781 145.585938 630.980469 163.765625 622.550781 C 178.449219 614.789062 187.996094 611.761719 191.601562 609.441406 C 193.945312 607.941406 194.917969 607.105469 195.203125 606.59375 C 197.332031 602.789062 198.445312 600.925781 196.996094 599.464844 C 196.183594 598.636719 196.140625 596.800781 194.347656 596.574219 C 193.804688 596.507812 192.757812 595.382812 190.84375 596.070312 C 190.023438 596.046875 189.234375 596.199219 188.527344 596.511719 Z M 185.785156 599.007812 C 185.253906 599.585938 185.089844 600.214844 185.152344 600.867188 C 185.246094 600.195312 185.457031 599.570312 185.785156 599.007812 Z M 185.785156 599.007812 " fill-opacity="1" fill-rule="evenodd"/><path fill="#080706" d="M 92.433594 551.707031 C 91.136719 551.886719 91.257812 551.253906 90.066406 551.84375 C 89.164062 552.289062 88.601562 553.191406 87.84375 553.914062 C 79.238281 562.183594 63.863281 567.0625 50.894531 573.871094 C 43.640625 577.679688 37.621094 582.433594 32.890625 586.546875 C 30.433594 588.273438 29.839844 591.667969 31.566406 594.128906 C 33.292969 596.585938 36.6875 597.175781 39.144531 595.449219 C 43.890625 592.828125 50.210938 591.113281 56.539062 588.046875 C 65.476562 583.707031 74.410156 577.710938 82 571.695312 C 88.011719 566.929688 95.082031 562.558594 95.910156 556.378906 C 96.121094 554.816406 95.6875 554.707031 95.214844 553.234375 C 95.636719 552.464844 95.355469 551.5 94.589844 551.078125 C 93.820312 550.652344 92.855469 550.9375 92.433594 551.707031 Z M 92.433594 551.707031 " fill-opacity="1" fill-rule="evenodd"/><path fill="#080706" d="M 370.183594 627.832031 C 371.984375 629.800781 374.125 631.402344 375.917969 632.066406 C 379.679688 633.460938 385.199219 632.503906 390.289062 622.9375 L 391.863281 611.359375 C 389.925781 600.46875 371.839844 598.765625 364.429688 607.59375 C 359.6875 613.242188 358.222656 619.863281 362.367188 623.535156 C 364.222656 625.175781 365.796875 628.058594 370.183594 627.832031 Z M 378.542969 620.121094 C 379.382812 620.820312 380 620.941406 379.8125 619.855469 C 379.746094 619.457031 379.105469 619.691406 378.542969 620.121094 Z M 379.285156 618.816406 C 379.753906 619.179688 380.210938 619.328125 380.445312 618.992188 C 381.03125 618.132812 380.398438 618.449219 379.285156 618.816406 Z M 374.585938 615.410156 L 374.582031 615.421875 C 374.601562 615.574219 374.589844 615.738281 374.550781 615.894531 L 374.5 616.050781 L 374.992188 616.238281 L 375.125 616.308594 L 375.253906 616.195312 L 375.269531 616.191406 L 375.144531 615.539062 L 375.410156 616.105469 L 376.039062 615.75 C 375.714844 615.484375 374.871094 615.390625 374.75 615.246094 Z M 374.585938 615.410156 " fill-opacity="1" fill-rule="evenodd"/><path fill="#080706" d="M 418.960938 603.976562 C 418.441406 604.835938 417.945312 605.800781 417.449219 606.761719 C 415.34375 610.875 415.554688 616.136719 416.925781 619.691406 C 418.75 624.410156 423.390625 628.644531 434.476562 626.0625 C 447.335938 622.828125 447.335938 614.820312 444.5 608.539062 C 442.433594 603.960938 436.464844 597.347656 430.214844 597.449219 C 428.023438 597.484375 426.796875 597.601562 425.199219 598.652344 C 422.046875 598.652344 419.429688 600.957031 418.960938 603.976562 Z M 429.371094 614.671875 C 429.398438 615.339844 429.617188 615.738281 430.074219 615.496094 C 430.570312 615.242188 430.136719 614.96875 429.371094 614.671875 Z M 429.441406 613.421875 L 429.375 613.804688 C 429.550781 614.015625 429.785156 614.113281 430.082031 614.074219 C 430.667969 613.992188 430.113281 613.796875 429.441406 613.421875 Z M 430.027344 611.296875 L 430.246094 611.253906 C 430.738281 611.09375 431.578125 610.953125 431.375 610.679688 C 430.890625 610.046875 430.402344 610.476562 430.027344 611.296875 Z M 430.027344 611.296875 " fill-opacity="1" fill-rule="evenodd"/><path fill="#080706" d="M 498.589844 620.21875 C 497.78125 620.453125 497.273438 620.808594 498.039062 621.28125 L 498.054688 621.28125 C 497.414062 622.042969 497.058594 623.039062 497.117188 624.101562 C 497.238281 626.378906 499.1875 628.128906 501.457031 628.007812 C 501.753906 628.007812 503.957031 627.386719 505.761719 624.699219 C 507.410156 622.234375 510.972656 616.546875 513.671875 614.203125 C 520.101562 608.621094 526.238281 603.441406 532.4375 598.589844 C 537.042969 594.996094 541.96875 592.109375 546.765625 588.800781 C 551.523438 585.515625 555.664062 581.683594 561.351562 578.839844 C 563.132812 578.339844 564.175781 576.484375 563.675781 574.699219 C 563.167969 572.910156 561.316406 571.871094 559.527344 572.371094 C 550.007812 573.621094 541.597656 575.796875 534.183594 580.296875 C 523.5625 586.734375 515.804688 596.960938 506.578125 606.941406 C 503.765625 610.042969 500.25 616.976562 498.589844 620.21875 Z M 498.253906 621.046875 C 498.945312 620.300781 499.917969 619.820312 501.015625 619.757812 C 500.824219 619.78125 499.515625 619.921875 498.589844 620.21875 L 498.488281 620.410156 C 498.386719 620.609375 498.320312 620.863281 498.253906 621.046875 L 498.167969 621.125 L 498.054688 621.28125 L 498.105469 621.292969 C 498.125 621.273438 498.144531 621.257812 498.160156 621.246094 Z M 498.253906 621.046875 " fill-opacity="1" fill-rule="evenodd"/><path fill="#080706" d="M 291.195312 809.484375 C 293.488281 809.226562 295.535156 809.480469 297.824219 809.027344 C 315.972656 805.4375 335.304688 800.8125 354.527344 796.402344 C 363.902344 794.253906 373.074219 791.535156 381.671875 787.507812 C 391.289062 783.152344 400.816406 776.050781 411.050781 771.957031 C 415.121094 770.332031 419.3125 769.214844 423.6875 769.058594 C 425.222656 769.003906 426.597656 769.402344 427.890625 770.023438 C 435.484375 773.660156 441.136719 782.941406 449.480469 784.324219 C 454.328125 785.132812 459.351562 784.1875 464.351562 782.191406 C 473.492188 778.550781 482.5625 771.117188 490.691406 768.796875 C 495.359375 767.371094 503.195312 770.71875 510.519531 771.570312 C 514.347656 772.015625 517.953125 771.867188 521.019531 771.050781 C 522.457031 770.855469 523.472656 769.535156 523.277344 768.089844 C 523.085938 766.648438 521.761719 765.636719 520.320312 765.832031 C 513.273438 766.328125 503.777344 761.59375 496.34375 760.3125 C 493.324219 759.792969 490.585938 759.882812 488.351562 760.46875 C 479.945312 762.804688 470.417969 770.125 461.03125 773.972656 C 457.570312 775.386719 454.152344 776.363281 450.773438 775.894531 C 443.171875 774.824219 438.191406 765.984375 431.21875 762.847656 C 428.777344 761.753906 426.175781 761.140625 423.3125 761.308594 C 418.066406 761.621094 413.0625 763.03125 408.21875 765.09375 C 397.96875 769.46875 388.476562 776.828125 378.847656 781.445312 C 356.613281 791.6875 330.398438 792.675781 307.273438 798.585938 C 302.882812 799.703125 298.292969 800.347656 294.488281 802.570312 C 292.621094 803.664062 291.472656 805.101562 289.917969 806.582031 C 289.117188 806.929688 288.75 807.867188 289.105469 808.671875 C 289.457031 809.472656 290.394531 809.84375 291.195312 809.484375 Z M 291.195312 809.484375 " fill-opacity="1" fill-rule="evenodd"/></svg>